%TF.GenerationSoftware,KiCad,Pcbnew,9.0.7*%
%TF.CreationDate,2026-03-22T17:50:13-04:00*%
%TF.ProjectId,Ring-Light,52696e67-2d4c-4696-9768-742e6b696361,rev?*%
%TF.SameCoordinates,Original*%
%TF.FileFunction,Legend,Bot*%
%TF.FilePolarity,Positive*%
%FSLAX46Y46*%
G04 Gerber Fmt 4.6, Leading zero omitted, Abs format (unit mm)*
G04 Created by KiCad (PCBNEW 9.0.7) date 2026-03-22 17:50:13*
%MOMM*%
%LPD*%
G01*
G04 APERTURE LIST*
%ADD10C,0.150000*%
%ADD11C,0.254000*%
%ADD12C,0.152400*%
%ADD13C,0.508000*%
%ADD14C,0.200000*%
%ADD15C,0.100000*%
G04 APERTURE END LIST*
D10*
X73610466Y-47195180D02*
X73610466Y-46480895D01*
X73610466Y-46480895D02*
X73562847Y-46338038D01*
X73562847Y-46338038D02*
X73467609Y-46242800D01*
X73467609Y-46242800D02*
X73324752Y-46195180D01*
X73324752Y-46195180D02*
X73229514Y-46195180D01*
X74562847Y-47195180D02*
X74086657Y-47195180D01*
X74086657Y-47195180D02*
X74039038Y-46718990D01*
X74039038Y-46718990D02*
X74086657Y-46766609D01*
X74086657Y-46766609D02*
X74181895Y-46814228D01*
X74181895Y-46814228D02*
X74419990Y-46814228D01*
X74419990Y-46814228D02*
X74515228Y-46766609D01*
X74515228Y-46766609D02*
X74562847Y-46718990D01*
X74562847Y-46718990D02*
X74610466Y-46623752D01*
X74610466Y-46623752D02*
X74610466Y-46385657D01*
X74610466Y-46385657D02*
X74562847Y-46290419D01*
X74562847Y-46290419D02*
X74515228Y-46242800D01*
X74515228Y-46242800D02*
X74419990Y-46195180D01*
X74419990Y-46195180D02*
X74181895Y-46195180D01*
X74181895Y-46195180D02*
X74086657Y-46242800D01*
X74086657Y-46242800D02*
X74039038Y-46290419D01*
D11*
X90804318Y-42026667D02*
X91711461Y-42026667D01*
X91711461Y-42026667D02*
X91892889Y-41966190D01*
X91892889Y-41966190D02*
X92013842Y-41845238D01*
X92013842Y-41845238D02*
X92074318Y-41663809D01*
X92074318Y-41663809D02*
X92074318Y-41542857D01*
X91227651Y-43175714D02*
X92074318Y-43175714D01*
X90743842Y-42873333D02*
X91650984Y-42570952D01*
X91650984Y-42570952D02*
X91650984Y-43357143D01*
D12*
%TO.C,J5*%
X69854400Y-43475000D02*
X78033200Y-43475000D01*
X69854400Y-51349000D02*
X69854400Y-43475000D01*
X78033200Y-43475000D02*
X78033200Y-51349000D01*
X78033200Y-51349000D02*
X69854400Y-51349000D01*
D13*
X79049200Y-46650000D02*
G75*
G02*
X78287200Y-46650000I-381000J0D01*
G01*
X78287200Y-46650000D02*
G75*
G02*
X79049200Y-46650000I381000J0D01*
G01*
D14*
%TO.C,J4*%
X91100000Y-39275000D02*
X91900000Y-39275000D01*
X91100000Y-39910000D02*
X91900000Y-39910000D01*
X91100000Y-44990000D02*
X91900000Y-44990000D01*
X91100000Y-45625000D02*
X91900000Y-45625000D01*
D15*
X95030000Y-39910000D02*
X95030000Y-39910000D01*
X95130000Y-39910000D02*
X95130000Y-39910000D01*
X95030000Y-39910000D02*
G75*
G02*
X95130000Y-39910000I50000J0D01*
G01*
X95130000Y-39910000D02*
G75*
G02*
X95030000Y-39910000I-50000J0D01*
G01*
%TD*%
M02*
