M48
; DRILL file {KiCad 9.0.7} date 2026-03-22T17:50:16-0400
; FORMAT={-:-/ absolute / metric / decimal}
; #@! TF.CreationDate,2026-03-22T17:50:16-04:00
; #@! TF.GenerationSoftware,Kicad,Pcbnew,9.0.7
; #@! TF.FileFunction,Plated,1,4,PTH
FMAT,2
METRIC
; #@! TA.AperFunction,Plated,PTH,ViaDrill
T1C0.200
; #@! TA.AperFunction,Plated,PTH,ComponentDrill
T2C0.200
; #@! TA.AperFunction,Plated,PTH,ViaDrill
T3C0.300
; #@! TA.AperFunction,Plated,PTH,ComponentDrill
T4C0.800
; #@! TA.AperFunction,Plated,PTH,ComponentDrill
T5C1.250
; #@! TA.AperFunction,Plated,PTH,ComponentDrill
T6C1.620
; #@! TA.AperFunction,Plated,PTH,ComponentDrill
T7C1.778
; #@! TA.AperFunction,Plated,PTH,ComponentDrill
T8C2.200
%
G90
G05
T1
X59.81Y-57.87
X60.14Y-59.4
X60.23Y-65.76
X60.25Y-71.58
X60.63Y-68.97
X60.76Y-57.87
X60.85Y-62.63
X61.29Y-60.88
X61.82Y-57.88
X61.84Y-59.19
X62.22Y-70.42
X62.77Y-62.97
X62.87Y-61.4
X63.05Y-57.89
X63.4Y-59.7
X64.42Y-69.09
X64.6Y-61.0
X64.74Y-62.89
X66.3Y-61.8
X66.39Y-66.04
X66.64Y-67.84
X67.125Y-53.45
X67.15Y-64.64
X67.4Y-58.0
X68.025Y-52.525
X68.42Y-66.84
X68.45Y-55.5
X68.45Y-57.95
X68.975Y-59.05
X68.975Y-62.5
X69.025Y-53.425
X69.27Y-64.22
X69.975Y-52.525
X70.975Y-62.5
X71.0Y-59.05
X71.02Y-65.54
X71.7Y-53.6
X73.9Y-53.575
X74.5Y-55.1
X75.6Y-55.1
X76.125Y-53.575
X76.8Y-55.1
X77.9Y-50.32
X77.9Y-51.78
X77.95Y-49.0
X78.9Y-49.0
X78.9Y-50.32
X78.9Y-51.78
X79.95Y-53.9
X80.07Y-50.28
X80.15Y-56.65
X80.15Y-57.9
X80.15Y-59.35
X80.15Y-60.75
X80.15Y-62.35
X81.05Y-57.14
X81.56Y-50.4
X81.75Y-57.14
X82.05Y-52.2
X82.05Y-52.85
X82.05Y-53.5
X82.05Y-54.15
X82.45Y-57.14
X83.0Y-50.14
X83.15Y-57.14
X84.65Y-47.85
X86.09Y-56.59
X86.6Y-46.55
X86.65Y-62.16
X86.66Y-49.14
X86.7Y-47.15
X87.2Y-46.05
X87.3Y-48.9
X87.35Y-62.58
X87.95Y-44.75
X88.05Y-63.0
X88.11Y-49.0
X88.45Y-50.1
X88.55Y-38.08
X88.75Y-63.43
X88.9Y-49.03
X89.45Y-57.13
X89.45Y-63.87
X89.45Y-65.92
X89.79Y-38.08
X89.8Y-45.975
X89.95Y-52.2
X89.95Y-52.85
X89.95Y-53.5
X89.95Y-54.15
X90.07Y-50.9
X90.15Y-57.13
X90.15Y-64.31
X90.2Y-38.95
X90.8Y-47.05
X90.85Y-45.85
X90.85Y-57.13
X90.85Y-64.77
X91.03Y-38.08
X91.15Y-42.525
X91.325Y-40.05
X91.55Y-57.13
X91.55Y-65.21
X91.725Y-40.55
X91.95Y-51.55
X92.27Y-38.08
X92.52Y-50.14
X92.8Y-57.14
X92.8Y-65.21
X92.84Y-56.0
X93.0Y-45.9
X93.31Y-44.51
X93.5Y-57.14
X93.5Y-64.67
X93.51Y-38.08
X93.525Y-39.15
X93.8Y-51.2
X93.8Y-52.2
X93.8Y-52.85
X93.8Y-53.5
X93.8Y-54.15
X94.2Y-57.14
X94.2Y-64.17
X94.74Y-50.11
X94.75Y-38.08
X94.76Y-65.92
X94.9Y-57.14
X94.9Y-63.68
X95.1Y-41.98
X95.2Y-42.7
X95.43Y-39.51
X95.6Y-63.19
X95.99Y-38.08
X96.24Y-48.13
X96.3Y-62.71
X96.56Y-45.265
X97.0Y-62.24
X97.29Y-46.43
X97.7Y-61.79
X97.74Y-46.84
X97.8Y-56.6
X98.4Y-49.0
X98.44Y-47.52
X98.45Y-48.2
X98.64Y-37.77
X98.82Y-41.54
X98.82Y-42.8
X98.82Y-44.06
X99.05Y-47.6
X99.65Y-47.64
X99.89Y-40.46
X99.89Y-41.54
X99.89Y-42.8
X99.89Y-44.06
X99.89Y-45.13
X100.13Y-48.11
X100.5Y-50.2
X100.63Y-47.67
X101.09Y-47.25
X101.15Y-40.46
X101.15Y-41.54
X101.15Y-42.8
X101.15Y-44.06
X101.15Y-45.13
X101.2Y-57.13
X101.65Y-50.2
X101.7Y-52.2
X101.7Y-52.85
X101.7Y-53.5
X101.7Y-54.15
X101.9Y-57.13
X102.41Y-40.46
X102.41Y-41.54
X102.41Y-42.8
X102.41Y-44.06
X102.41Y-45.13
X102.5Y-48.5
X102.6Y-57.13
X103.3Y-57.13
X103.48Y-41.54
X103.48Y-42.8
X103.48Y-44.06
X104.09Y-38.09
X104.25Y-50.85
X104.7Y-39.2
X105.35Y-54.35
X105.5Y-39.2
X105.5Y-50.6
X105.625Y-57.7
X105.625Y-59.1
X105.8Y-41.6
X105.8Y-42.3
X105.817Y-60.357
X106.05Y-48.2
X106.1Y-39.2
X106.46Y-61.25
X106.6Y-38.05
X106.75Y-44.15
X107.0Y-48.45
X107.3Y-61.225
X107.475Y-55.025
X107.6Y-51.1
X107.8Y-44.15
X107.8Y-56.675
X107.958Y-38.05
X108.35Y-40.05
X108.35Y-41.45
X108.75Y-43.55
X108.85Y-55.45
X109.31Y-63.05
X109.317Y-38.05
X109.63Y-46.51
X109.79Y-55.27
X109.85Y-51.7
X109.9Y-43.5
X110.225Y-58.625
X110.225Y-59.425
X110.675Y-38.05
X110.85Y-43.55
X110.88Y-46.51
X110.88Y-55.22
X111.15Y-58.825
X111.4Y-63.62
X111.5Y-54.1
X111.51Y-47.54
X111.7Y-43.9
X112.0Y-56.9
X112.033Y-38.05
X112.13Y-46.51
X112.23Y-41.66
X112.65Y-44.65
X112.85Y-61.78
X113.025Y-51.1
X113.025Y-52.175
X113.38Y-46.51
X113.392Y-38.05
X113.43Y-40.27
X113.46Y-48.21
X113.583Y-44.65
X114.14Y-43.17
X114.517Y-44.65
X114.55Y-64.66
X114.63Y-46.51
X114.75Y-38.05
X115.45Y-52.175
X115.55Y-38.97
X115.55Y-40.106
X115.55Y-41.242
X115.55Y-42.378
X115.55Y-43.514
X115.55Y-44.65
X115.55Y-47.61
X115.55Y-50.05
X115.87Y-57.39
X115.875Y-53.675
X115.88Y-46.51
X116.35Y-50.475
X116.5Y-58.825
X116.65Y-48.85
X116.88Y-64.03
X116.96Y-62.25
X117.125Y-55.675
X117.13Y-46.51
X117.4Y-65.81
X117.425Y-60.45
X117.46Y-57.05
X117.5Y-39.5
X117.5Y-40.79
X117.5Y-42.08
X117.5Y-43.37
X117.5Y-44.66
X117.575Y-51.5
X117.725Y-53.235
X118.38Y-46.51
X118.5Y-39.5
X118.5Y-44.65
X118.575Y-60.45
X118.8Y-38.36
X119.1Y-42.53
X119.5Y-39.5
X119.5Y-44.65
X119.55Y-52.525
X119.63Y-46.51
X119.81Y-57.34
X120.09Y-41.07
X120.32Y-67.2
X120.6Y-39.5
X120.6Y-44.65
X120.88Y-46.51
X120.95Y-38.05
X121.18Y-64.85
X121.54Y-40.95
X121.54Y-42.315
X121.54Y-43.65
X121.65Y-44.65
X121.79Y-54.69
X122.13Y-46.51
X122.44Y-38.05
X122.7Y-44.65
X122.843Y-40.95
X122.95Y-54.69
X123.38Y-46.51
X123.5Y-68.85
X123.85Y-39.51
X123.93Y-38.05
X124.145Y-40.95
X124.145Y-42.0
X124.145Y-43.05
X124.22Y-45.9
X125.0Y-45.39
X125.29Y-44.57
X125.42Y-38.05
X125.447Y-40.95
X126.29Y-70.49
X126.75Y-40.95
X126.75Y-42.3
X126.75Y-43.65
X126.88Y-39.49
X126.88Y-45.94
X126.91Y-38.05
X127.31Y-69.13
X127.8Y-63.75
X128.24Y-71.8
X128.4Y-38.05
X128.4Y-39.66
X128.4Y-41.27
X128.4Y-42.88
X128.4Y-44.49
X128.4Y-46.1
T2
X69.975Y-59.875
X69.975Y-60.825
X69.975Y-61.775
T3
X40.81Y-115.97
X41.355Y-126.409
X41.606Y-117.378
X42.009Y-123.769
X42.015Y-113.506
X42.363Y-127.646
X42.609Y-120.169
X42.867Y-107.16
X43.306Y-110.093
X43.609Y-115.169
X43.609Y-116.169
X43.609Y-122.169
X43.709Y-120.169
X43.879Y-136.552
X43.891Y-130.187
X43.897Y-112.249
X43.897Y-125.088
X44.005Y-133.835
X44.023Y-103.443
X44.092Y-126.069
X44.385Y-110.307
X44.609Y-115.169
X44.609Y-116.169
X44.609Y-122.169
X44.877Y-112.444
X44.877Y-124.893
X44.97Y-129.972
X45.067Y-106.365
X45.072Y-125.874
X45.109Y-137.569
X45.262Y-105.384
X45.262Y-131.953
X45.609Y-115.169
X45.609Y-116.169
X45.609Y-117.669
X45.609Y-121.169
X45.609Y-122.169
X45.858Y-112.64
X45.858Y-124.698
X45.955Y-100.346
X46.048Y-106.56
X46.053Y-111.659
X46.053Y-125.679
X46.096Y-97.385
X46.114Y-102.577
X46.114Y-134.761
X46.243Y-105.579
X46.243Y-131.758
X46.346Y-127.15
X46.496Y-135.684
X46.609Y-115.169
X46.609Y-116.169
X46.609Y-117.169
X46.609Y-118.169
X46.609Y-119.169
X46.609Y-120.169
X46.609Y-121.169
X46.609Y-122.169
X46.736Y-108.226
X46.839Y-112.835
X46.839Y-124.503
X46.971Y-100.767
X47.029Y-106.755
X47.029Y-130.582
X47.034Y-111.854
X47.034Y-125.483
X47.038Y-102.959
X47.038Y-134.378
X47.103Y-139.763
X47.224Y-105.774
X47.224Y-131.563
X47.229Y-110.873
X47.229Y-126.464
X47.42Y-135.302
X47.424Y-109.892
X47.424Y-127.445
X47.609Y-115.169
X47.609Y-116.169
X47.609Y-117.169
X47.609Y-118.169
X47.609Y-119.169
X47.609Y-120.169
X47.609Y-121.169
X47.609Y-122.169
X47.619Y-108.911
X47.619Y-128.426
X47.814Y-107.931
X47.814Y-129.407
X47.82Y-113.03
X47.82Y-124.308
X47.927Y-143.318
X47.956Y-93.964
X47.961Y-103.342
X47.961Y-133.995
X48.009Y-106.95
X48.009Y-130.387
X48.015Y-112.049
X48.015Y-125.288
X48.119Y-139.342
X48.204Y-105.969
X48.204Y-131.368
X48.21Y-111.068
X48.21Y-126.269
X48.333Y-146.008
X48.344Y-102.418
X48.344Y-134.919
X48.405Y-110.087
X48.405Y-127.25
X48.41Y-97.033
X48.6Y-109.107
X48.6Y-128.231
X48.609Y-115.669
X48.609Y-116.669
X48.609Y-117.669
X48.609Y-118.669
X48.609Y-119.669
X48.609Y-120.669
X48.609Y-121.669
X48.792Y-96.11
X48.792Y-141.228
X48.795Y-108.126
X48.795Y-129.212
X48.885Y-103.725
X48.885Y-133.613
X48.898Y-112.734
X48.898Y-124.603
X48.918Y-136.305
X48.99Y-107.145
X48.99Y-130.192
X49.093Y-111.754
X49.093Y-125.584
X49.185Y-131.173
X49.268Y-102.801
X49.268Y-134.536
X49.288Y-110.773
X49.288Y-126.564
X49.334Y-97.416
X49.483Y-109.792
X49.483Y-127.545
X49.609Y-115.669
X49.609Y-116.669
X49.609Y-117.669
X49.609Y-118.669
X49.609Y-119.669
X49.609Y-120.669
X49.609Y-121.669
X49.651Y-101.877
X49.651Y-135.46
X49.678Y-108.811
X49.678Y-128.526
X49.684Y-99.185
X49.716Y-96.492
X49.716Y-140.845
X49.738Y-146.765
X49.809Y-133.23
X49.873Y-107.83
X49.873Y-129.507
X49.879Y-112.929
X49.879Y-124.408
X50.033Y-100.953
X50.033Y-136.384
X50.069Y-130.488
X50.074Y-111.949
X50.074Y-125.389
X50.175Y-93.522
X50.175Y-143.815
X50.192Y-103.184
X50.192Y-134.154
X50.258Y-97.799
X50.258Y-139.538
X50.269Y-110.968
X50.269Y-126.369
X50.416Y-100.029
X50.416Y-137.308
X50.455Y-91.304
X50.464Y-109.987
X50.464Y-127.35
X50.575Y-102.26
X50.575Y-135.078
X50.609Y-115.669
X50.609Y-116.669
X50.609Y-120.669
X50.609Y-121.669
X50.64Y-96.875
X50.64Y-140.462
X50.659Y-109.006
X50.659Y-128.331
X50.731Y-144.646
X50.799Y-99.105
X50.799Y-138.232
X50.854Y-108.026
X50.854Y-129.312
X50.86Y-113.125
X50.86Y-124.213
X50.924Y-133.309
X50.957Y-101.336
X50.957Y-136.001
X51.007Y-94.078
X51.007Y-143.259
X51.049Y-130.293
X51.055Y-112.144
X51.055Y-125.194
X51.171Y-88.427
X51.181Y-98.181
X51.181Y-139.156
X51.307Y-103.104
X51.307Y-134.233
X51.34Y-100.412
X51.34Y-136.925
X51.37Y-91.915
X51.562Y-144.091
X51.564Y-97.258
X51.564Y-140.08
X51.609Y-115.669
X51.609Y-116.669
X51.609Y-120.669
X51.609Y-121.669
X51.69Y-102.18
X51.69Y-135.157
X51.723Y-99.488
X51.723Y-137.849
X51.835Y-108.221
X51.835Y-129.117
X51.838Y-94.634
X51.838Y-142.704
X51.84Y-113.32
X51.84Y-124.018
X51.848Y-132.926
X52.03Y-107.24
X52.03Y-130.097
X52.035Y-112.339
X52.035Y-124.998
X52.072Y-101.257
X52.072Y-136.081
X52.105Y-98.564
X52.105Y-138.773
X52.122Y-148.528
X52.231Y-103.487
X52.231Y-133.85
X52.394Y-93.802
X52.394Y-143.535
X52.455Y-100.333
X52.455Y-137.005
X52.488Y-97.64
X52.609Y-115.669
X52.609Y-116.669
X52.609Y-120.669
X52.609Y-121.669
X52.614Y-102.563
X52.614Y-134.774
X52.67Y-95.189
X52.67Y-142.148
X52.772Y-104.794
X52.772Y-132.544
X52.816Y-108.416
X52.816Y-128.922
X52.821Y-113.515
X52.821Y-123.823
X52.838Y-99.409
X52.838Y-137.928
X52.996Y-101.639
X52.996Y-135.698
X53.011Y-107.435
X53.011Y-129.902
X53.016Y-112.534
X53.016Y-124.803
X53.036Y-147.917
X53.155Y-103.87
X53.155Y-133.468
X53.221Y-98.485
X53.225Y-94.358
X53.225Y-142.98
X53.379Y-100.715
X53.379Y-136.622
X53.501Y-95.745
X53.509Y-88.534
X53.609Y-115.669
X53.609Y-116.669
X53.609Y-120.669
X53.609Y-121.669
X53.623Y-151.854
X53.662Y-85.435
X53.696Y-105.176
X53.696Y-132.161
X53.762Y-99.791
X53.762Y-137.546
X53.781Y-93.526
X53.781Y-143.811
X53.797Y-108.611
X53.797Y-128.726
X53.802Y-113.71
X53.802Y-123.627
X53.992Y-107.63
X53.992Y-129.707
X53.997Y-112.729
X53.997Y-124.608
X54.057Y-94.913
X54.057Y-142.424
X54.064Y-87.702
X54.064Y-149.635
X54.079Y-104.252
X54.079Y-133.085
X54.144Y-98.868
X54.336Y-92.695
X54.336Y-144.642
X54.338Y-90.892
X54.338Y-146.445
X54.34Y-89.089
X54.546Y-154.413
X54.609Y-115.669
X54.609Y-116.669
X54.609Y-120.669
X54.609Y-121.669
X54.61Y-95.885
X54.612Y-94.082
X54.612Y-143.255
X54.62Y-105.559
X54.62Y-131.778
X54.686Y-100.174
X54.686Y-137.163
X54.777Y-108.806
X54.777Y-128.531
X54.783Y-113.905
X54.783Y-123.432
X54.892Y-91.863
X54.892Y-145.474
X54.896Y-88.258
X54.896Y-149.08
X54.972Y-107.825
X54.972Y-129.512
X54.978Y-112.924
X54.978Y-124.413
X55.003Y-104.635
X55.003Y-132.702
X55.068Y-99.25
X55.068Y-138.087
X55.109Y-118.169
X55.109Y-119.169
X55.166Y-95.053
X55.166Y-142.284
X55.168Y-93.25
X55.168Y-144.087
X55.172Y-89.645
X55.172Y-147.692
X55.442Y-96.44
X55.448Y-91.032
X55.448Y-146.305
X55.544Y-105.942
X55.544Y-131.396
X55.609Y-100.557
X55.609Y-136.78
X55.722Y-94.222
X55.722Y-143.116
X55.723Y-92.419
X55.723Y-144.918
X55.727Y-88.813
X55.727Y-148.524
X55.758Y-109.001
X55.758Y-128.336
X55.761Y-111.551
X55.761Y-125.787
X55.925Y-85.435
X55.925Y-151.903
X55.926Y-105.018
X55.926Y-132.32
X55.953Y-108.02
X55.953Y-129.317
X55.956Y-110.57
X55.956Y-126.768
X55.992Y-99.633
X55.992Y-137.704
X55.997Y-95.609
X55.997Y-141.729
X56.003Y-90.2
X56.003Y-147.137
X56.072Y-154.881
X56.273Y-96.996
X56.273Y-140.342
X56.277Y-93.39
X56.277Y-143.947
X56.279Y-91.587
X56.279Y-145.75
X56.468Y-106.324
X56.468Y-131.013
X56.533Y-100.94
X56.533Y-136.398
X56.553Y-94.777
X56.553Y-142.56
X56.559Y-89.369
X56.559Y-147.968
X56.609Y-117.169
X56.609Y-118.669
X56.609Y-120.169
X56.632Y-83.313
X56.632Y-86.142
X56.632Y-151.196
X56.632Y-152.61
X56.829Y-96.164
X56.829Y-141.173
X56.833Y-92.559
X56.833Y-144.779
X56.835Y-90.756
X56.835Y-146.581
X56.85Y-105.4
X56.85Y-131.937
X56.916Y-100.016
X56.916Y-137.322
X57.037Y-112.824
X57.037Y-124.513
X57.105Y-97.551
X57.105Y-139.786
X57.109Y-93.946
X57.109Y-143.392
X57.33Y-111.353
X57.33Y-125.985
X57.339Y-86.849
X57.339Y-150.488
X57.339Y-151.903
X57.388Y-91.727
X57.388Y-145.61
X57.39Y-89.924
X57.39Y-147.413
X57.41Y-84.091
X57.457Y-101.322
X57.457Y-136.015
X57.622Y-109.882
X57.622Y-127.456
X57.66Y-96.72
X57.66Y-140.617
X57.664Y-93.114
X57.664Y-144.223
X57.84Y-100.398
X57.84Y-136.939
X57.886Y-104.206
X57.886Y-133.131
X57.896Y-80.631
X57.936Y-98.107
X57.936Y-139.23
X57.944Y-90.896
X57.944Y-146.441
X58.047Y-86.142
X58.047Y-87.556
X58.047Y-149.781
X58.047Y-151.196
X58.22Y-92.283
X58.22Y-145.054
X58.269Y-103.282
X58.269Y-134.055
X58.381Y-101.705
X58.381Y-135.632
X58.492Y-97.275
X58.492Y-140.062
X58.754Y-86.849
X58.754Y-88.263
X58.754Y-149.074
X58.754Y-150.488
X58.754Y-156.145
X58.764Y-100.781
X58.764Y-136.556
X58.768Y-98.662
X58.768Y-138.675
X58.775Y-91.451
X58.775Y-145.886
X58.889Y-105.704
X58.889Y-131.633
X59.051Y-92.838
X59.051Y-144.499
X59.107Y-152.256
X59.323Y-97.831
X59.323Y-139.506
X59.461Y-86.142
X59.461Y-87.556
X59.461Y-149.781
X59.461Y-151.196
X59.464Y-104.318
X59.464Y-133.019
X59.531Y-155.367
X59.599Y-99.218
X59.599Y-138.119
X59.607Y-92.007
X59.607Y-145.33
X59.814Y-88.617
X59.814Y-148.721
X59.883Y-93.394
X59.883Y-143.943
X60.038Y-102.932
X60.038Y-134.405
X60.1Y-43.0
X60.1Y-44.5
X60.155Y-98.387
X60.155Y-138.951
X60.168Y-81.192
X60.168Y-85.435
X60.168Y-86.849
X60.168Y-150.488
X60.168Y-151.903
X60.438Y-92.563
X60.438Y-144.775
X60.521Y-83.667
X60.521Y-87.909
X60.521Y-89.324
X60.521Y-148.014
X60.521Y-149.428
X60.6Y-50.3
X60.6Y-51.5
X60.714Y-93.95
X60.714Y-143.388
X60.875Y-80.485
X60.875Y-81.899
X60.875Y-84.728
X60.875Y-86.142
X60.875Y-151.196
X60.875Y-152.61
X60.875Y-156.852
X60.875Y-159.115
X60.923Y-78.182
X61.229Y-87.202
X61.229Y-88.617
X61.229Y-90.031
X61.229Y-147.306
X61.229Y-148.721
X61.229Y-150.135
X61.27Y-93.118
X61.27Y-144.219
X61.404Y-97.417
X61.404Y-139.92
X61.546Y-94.505
X61.546Y-142.832
X61.582Y-81.192
X61.582Y-82.606
X61.582Y-84.02
X61.582Y-85.435
X61.582Y-151.903
X61.582Y-153.317
X61.582Y-154.731
X61.582Y-156.145
X61.8Y-43.0
X61.8Y-44.5
X61.936Y-86.495
X61.936Y-87.909
X61.936Y-89.324
X61.936Y-90.738
X61.936Y-146.599
X61.936Y-148.014
X61.936Y-149.428
X61.936Y-150.842
X61.959Y-96.586
X61.959Y-140.752
X62.0Y-50.3
X62.0Y-51.5
X62.096Y-99.082
X62.096Y-138.255
X62.101Y-93.674
X62.101Y-143.664
X62.28Y-161.444
X62.289Y-81.899
X62.289Y-83.313
X62.289Y-84.728
X62.289Y-152.61
X62.289Y-154.024
X62.289Y-155.438
X62.377Y-95.061
X62.377Y-142.277
X62.643Y-85.788
X62.643Y-87.202
X62.643Y-90.031
X62.643Y-91.445
X62.643Y-145.892
X62.643Y-147.306
X62.643Y-150.135
X62.643Y-151.549
X62.929Y-97.835
X62.929Y-139.503
X62.933Y-94.229
X62.933Y-143.108
X62.996Y-82.606
X62.996Y-84.02
X62.996Y-153.317
X62.996Y-154.731
X63.143Y-78.624
X63.143Y-158.713
X63.35Y-85.081
X63.35Y-86.495
X63.35Y-90.738
X63.35Y-92.152
X63.35Y-145.185
X63.35Y-146.599
X63.35Y-150.842
X63.35Y-152.256
X63.4Y-50.3
X63.4Y-51.5
X63.5Y-43.0
X63.5Y-44.5
X63.698Y-79.455
X63.698Y-157.882
X63.703Y-83.313
X63.703Y-154.024
X63.762Y-96.588
X63.762Y-140.75
X63.867Y-161.606
X63.974Y-159.269
X64.057Y-84.374
X64.057Y-85.788
X64.057Y-91.445
X64.057Y-92.859
X64.057Y-144.478
X64.057Y-145.892
X64.057Y-151.549
X64.057Y-152.963
X64.25Y-76.681
X64.254Y-80.287
X64.254Y-157.05
X64.53Y-158.437
X64.764Y-85.081
X64.764Y-86.495
X64.764Y-92.152
X64.764Y-145.185
X64.764Y-150.842
X64.764Y-152.256
X64.809Y-81.118
X64.809Y-156.219
X64.861Y-77.596
X65.085Y-79.731
X65.085Y-157.606
X65.365Y-81.95
X65.365Y-155.387
X65.471Y-85.788
X65.471Y-87.202
X65.471Y-150.135
X65.471Y-151.549
X65.641Y-80.563
X65.641Y-156.775
X66.0Y-43.2
X66.0Y-44.4
X66.0Y-48.8
X66.0Y-50.0
X66.013Y-74.297
X66.178Y-86.495
X66.178Y-87.909
X66.178Y-91.445
X66.178Y-145.892
X66.178Y-149.428
X66.178Y-150.842
X66.196Y-81.394
X66.196Y-155.943
X66.332Y-158.439
X66.336Y-82.503
X66.336Y-154.834
X66.472Y-80.007
X66.472Y-157.33
X66.532Y-93.213
X66.532Y-144.124
X66.744Y-162.323
X66.885Y-87.202
X66.885Y-88.617
X66.885Y-90.738
X66.885Y-146.599
X66.885Y-148.721
X66.885Y-150.135
X66.892Y-83.335
X66.892Y-154.002
X67.028Y-80.839
X67.028Y-156.499
X67.168Y-81.948
X67.168Y-155.389
X67.304Y-79.452
X67.304Y-157.886
X67.355Y-161.408
X67.4Y-43.2
X67.4Y-44.4
X67.4Y-48.8
X67.4Y-50.0
X67.447Y-84.166
X67.447Y-153.171
X67.592Y-87.909
X67.592Y-89.324
X67.592Y-92.152
X67.592Y-145.185
X67.592Y-148.014
X67.592Y-149.428
X67.723Y-82.779
X67.723Y-154.558
X67.859Y-80.283
X67.859Y-157.054
X67.995Y-77.787
X67.999Y-81.392
X67.999Y-155.945
X68.003Y-84.998
X68.003Y-152.339
X68.131Y-75.291
X68.135Y-78.896
X68.135Y-158.441
X68.279Y-83.611
X68.279Y-153.726
X68.3Y-88.617
X68.3Y-148.721
X68.555Y-82.224
X68.555Y-155.113
X68.558Y-85.829
X68.558Y-151.508
X68.653Y-91.091
X68.653Y-146.246
X68.687Y-76.122
X68.691Y-79.728
X68.691Y-157.61
X68.8Y-43.2
X68.8Y-44.4
X68.8Y-48.8
X68.8Y-50.0
X68.831Y-80.837
X68.831Y-156.501
X68.834Y-84.442
X68.834Y-152.895
X68.963Y-74.735
X68.963Y-162.602
X68.967Y-78.34
X68.967Y-158.997
X69.114Y-86.661
X69.114Y-150.676
X69.243Y-76.953
X69.243Y-160.384
X69.386Y-81.668
X69.386Y-155.669
X69.39Y-85.274
X69.39Y-152.063
X69.404Y-164.822
X69.459Y-72.486
X69.518Y-75.566
X69.518Y-161.771
X69.522Y-79.172
X69.522Y-158.165
X69.662Y-80.281
X69.662Y-157.056
X69.67Y-87.492
X69.67Y-149.845
X69.798Y-77.785
X69.798Y-159.552
X69.945Y-86.105
X69.945Y-151.232
X70.074Y-76.398
X70.074Y-160.939
X70.218Y-81.113
X70.218Y-156.225
X70.354Y-78.616
X70.354Y-158.721
X70.493Y-79.726
X70.493Y-157.612
X70.501Y-86.937
X70.501Y-150.401
X70.63Y-77.229
X70.63Y-160.108
X71.0Y-56.725
X71.049Y-80.557
X71.049Y-156.78
X71.185Y-159.276
X71.237Y-166.832
X71.325Y-158.167
X71.55Y-73.352
X71.55Y-163.985
X71.605Y-81.389
X71.605Y-155.949
X71.881Y-157.336
X71.933Y-74.276
X71.933Y-163.061
X72.026Y-86.519
X72.026Y-150.818
X72.028Y-88.322
X72.028Y-149.015
X72.16Y-82.22
X72.16Y-155.117
X72.315Y-75.2
X72.315Y-162.137
X72.436Y-80.833
X72.436Y-156.504
X72.474Y-164.368
X72.698Y-76.124
X72.698Y-161.214
X72.716Y-83.052
X72.716Y-154.286
X72.825Y-166.681
X72.856Y-163.444
X72.857Y-85.964
X72.857Y-151.374
X72.992Y-81.664
X72.992Y-155.673
X73.015Y-71.663
X73.081Y-160.29
X73.239Y-74.817
X73.239Y-162.52
X73.271Y-83.883
X73.271Y-153.454
X73.275Y-87.489
X73.275Y-149.849
X73.436Y-72.679
X73.547Y-82.496
X73.547Y-154.841
X73.622Y-75.741
X73.622Y-161.596
X73.827Y-84.714
X73.827Y-152.623
X73.925Y-159.557
X74.005Y-76.665
X74.005Y-160.672
X74.103Y-83.327
X74.103Y-154.01
X74.265Y-62.64
X74.308Y-158.633
X74.522Y-86.655
X74.522Y-150.682
X74.546Y-75.358
X74.546Y-161.979
X74.625Y-163.094
X74.658Y-84.159
X74.658Y-153.178
X74.691Y-79.628
X74.691Y-157.709
X74.849Y-77.397
X74.849Y-159.94
X74.928Y-76.282
X74.928Y-161.055
X75.073Y-80.552
X75.073Y-156.785
X75.209Y-69.669
X75.232Y-78.321
X75.232Y-159.016
X75.456Y-81.476
X75.456Y-155.862
X75.47Y-74.976
X75.47Y-162.362
X75.614Y-79.245
X75.614Y-158.092
X75.773Y-77.015
X75.773Y-160.322
X75.787Y-166.822
X75.8Y-43.0
X75.8Y-44.2
X75.839Y-82.4
X75.839Y-154.938
X75.852Y-75.9
X75.852Y-161.438
X75.997Y-80.169
X75.997Y-157.168
X76.156Y-77.939
X76.156Y-159.399
X76.208Y-165.806
X76.221Y-83.323
X76.221Y-154.014
X76.38Y-81.093
X76.38Y-156.244
X76.393Y-74.593
X76.393Y-162.744
X76.473Y-73.478
X76.5Y-39.9
X76.5Y-41.4
X76.697Y-76.632
X76.697Y-160.705
X76.7Y-31.4
X76.7Y-32.6
X76.7Y-33.8
X76.763Y-82.017
X76.763Y-155.32
X76.776Y-75.517
X76.776Y-161.82
X77.08Y-77.556
X77.08Y-159.781
X77.093Y-71.056
X77.145Y-82.941
X77.145Y-154.397
X77.2Y-43.0
X77.2Y-44.2
X77.317Y-74.21
X77.317Y-163.127
X77.476Y-71.98
X77.621Y-76.249
X77.621Y-161.088
X77.7Y-39.9
X77.7Y-41.4
X77.7Y-75.134
X77.7Y-162.203
X77.85Y-56.65
X77.859Y-72.904
X77.859Y-164.434
X78.003Y-77.173
X78.003Y-160.164
X78.017Y-70.673
X78.017Y-166.664
X78.2Y-45.4
X78.2Y-47.3
X78.241Y-73.828
X78.241Y-163.51
X78.3Y-31.4
X78.3Y-32.6
X78.3Y-33.8
X78.373Y-84.597
X78.373Y-152.74
X78.4Y-71.597
X78.4Y-165.74
X78.545Y-75.867
X78.545Y-161.471
X78.6Y-43.0
X78.6Y-44.2
X78.624Y-74.752
X78.624Y-162.586
X78.722Y-82.829
X78.722Y-154.509
X78.782Y-72.521
X78.782Y-164.816
X78.883Y-168.754
X78.9Y-39.9
X78.9Y-41.4
X78.927Y-76.791
X78.927Y-160.547
X78.943Y-68.565
X78.95Y-56.65
X79.165Y-73.445
X79.165Y-163.892
X79.31Y-77.715
X79.31Y-159.623
X79.469Y-75.484
X79.548Y-74.369
X79.6Y-45.4
X79.6Y-47.3
X79.646Y-82.446
X79.646Y-154.891
X79.693Y-78.638
X79.693Y-158.699
X79.7Y-36.08
X79.7Y-37.0
X79.7Y-38.0
X79.758Y-84.023
X79.758Y-153.314
X79.851Y-76.408
X80.075Y-79.562
X80.075Y-157.775
X80.234Y-77.332
X80.234Y-160.005
X80.458Y-80.486
X80.458Y-156.851
X80.617Y-78.256
X80.617Y-159.082
X80.824Y-69.822
X80.824Y-167.515
X80.841Y-81.41
X80.841Y-155.927
X80.999Y-79.18
X80.999Y-158.158
X81.019Y-70.803
X81.019Y-166.535
X81.072Y-170.369
X81.144Y-83.449
X81.144Y-153.888
X81.214Y-71.783
X81.214Y-165.554
X81.3Y-48.95
X81.382Y-80.103
X81.382Y-157.234
X81.409Y-72.764
X81.409Y-164.573
X81.605Y-73.745
X81.765Y-81.027
X81.765Y-156.31
X81.805Y-167.711
X82.0Y-166.73
X82.195Y-71.588
X82.195Y-165.749
X82.29Y-74.628
X82.39Y-72.569
X82.39Y-164.768
X82.45Y-48.95
X82.485Y-75.609
X82.585Y-73.55
X82.585Y-163.787
X82.591Y-68.451
X82.601Y-169.911
X82.68Y-76.59
X82.68Y-160.748
X82.805Y-69.53
X82.875Y-77.571
X82.875Y-159.767
X83.07Y-78.551
X83.07Y-158.786
X83.265Y-79.532
X83.265Y-157.805
X83.271Y-74.433
X83.271Y-162.904
X83.371Y-72.374
X83.371Y-164.963
X83.461Y-80.513
X83.461Y-156.824
X83.466Y-75.414
X83.466Y-161.923
X83.566Y-73.355
X83.566Y-163.983
X83.661Y-76.395
X83.661Y-160.943
X83.666Y-166.042
X83.856Y-77.375
X83.856Y-159.962
X84.051Y-78.356
X84.051Y-158.981
X84.2Y-31.8
X84.2Y-33.0
X84.246Y-79.337
X84.246Y-158.0
X84.252Y-74.238
X84.252Y-163.099
X84.352Y-72.179
X84.352Y-165.158
X84.4Y-38.7
X84.441Y-80.318
X84.441Y-157.019
X84.447Y-75.219
X84.447Y-162.118
X84.547Y-73.16
X84.547Y-164.178
X85.132Y-66.923
X85.2Y-30.8
X85.232Y-74.043
X85.232Y-163.294
X85.322Y-82.182
X85.322Y-155.155
X85.333Y-71.984
X85.333Y-165.353
X85.427Y-75.024
X85.427Y-162.314
X85.5Y-47.89
X85.528Y-72.965
X85.528Y-164.373
X85.533Y-169.472
X85.6Y-35.3
X85.6Y-38.7
X85.628Y-70.905
X85.748Y-168.393
X86.01Y-80.516
X86.01Y-156.822
X86.213Y-73.848
X86.213Y-163.489
X86.313Y-71.789
X86.313Y-165.549
X86.4Y-30.8
X86.4Y-39.7
X86.4Y-40.9
X86.4Y-42.1
X86.408Y-74.829
X86.408Y-162.509
X86.508Y-72.769
X86.508Y-164.568
X86.709Y-68.651
X86.793Y-81.889
X86.793Y-155.448
X86.8Y-35.3
X86.8Y-38.7
X86.904Y-69.632
X86.991Y-80.32
X86.991Y-157.017
X87.099Y-70.613
X87.099Y-166.724
X87.194Y-73.653
X87.194Y-163.685
X87.294Y-71.594
X87.294Y-165.744
X87.389Y-74.634
X87.389Y-162.704
X87.489Y-72.574
X87.489Y-164.763
X87.584Y-75.614
X87.584Y-161.723
X87.69Y-68.456
X87.69Y-168.881
X87.779Y-76.595
X87.779Y-160.742
X87.885Y-69.437
X87.885Y-167.9
X87.974Y-77.576
X87.974Y-159.761
X88.08Y-70.418
X88.08Y-166.92
X88.169Y-78.557
X88.169Y-158.781
X88.175Y-73.458
X88.175Y-163.88
X88.264Y-81.597
X88.264Y-155.741
X88.275Y-71.399
X88.275Y-165.939
X88.364Y-79.537
X88.364Y-157.8
X88.37Y-74.438
X88.37Y-162.899
X88.47Y-72.379
X88.47Y-164.958
X88.565Y-75.419
X88.565Y-161.918
X88.76Y-76.4
X88.76Y-160.937
X88.947Y-170.763
X88.955Y-77.381
X88.955Y-159.957
X89.009Y-66.569
X89.15Y-78.362
X89.15Y-158.976
X89.345Y-79.342
X89.345Y-157.995
X90.609Y-68.169
X90.609Y-69.169
X90.609Y-70.169
X90.609Y-71.169
X90.609Y-72.169
X90.609Y-165.169
X90.609Y-166.169
X90.609Y-167.169
X90.609Y-168.169
X90.609Y-169.169
X91.109Y-73.169
X91.109Y-74.169
X91.109Y-75.169
X91.109Y-76.169
X91.109Y-77.169
X91.109Y-78.169
X91.109Y-79.169
X91.109Y-158.169
X91.109Y-159.169
X91.109Y-160.169
X91.109Y-161.169
X91.109Y-162.169
X91.109Y-163.169
X91.109Y-164.169
X91.409Y-171.919
X91.609Y-70.169
X91.609Y-71.169
X91.609Y-72.169
X91.609Y-165.169
X91.609Y-166.169
X91.609Y-167.169
X91.609Y-168.169
X91.609Y-169.169
X91.65Y-46.55
X92.109Y-73.169
X92.109Y-74.169
X92.109Y-75.169
X92.109Y-76.169
X92.109Y-77.169
X92.109Y-78.169
X92.109Y-79.169
X92.109Y-158.169
X92.109Y-159.169
X92.109Y-160.169
X92.109Y-161.169
X92.109Y-162.169
X92.109Y-163.169
X92.109Y-164.169
X92.19Y-48.51
X92.609Y-67.169
X92.609Y-68.269
X92.609Y-71.169
X92.609Y-72.169
X92.609Y-81.169
X92.609Y-156.169
X92.609Y-165.169
X92.609Y-166.169
X92.819Y-171.171
X93.109Y-73.169
X93.109Y-74.169
X93.109Y-163.169
X93.109Y-164.169
X93.109Y-167.169
X93.609Y-71.169
X93.609Y-72.169
X93.609Y-79.669
X93.609Y-157.669
X93.609Y-165.169
X93.609Y-166.169
X94.109Y-73.169
X94.109Y-74.169
X94.109Y-81.169
X94.109Y-156.169
X94.109Y-163.169
X94.109Y-164.169
X94.58Y-47.4
X94.609Y-71.169
X94.609Y-72.169
X94.609Y-79.669
X94.609Y-157.669
X94.609Y-165.169
X94.609Y-166.169
X95.109Y-70.169
X95.109Y-73.169
X95.109Y-74.169
X95.109Y-163.169
X95.109Y-164.169
X95.609Y-71.169
X95.609Y-72.169
X95.609Y-81.169
X95.609Y-156.169
X95.609Y-165.169
X95.609Y-166.169
X95.609Y-169.069
X95.609Y-170.169
X96.109Y-73.169
X96.109Y-74.169
X96.109Y-75.169
X96.109Y-76.169
X96.109Y-77.169
X96.109Y-78.169
X96.109Y-79.169
X96.109Y-158.169
X96.109Y-159.169
X96.109Y-160.169
X96.109Y-161.169
X96.109Y-162.169
X96.109Y-163.169
X96.109Y-164.169
X96.609Y-68.169
X96.609Y-69.169
X96.609Y-70.169
X96.609Y-71.169
X96.609Y-72.169
X96.609Y-165.169
X96.609Y-166.169
X96.609Y-167.169
X97.109Y-73.169
X97.109Y-74.169
X97.109Y-75.169
X97.109Y-76.169
X97.109Y-77.169
X97.109Y-78.169
X97.109Y-79.169
X97.109Y-158.169
X97.109Y-159.169
X97.109Y-160.169
X97.109Y-161.169
X97.109Y-162.169
X97.109Y-163.169
X97.109Y-164.169
X97.609Y-68.169
X97.609Y-69.169
X97.609Y-70.169
X97.609Y-71.169
X97.609Y-72.169
X97.609Y-165.169
X97.609Y-166.169
X97.609Y-167.169
X97.609Y-168.169
X97.609Y-169.169
X97.74Y-47.57
X98.873Y-79.342
X98.873Y-157.995
X99.068Y-78.362
X99.068Y-158.976
X99.209Y-170.769
X99.263Y-77.381
X99.263Y-159.957
X99.271Y-66.575
X99.458Y-76.4
X99.458Y-160.937
X99.653Y-75.419
X99.653Y-161.918
X99.748Y-72.379
X99.748Y-164.958
X99.848Y-74.438
X99.848Y-162.899
X99.853Y-79.537
X99.853Y-157.8
X99.943Y-71.399
X99.943Y-165.939
X99.954Y-81.597
X99.954Y-155.741
X100.043Y-73.458
X100.043Y-163.88
X100.049Y-78.557
X100.049Y-158.781
X100.138Y-70.418
X100.138Y-166.92
X100.244Y-77.576
X100.244Y-159.761
X100.333Y-69.437
X100.333Y-167.9
X100.439Y-76.595
X100.439Y-160.742
X100.528Y-68.456
X100.528Y-168.881
X100.634Y-75.614
X100.634Y-161.723
X100.729Y-72.574
X100.729Y-164.763
X100.829Y-74.634
X100.829Y-162.704
X100.87Y-48.4
X100.924Y-71.594
X100.924Y-165.744
X101.024Y-73.653
X101.024Y-163.685
X101.119Y-70.613
X101.119Y-166.724
X101.227Y-80.32
X101.227Y-157.017
X101.314Y-167.705
X101.425Y-81.889
X101.425Y-155.448
X101.509Y-168.686
X101.71Y-72.769
X101.71Y-164.568
X101.81Y-74.829
X101.81Y-162.509
X101.849Y-171.422
X101.905Y-71.789
X101.905Y-165.549
X102.005Y-73.848
X102.005Y-163.489
X102.208Y-80.516
X102.208Y-156.822
X102.47Y-68.944
X102.5Y-50.35
X102.59Y-166.432
X102.685Y-67.866
X102.69Y-72.965
X102.69Y-164.373
X102.791Y-75.024
X102.791Y-162.314
X102.885Y-71.984
X102.885Y-165.353
X102.896Y-82.182
X102.896Y-155.155
X102.986Y-74.043
X102.986Y-163.294
X103.086Y-170.414
X103.671Y-73.16
X103.671Y-164.178
X103.771Y-75.219
X103.771Y-162.118
X103.777Y-80.318
X103.777Y-157.019
X103.866Y-72.179
X103.866Y-165.158
X103.966Y-74.238
X103.966Y-163.099
X103.972Y-79.337
X103.972Y-158.0
X104.167Y-78.356
X104.167Y-158.981
X104.28Y-54.53
X104.362Y-77.375
X104.362Y-159.962
X104.552Y-71.296
X104.557Y-76.395
X104.557Y-160.943
X104.652Y-73.355
X104.652Y-163.983
X104.752Y-75.414
X104.752Y-161.923
X104.757Y-80.513
X104.757Y-156.824
X104.847Y-72.374
X104.847Y-164.963
X104.947Y-74.433
X104.947Y-162.904
X104.952Y-79.532
X104.952Y-157.805
X105.148Y-78.551
X105.148Y-158.786
X105.343Y-77.571
X105.343Y-159.767
X105.413Y-167.808
X105.538Y-76.59
X105.538Y-160.748
X105.617Y-67.426
X105.627Y-168.886
X105.633Y-73.55
X105.633Y-163.787
X105.733Y-161.728
X105.828Y-72.569
X105.828Y-164.768
X105.928Y-162.709
X106.023Y-71.588
X106.023Y-165.749
X106.218Y-70.607
X106.413Y-69.627
X106.453Y-81.027
X106.453Y-156.31
X106.613Y-163.592
X106.809Y-72.764
X106.809Y-164.573
X106.836Y-80.103
X106.836Y-157.234
X107.004Y-71.783
X107.004Y-165.554
X107.074Y-83.449
X107.074Y-153.888
X107.199Y-70.803
X107.199Y-166.535
X107.219Y-79.18
X107.219Y-158.158
X107.377Y-81.41
X107.377Y-155.927
X107.394Y-69.822
X107.394Y-167.515
X107.601Y-78.256
X107.601Y-159.082
X107.76Y-80.486
X107.76Y-156.851
X107.984Y-77.332
X107.984Y-160.005
X108.143Y-79.562
X108.143Y-157.775
X108.367Y-160.929
X108.46Y-84.023
X108.46Y-153.314
X108.525Y-78.638
X108.525Y-158.699
X108.572Y-82.446
X108.572Y-154.891
X108.67Y-162.968
X108.749Y-161.853
X108.908Y-77.715
X108.908Y-159.623
X109.053Y-73.445
X109.053Y-163.892
X109.275Y-168.773
X109.291Y-76.791
X109.291Y-160.547
X109.335Y-68.583
X109.436Y-72.521
X109.436Y-164.816
X109.496Y-82.829
X109.496Y-154.509
X109.594Y-74.752
X109.594Y-162.586
X109.673Y-75.867
X109.673Y-161.471
X109.818Y-71.597
X109.818Y-165.74
X109.845Y-84.597
X109.845Y-152.74
X109.977Y-73.828
X109.977Y-163.51
X110.201Y-70.673
X110.201Y-166.664
X110.215Y-77.173
X110.215Y-160.164
X110.359Y-72.904
X110.359Y-164.434
X110.518Y-75.134
X110.518Y-162.203
X110.597Y-76.249
X110.597Y-161.088
X110.742Y-165.357
X110.901Y-74.21
X110.901Y-163.127
X111.073Y-82.941
X111.073Y-154.397
X111.125Y-166.281
X111.138Y-77.556
X111.138Y-159.781
X111.442Y-75.517
X111.442Y-161.82
X111.455Y-82.017
X111.455Y-155.32
X111.521Y-76.632
X111.521Y-160.705
X111.745Y-163.859
X111.825Y-74.593
X111.825Y-162.744
X111.838Y-81.093
X111.838Y-156.244
X111.992Y-168.898
X111.997Y-83.323
X111.997Y-154.014
X112.01Y-71.531
X112.062Y-77.939
X112.062Y-159.399
X112.221Y-80.169
X112.221Y-157.168
X112.366Y-75.9
X112.366Y-161.438
X112.379Y-82.4
X112.379Y-154.938
X112.431Y-70.515
X112.445Y-77.015
X112.445Y-160.322
X112.603Y-79.245
X112.603Y-158.092
X112.748Y-74.976
X112.748Y-162.362
X112.762Y-81.476
X112.762Y-155.862
X112.986Y-78.321
X112.986Y-159.016
X113.009Y-167.669
X113.145Y-80.552
X113.145Y-156.785
X113.29Y-76.282
X113.29Y-161.055
X113.369Y-77.397
X113.369Y-159.94
X113.527Y-79.628
X113.527Y-157.709
X113.56Y-84.159
X113.56Y-153.178
X113.593Y-74.243
X113.672Y-75.358
X113.672Y-161.979
X113.696Y-86.655
X113.696Y-150.682
X113.91Y-78.704
X114.115Y-83.327
X114.115Y-154.01
X114.213Y-76.665
X114.213Y-160.672
X114.293Y-77.78
X114.391Y-84.714
X114.391Y-152.623
X114.596Y-75.741
X114.596Y-161.596
X114.671Y-82.496
X114.671Y-154.841
X114.782Y-164.658
X114.943Y-87.489
X114.943Y-149.849
X114.947Y-83.883
X114.947Y-153.454
X114.979Y-74.817
X114.979Y-162.52
X115.137Y-77.048
X115.203Y-165.674
X115.226Y-81.664
X115.226Y-155.673
X115.36Y-85.964
X115.36Y-151.374
X115.362Y-73.893
X115.393Y-70.656
X115.502Y-83.052
X115.502Y-154.286
X115.52Y-76.124
X115.52Y-161.214
X115.744Y-72.969
X115.782Y-80.833
X115.782Y-156.504
X115.903Y-75.2
X115.903Y-162.137
X116.058Y-82.22
X116.058Y-155.117
X116.19Y-88.322
X116.19Y-149.015
X116.192Y-86.519
X116.192Y-150.818
X116.285Y-74.276
X116.285Y-163.061
X116.337Y-80.002
X116.613Y-81.389
X116.613Y-155.949
X116.668Y-73.352
X116.668Y-163.985
X116.893Y-79.17
X117.033Y-78.061
X117.169Y-80.557
X117.169Y-156.78
X117.588Y-77.229
X117.588Y-160.108
X117.717Y-86.937
X117.717Y-150.401
X117.724Y-79.726
X117.724Y-157.612
X117.864Y-78.616
X117.864Y-158.721
X118.0Y-81.113
X118.0Y-156.225
X118.144Y-76.398
X118.144Y-160.939
X118.273Y-86.105
X118.273Y-151.232
X118.42Y-77.785
X118.42Y-159.552
X118.548Y-87.492
X118.548Y-149.845
X118.556Y-80.281
X118.556Y-157.056
X118.696Y-79.172
X118.696Y-158.165
X118.7Y-75.566
X118.7Y-161.771
X118.759Y-164.851
X118.814Y-72.516
X118.828Y-85.274
X118.828Y-152.063
X118.832Y-81.668
X118.832Y-155.669
X118.975Y-76.953
X118.975Y-160.384
X119.104Y-86.661
X119.104Y-150.676
X119.251Y-78.34
X119.251Y-158.997
X119.255Y-74.735
X119.255Y-162.602
X119.384Y-84.442
X119.384Y-152.895
X119.387Y-80.837
X119.387Y-156.501
X119.527Y-79.728
X119.527Y-157.61
X119.531Y-161.215
X119.565Y-91.091
X119.565Y-146.246
X119.66Y-85.829
X119.66Y-151.508
X119.663Y-82.224
X119.663Y-155.113
X119.7Y-62.5
X119.825Y-47.4
X119.918Y-88.617
X119.918Y-148.721
X119.939Y-83.611
X119.939Y-153.726
X120.083Y-78.896
X120.083Y-158.441
X120.087Y-162.047
X120.215Y-84.998
X120.215Y-152.339
X120.219Y-81.392
X120.219Y-155.945
X120.223Y-159.55
X120.359Y-80.283
X120.359Y-157.054
X120.495Y-82.779
X120.495Y-154.558
X120.625Y-87.909
X120.625Y-89.324
X120.625Y-92.152
X120.625Y-145.185
X120.625Y-148.014
X120.625Y-149.428
X120.771Y-84.166
X120.771Y-153.171
X120.863Y-75.929
X120.914Y-79.452
X120.914Y-157.886
X121.05Y-81.948
X121.05Y-155.389
X121.19Y-80.839
X121.19Y-156.499
X121.326Y-83.335
X121.326Y-154.002
X121.333Y-87.202
X121.333Y-88.617
X121.333Y-90.738
X121.333Y-146.599
X121.333Y-148.721
X121.333Y-150.135
X121.448Y-164.444
X121.474Y-75.015
X121.686Y-93.213
X121.686Y-144.124
X121.746Y-80.007
X121.746Y-157.33
X121.825Y-62.5
X121.882Y-82.503
X121.882Y-154.834
X121.886Y-78.898
X121.95Y-47.4
X122.022Y-81.394
X122.022Y-155.943
X122.04Y-86.495
X122.04Y-87.909
X122.04Y-91.445
X122.04Y-145.892
X122.04Y-149.428
X122.04Y-150.842
X122.205Y-163.04
X122.577Y-80.563
X122.577Y-156.775
X122.747Y-85.788
X122.747Y-87.202
X122.747Y-150.135
X122.747Y-151.549
X122.853Y-81.95
X122.853Y-155.387
X123.133Y-79.731
X123.133Y-157.606
X123.357Y-159.741
X123.409Y-81.118
X123.409Y-156.219
X123.454Y-85.081
X123.454Y-86.495
X123.454Y-92.152
X123.454Y-145.185
X123.454Y-150.842
X123.454Y-152.256
X123.688Y-78.9
X123.95Y-62.5
X123.964Y-80.287
X123.964Y-157.05
X123.968Y-160.656
X124.075Y-47.4
X124.161Y-84.374
X124.161Y-85.788
X124.161Y-91.445
X124.161Y-92.859
X124.161Y-144.478
X124.161Y-145.892
X124.161Y-151.549
X124.161Y-152.963
X124.244Y-78.068
X124.351Y-75.731
X124.456Y-96.588
X124.456Y-140.75
X124.515Y-83.313
X124.515Y-154.024
X124.52Y-79.455
X124.52Y-157.882
X124.868Y-85.081
X124.868Y-86.495
X124.868Y-90.738
X124.868Y-92.152
X124.868Y-145.185
X124.868Y-146.599
X124.868Y-150.842
X124.868Y-152.256
X125.075Y-78.624
X125.075Y-158.713
X125.222Y-82.606
X125.222Y-84.02
X125.222Y-153.317
X125.222Y-154.731
X125.285Y-94.229
X125.285Y-143.108
X125.289Y-97.835
X125.289Y-139.503
X125.575Y-85.788
X125.575Y-87.202
X125.575Y-90.031
X125.575Y-91.445
X125.575Y-145.892
X125.575Y-147.306
X125.575Y-150.135
X125.575Y-151.549
X125.841Y-95.061
X125.841Y-142.277
X125.929Y-81.899
X125.929Y-83.313
X125.929Y-84.728
X125.929Y-152.61
X125.929Y-154.024
X125.929Y-155.438
X126.075Y-62.5
X126.117Y-93.674
X126.117Y-143.664
X126.122Y-99.082
X126.122Y-138.255
X126.2Y-47.4
X126.259Y-96.586
X126.259Y-140.752
X126.282Y-86.495
X126.282Y-87.909
X126.282Y-89.324
X126.282Y-90.738
X126.282Y-146.599
X126.282Y-148.014
X126.282Y-149.428
X126.282Y-150.842
X126.636Y-81.192
X126.636Y-82.606
X126.636Y-84.02
X126.636Y-85.435
X126.636Y-151.903
X126.636Y-153.317
X126.636Y-154.731
X126.636Y-156.145
X126.672Y-94.505
X126.672Y-142.832
X126.814Y-97.417
X126.814Y-139.92
X126.948Y-93.118
X126.948Y-144.219
X126.989Y-87.202
X126.989Y-88.617
X126.989Y-90.031
X126.989Y-147.306
X126.989Y-148.721
X126.989Y-150.135
X127.295Y-159.155
X127.343Y-78.222
X127.343Y-80.485
X127.343Y-84.728
X127.343Y-86.142
X127.343Y-151.196
X127.343Y-152.61
X127.343Y-155.438
X127.343Y-156.852
X127.504Y-93.95
X127.504Y-143.388
X127.697Y-87.909
X127.697Y-89.324
X127.697Y-148.014
X127.697Y-149.428
X127.697Y-153.67
X127.78Y-92.563
X127.78Y-144.775
X128.05Y-85.435
X128.05Y-86.849
X128.05Y-150.488
X128.05Y-151.903
X128.05Y-156.145
X128.063Y-98.387
X128.063Y-138.951
X128.18Y-102.932
X128.18Y-134.405
X128.2Y-62.5
X128.325Y-47.4
X128.335Y-93.394
X128.335Y-143.943
X128.404Y-88.617
X128.404Y-148.721
X128.611Y-92.007
X128.611Y-145.33
X128.619Y-99.218
X128.619Y-138.119
X128.687Y-81.97
X128.754Y-104.318
X128.754Y-133.019
X128.757Y-86.142
X128.757Y-87.556
X128.757Y-149.781
X128.757Y-151.196
X128.895Y-97.831
X128.895Y-139.506
X129.111Y-85.081
X129.167Y-92.838
X129.167Y-144.499
X129.328Y-105.704
X129.328Y-131.633
X129.443Y-91.451
X129.443Y-145.886
X129.45Y-98.662
X129.45Y-138.675
X129.454Y-100.781
X129.454Y-136.556
X129.464Y-81.192
X129.464Y-86.849
X129.464Y-88.263
X129.464Y-149.074
X129.464Y-150.488
X129.726Y-97.275
X129.726Y-140.062
X129.837Y-101.705
X129.837Y-135.632
X129.853Y-158.231
X129.949Y-103.282
X129.949Y-134.055
X129.998Y-92.283
X129.998Y-145.054
X130.171Y-86.142
X130.171Y-87.556
X130.171Y-149.781
X130.171Y-151.196
X130.274Y-90.896
X130.274Y-146.441
X130.282Y-98.107
X130.282Y-139.23
X130.322Y-156.706
X130.332Y-104.206
X130.332Y-133.131
X130.378Y-100.398
X130.378Y-136.939
X130.554Y-93.114
X130.554Y-144.223
X130.558Y-96.72
X130.558Y-140.617
X130.596Y-109.882
X130.596Y-127.456
X130.761Y-101.322
X130.761Y-136.015
X130.808Y-153.246
X130.828Y-89.924
X130.828Y-147.413
X130.83Y-91.727
X130.83Y-145.61
X130.879Y-85.435
X130.879Y-86.849
X130.879Y-150.488
X130.888Y-111.353
X130.888Y-125.985
X131.109Y-93.946
X131.109Y-143.392
X131.113Y-97.551
X131.113Y-139.786
X131.181Y-112.824
X131.181Y-124.513
X131.302Y-100.016
X131.302Y-137.322
X131.368Y-105.4
X131.368Y-131.937
X131.383Y-90.756
X131.383Y-146.581
X131.385Y-92.559
X131.385Y-144.779
X131.389Y-96.164
X131.389Y-141.173
X131.586Y-84.728
X131.586Y-86.142
X131.586Y-151.196
X131.586Y-154.024
X131.609Y-117.169
X131.609Y-118.669
X131.609Y-120.169
X131.659Y-89.369
X131.659Y-147.968
X131.665Y-94.777
X131.665Y-142.56
X131.685Y-100.94
X131.685Y-136.398
X131.75Y-106.324
X131.75Y-131.013
X131.939Y-91.587
X131.939Y-145.75
X131.941Y-93.39
X131.941Y-143.947
X131.945Y-96.996
X131.945Y-140.342
X132.146Y-82.456
X132.215Y-90.2
X132.215Y-147.137
X132.221Y-95.609
X132.221Y-141.729
X132.226Y-99.633
X132.226Y-137.704
X132.262Y-110.57
X132.262Y-126.768
X132.265Y-108.02
X132.265Y-129.317
X132.291Y-105.018
X132.291Y-132.32
X132.293Y-85.435
X132.293Y-151.903
X132.457Y-111.551
X132.457Y-125.787
X132.46Y-109.001
X132.46Y-128.336
X132.491Y-88.813
X132.491Y-148.524
X132.495Y-92.419
X132.495Y-144.918
X132.496Y-94.222
X132.496Y-143.116
X132.608Y-100.557
X132.608Y-136.78
X132.674Y-105.942
X132.674Y-131.396
X132.77Y-91.032
X132.77Y-146.305
X132.776Y-140.897
X133.046Y-89.645
X133.046Y-147.692
X133.05Y-93.25
X133.05Y-144.087
X133.052Y-95.053
X133.052Y-142.284
X133.109Y-118.169
X133.109Y-119.169
X133.15Y-99.25
X133.15Y-138.087
X133.215Y-104.635
X133.215Y-132.702
X133.24Y-112.924
X133.24Y-124.413
X133.246Y-107.825
X133.246Y-129.512
X133.322Y-88.258
X133.322Y-149.08
X133.326Y-91.863
X133.326Y-145.474
X133.435Y-113.905
X133.435Y-123.432
X133.441Y-108.806
X133.441Y-128.531
X133.532Y-100.174
X133.532Y-137.163
X133.598Y-105.559
X133.598Y-131.778
X133.606Y-94.082
X133.606Y-143.255
X133.608Y-141.453
X133.609Y-115.669
X133.609Y-116.669
X133.609Y-120.669
X133.609Y-121.669
X133.878Y-148.248
X133.88Y-146.445
X133.882Y-92.695
X133.882Y-144.642
X134.074Y-138.47
X134.139Y-104.252
X134.139Y-133.085
X134.154Y-87.702
X134.154Y-149.635
X134.161Y-94.913
X134.161Y-142.424
X134.221Y-112.729
X134.221Y-124.608
X134.226Y-107.63
X134.226Y-129.707
X134.416Y-113.71
X134.416Y-123.627
X134.421Y-108.611
X134.421Y-128.726
X134.437Y-93.526
X134.437Y-143.811
X134.456Y-99.791
X134.456Y-137.546
X134.522Y-105.176
X134.522Y-132.161
X134.555Y-151.903
X134.595Y-85.483
X134.609Y-115.669
X134.609Y-116.669
X134.609Y-120.669
X134.609Y-121.669
X134.709Y-148.804
X134.717Y-141.593
X134.839Y-100.715
X134.839Y-136.622
X134.991Y-92.555
X134.993Y-94.358
X134.993Y-142.98
X134.997Y-138.852
X135.063Y-103.87
X135.063Y-133.468
X135.182Y-89.421
X135.202Y-112.534
X135.202Y-124.803
X135.207Y-107.435
X135.207Y-129.902
X135.222Y-101.639
X135.222Y-135.698
X135.38Y-99.409
X135.38Y-137.928
X135.397Y-113.515
X135.397Y-123.823
X135.402Y-108.416
X135.402Y-128.922
X135.446Y-104.794
X135.446Y-132.544
X135.548Y-95.189
X135.548Y-142.148
X135.604Y-102.563
X135.604Y-134.774
X135.609Y-115.669
X135.609Y-116.669
X135.609Y-120.669
X135.609Y-121.669
X135.73Y-139.697
X135.763Y-100.333
X135.763Y-137.005
X135.824Y-93.802
X135.824Y-143.535
X135.987Y-103.487
X135.987Y-133.85
X136.096Y-88.81
X136.113Y-98.564
X136.113Y-138.773
X136.146Y-101.257
X136.146Y-136.081
X136.183Y-112.339
X136.183Y-124.998
X136.188Y-107.24
X136.188Y-130.097
X136.37Y-104.411
X136.378Y-113.32
X136.378Y-124.018
X136.38Y-94.634
X136.38Y-142.704
X136.383Y-108.221
X136.383Y-129.117
X136.495Y-99.488
X136.495Y-137.849
X136.528Y-102.18
X136.528Y-135.157
X136.609Y-115.669
X136.609Y-116.669
X136.609Y-120.669
X136.609Y-121.669
X136.654Y-97.258
X136.654Y-140.08
X136.656Y-93.247
X136.848Y-145.422
X136.878Y-100.412
X136.878Y-136.925
X136.885Y-150.498
X136.911Y-103.104
X136.911Y-134.233
X137.037Y-98.181
X137.037Y-139.156
X137.047Y-148.91
X137.163Y-112.144
X137.163Y-125.194
X137.169Y-107.045
X137.211Y-94.078
X137.211Y-143.259
X137.261Y-101.336
X137.261Y-136.001
X137.294Y-104.028
X137.358Y-113.125
X137.358Y-124.213
X137.364Y-108.026
X137.364Y-129.312
X137.419Y-99.105
X137.419Y-138.232
X137.487Y-92.691
X137.559Y-109.006
X137.559Y-128.331
X137.578Y-96.875
X137.578Y-140.462
X137.609Y-115.669
X137.609Y-116.669
X137.609Y-120.669
X137.609Y-121.669
X137.643Y-102.26
X137.643Y-135.078
X137.754Y-109.987
X137.754Y-127.35
X137.763Y-146.033
X137.802Y-100.029
X137.802Y-137.308
X137.949Y-110.968
X137.949Y-126.369
X137.96Y-97.799
X137.96Y-139.538
X138.026Y-103.184
X138.026Y-134.154
X138.043Y-93.522
X138.043Y-143.815
X138.144Y-111.949
X138.144Y-125.389
X138.149Y-106.85
X138.185Y-100.953
X138.185Y-136.384
X138.339Y-112.929
X138.339Y-124.408
X138.345Y-107.83
X138.345Y-129.507
X138.409Y-104.107
X138.48Y-90.572
X138.502Y-96.492
X138.502Y-140.845
X138.534Y-138.153
X138.54Y-108.811
X138.54Y-128.526
X138.567Y-101.877
X138.567Y-135.46
X138.609Y-115.669
X138.609Y-116.669
X138.609Y-117.669
X138.609Y-118.669
X138.609Y-119.669
X138.609Y-120.669
X138.609Y-121.669
X138.735Y-109.792
X138.735Y-127.545
X138.884Y-139.921
X138.93Y-110.773
X138.93Y-126.564
X138.95Y-102.801
X138.95Y-134.536
X139.033Y-106.164
X139.125Y-111.754
X139.125Y-125.584
X139.228Y-107.145
X139.228Y-130.192
X139.3Y-101.032
X139.32Y-112.734
X139.32Y-124.603
X139.333Y-103.725
X139.333Y-133.613
X139.423Y-108.126
X139.423Y-129.212
X139.426Y-96.11
X139.426Y-141.228
X139.609Y-115.669
X139.609Y-116.669
X139.609Y-117.669
X139.609Y-118.669
X139.609Y-119.669
X139.609Y-120.669
X139.609Y-121.669
X139.618Y-109.107
X139.618Y-128.231
X139.808Y-140.304
X139.813Y-110.087
X139.813Y-127.25
X139.874Y-102.418
X139.874Y-134.919
X140.008Y-111.068
X140.008Y-126.269
X140.013Y-105.969
X140.013Y-131.368
X140.098Y-97.996
X140.203Y-112.049
X140.203Y-125.288
X140.209Y-106.95
X140.209Y-130.387
X140.257Y-103.342
X140.257Y-133.995
X140.262Y-143.373
X140.291Y-94.019
X140.398Y-113.03
X140.398Y-124.308
X140.404Y-107.931
X140.404Y-129.407
X140.599Y-108.911
X140.599Y-128.426
X140.609Y-115.169
X140.609Y-116.169
X140.609Y-117.169
X140.609Y-118.169
X140.609Y-119.169
X140.609Y-120.169
X140.609Y-121.169
X140.609Y-122.169
X140.794Y-109.892
X140.794Y-127.445
X140.798Y-102.036
X140.798Y-135.302
X140.989Y-110.873
X140.989Y-126.464
X140.994Y-105.774
X140.994Y-131.563
X141.115Y-97.575
X141.18Y-102.959
X141.18Y-134.378
X141.184Y-111.854
X141.184Y-125.483
X141.189Y-106.755
X141.189Y-130.582
X141.247Y-136.57
X141.379Y-112.835
X141.379Y-124.503
X141.482Y-129.111
X141.609Y-115.169
X141.609Y-116.169
X141.609Y-117.169
X141.609Y-118.169
X141.609Y-119.169
X141.609Y-120.169
X141.609Y-121.169
X141.609Y-122.169
X141.722Y-101.653
X141.872Y-110.188
X141.975Y-105.579
X141.975Y-131.758
X142.104Y-102.577
X142.104Y-134.761
X142.122Y-139.953
X142.165Y-111.659
X142.165Y-125.679
X142.17Y-130.778
X142.263Y-136.991
X142.272Y-141.541
X142.36Y-112.64
X142.36Y-124.698
X142.609Y-115.169
X142.609Y-116.169
X142.609Y-119.669
X142.609Y-121.169
X142.609Y-122.169
X142.956Y-105.384
X142.956Y-131.953
X143.109Y-99.769
X143.146Y-111.464
X143.151Y-130.973
X143.248Y-107.365
X143.341Y-112.444
X143.341Y-124.893
X143.609Y-115.169
X143.609Y-121.169
X143.609Y-122.169
X143.833Y-127.03
X144.126Y-111.269
X144.195Y-133.895
X144.213Y-103.502
X144.321Y-112.249
X144.321Y-125.088
X144.327Y-107.15
X144.509Y-117.169
X144.609Y-115.169
X144.609Y-121.169
X144.609Y-122.169
X144.912Y-127.245
X145.351Y-130.177
X145.609Y-117.169
X145.855Y-109.691
X145.96Y-131.59
X146.203Y-123.831
X146.209Y-113.569
X146.612Y-119.959
T5
X121.98Y-49.32
X121.98Y-60.56
T6
X125.98Y-49.32
X125.98Y-60.56
T7
X71.963Y-46.65
X75.925Y-46.65
T8
X62.645Y-33.574
X63.109Y-66.124
X125.108Y-66.12
T4
G00X68.1Y-36.475
M15
G01X68.1Y-38.675
M16
G05
G00X74.0Y-34.775
M15
G01X71.8Y-34.775
M16
G05
G00X74.0Y-40.575
M15
G01X71.8Y-40.575
M16
G05
M30
