M48
; DRILL file KiCad 10.0.3 date 2026-06-11T00:12:20
; FORMAT={-:-/ absolute / inch / decimal}
; #@! TF.CreationDate,2026-06-11T00:12:20-04:00
; #@! TF.GenerationSoftware,Kicad,Pcbnew,10.0.3
; #@! TF.FileFunction,Plated,1,4,PTH
FMAT,2
INCH
; #@! TA.AperFunction,Plated,PTH,ViaDrill
T1C0.0079
; #@! TA.AperFunction,Plated,PTH,ComponentDrill
T2C0.0079
; #@! TA.AperFunction,Plated,PTH,ViaDrill
T3C0.0118
; #@! TA.AperFunction,Plated,PTH,ComponentDrill
T4C0.0315
; #@! TA.AperFunction,Plated,PTH,ComponentDrill
T5C0.0492
; #@! TA.AperFunction,Plated,PTH,ComponentDrill
T6C0.0638
; #@! TA.AperFunction,Plated,PTH,ComponentDrill
T7C0.0700
; #@! TA.AperFunction,Plated,PTH,ComponentDrill
T8C0.0866
%
G90
G05
T1
X2.3547Y-2.2783
X2.3677Y-2.3386
X2.3713Y-2.589
X2.372Y-2.8181
X2.387Y-2.7154
X2.3921Y-2.2783
X2.3957Y-2.4657
X2.413Y-2.3969
X2.4339Y-2.2787
X2.4346Y-2.3303
X2.4496Y-2.7724
X2.4713Y-2.4791
X2.4752Y-2.4173
X2.4823Y-2.2791
X2.4961Y-2.3504
X2.5362Y-2.7201
X2.5433Y-2.4016
X2.5488Y-2.476
X2.6102Y-2.4331
X2.6138Y-2.6
X2.6236Y-2.6709
X2.6427Y-2.1043
X2.6437Y-2.5449
X2.6472Y-2.2213
X2.6781Y-2.0679
X2.6854Y-2.1843
X2.6854Y-2.2677
X2.6937Y-2.6315
X2.7156Y-2.3248
X2.7156Y-2.4606
X2.7175Y-2.1033
X2.7272Y-2.5283
X2.7549Y-2.0679
X2.7943Y-2.4606
X2.7953Y-2.3248
X2.7961Y-2.5803
X2.8228Y-2.1102
X2.9094Y-2.1093
X2.9331Y-2.1693
X2.9764Y-2.1693
X2.997Y-2.1093
X3.0236Y-2.1693
X3.0669Y-1.9811
X3.0669Y-2.0386
X3.0689Y-1.9291
X3.1063Y-1.9291
X3.1063Y-1.9811
X3.1063Y-2.0386
X3.1476Y-2.122
X3.1524Y-1.9795
X3.1555Y-2.2303
X3.1555Y-2.2795
X3.1555Y-2.3366
X3.1555Y-2.3917
X3.1555Y-2.4547
X3.1909Y-2.2496
X3.211Y-1.9843
X3.2185Y-2.2496
X3.2303Y-2.0551
X3.2303Y-2.0807
X3.2303Y-2.1063
X3.2303Y-2.1319
X3.2461Y-2.2496
X3.2677Y-1.974
X3.2736Y-2.2496
X3.3327Y-1.8839
X3.3894Y-2.228
X3.4094Y-1.8327
X3.4114Y-2.4472
X3.4118Y-1.9346
X3.4134Y-1.8563
X3.4331Y-1.813
X3.437Y-1.9252
X3.439Y-2.4638
X3.4626Y-1.7618
X3.4665Y-2.4803
X3.4689Y-1.9291
X3.4823Y-1.9724
X3.4862Y-1.4992
X3.4941Y-2.4972
X3.5Y-1.9303
X3.5217Y-2.2492
X3.5217Y-2.5146
X3.5217Y-2.5953
X3.535Y-1.4992
X3.5354Y-1.81
X3.5413Y-2.0551
X3.5413Y-2.0807
X3.5413Y-2.1063
X3.5413Y-2.1319
X3.5461Y-2.0039
X3.5492Y-2.2492
X3.5492Y-2.5319
X3.5512Y-1.5335
X3.5748Y-1.8524
X3.5768Y-1.8051
X3.5768Y-2.2492
X3.5768Y-2.55
X3.5839Y-1.4992
X3.5886Y-1.6742
X3.5955Y-1.5768
X3.6043Y-2.2492
X3.6043Y-2.5673
X3.6112Y-1.5965
X3.6201Y-2.0295
X3.6327Y-1.4992
X3.6425Y-1.974
X3.6535Y-2.2496
X3.6535Y-2.5673
X3.6551Y-2.2047
X3.6614Y-1.8071
X3.6736Y-1.7524
X3.6811Y-2.2496
X3.6811Y-2.5461
X3.6815Y-1.4992
X3.6821Y-1.5413
X3.6929Y-2.0157
X3.6929Y-2.0551
X3.6929Y-2.0807
X3.6929Y-2.1063
X3.6929Y-2.1319
X3.7087Y-2.2496
X3.7087Y-2.5264
X3.7299Y-1.9728
X3.7303Y-1.4992
X3.7307Y-2.5953
X3.7362Y-2.2496
X3.7362Y-2.5071
X3.7441Y-1.6528
X3.748Y-1.6811
X3.7571Y-1.5555
X3.7638Y-2.4878
X3.7791Y-1.4992
X3.789Y-1.8949
X3.7913Y-2.4689
X3.8016Y-1.7821
X3.8189Y-2.4504
X3.8303Y-1.828
X3.8465Y-2.4327
X3.848Y-1.8441
X3.8504Y-2.2283
X3.874Y-1.9291
X3.8756Y-1.8709
X3.876Y-1.8976
X3.8835Y-1.487
X3.8906Y-1.6354
X3.8906Y-1.685
X3.8906Y-1.7346
X3.8996Y-1.874
X3.9232Y-1.8756
X3.9327Y-1.5929
X3.9327Y-1.6354
X3.9327Y-1.685
X3.9327Y-1.7346
X3.9327Y-1.7768
X3.9421Y-1.8941
X3.9567Y-1.9764
X3.9618Y-1.8768
X3.9799Y-1.8602
X3.9823Y-1.5929
X3.9823Y-1.6354
X3.9823Y-1.685
X3.9823Y-1.7346
X3.9823Y-1.7768
X3.9843Y-2.2492
X4.002Y-1.9764
X4.0039Y-2.0551
X4.0039Y-2.0807
X4.0039Y-2.1063
X4.0039Y-2.1319
X4.0118Y-2.2492
X4.0319Y-1.5929
X4.0319Y-1.6354
X4.0319Y-1.685
X4.0319Y-1.7346
X4.0319Y-1.7768
X4.0354Y-1.9094
X4.0394Y-2.2492
X4.0669Y-2.2492
X4.074Y-1.6354
X4.074Y-1.685
X4.074Y-1.7346
X4.098Y-1.4996
X4.1043Y-2.002
X4.1476Y-2.1398
X4.1535Y-1.9921
X4.1585Y-2.2717
X4.1585Y-2.3268
X4.166Y-2.3763
X4.1752Y-1.8976
X4.1913Y-2.4114
X4.1969Y-1.498
X4.2028Y-1.7382
X4.2126Y-1.9075
X4.2244Y-2.4104
X4.2313Y-2.1663
X4.2362Y-2.0118
X4.2441Y-1.7382
X4.2441Y-2.2313
X4.2503Y-1.498
X4.2657Y-1.6319
X4.2815Y-1.7146
X4.2854Y-2.1831
X4.3035Y-2.4823
X4.3038Y-1.498
X4.3161Y-1.8311
X4.3224Y-2.176
X4.3248Y-2.0354
X4.3268Y-1.7126
X4.3396Y-2.3081
X4.3396Y-2.3396
X4.3573Y-1.498
X4.3642Y-1.7146
X4.3654Y-1.8311
X4.3654Y-2.174
X4.376Y-2.3159
X4.3858Y-2.5047
X4.3898Y-2.1299
X4.3902Y-1.8717
X4.3976Y-1.7283
X4.4094Y-2.2402
X4.4108Y-1.498
X4.4146Y-1.8311
X4.4185Y-1.6402
X4.435Y-1.7579
X4.4429Y-2.4323
X4.4498Y-2.0118
X4.4498Y-2.0541
X4.4638Y-1.8311
X4.4642Y-1.498
X4.4657Y-1.5854
X4.4669Y-1.898
X4.4718Y-1.7579
X4.4937Y-1.6996
X4.5085Y-1.7579
X4.5098Y-2.5457
X4.513Y-1.8311
X4.5177Y-1.498
X4.5453Y-2.0541
X4.5492Y-1.5343
X4.5492Y-1.579
X4.5492Y-1.6237
X4.5492Y-1.6684
X4.5492Y-1.7131
X4.5492Y-1.7579
X4.5492Y-1.8744
X4.5492Y-1.9705
X4.5618Y-2.2594
X4.562Y-2.1132
X4.5622Y-1.8311
X4.5807Y-1.9872
X4.5866Y-2.3159
X4.5925Y-1.9232
X4.6016Y-2.5209
X4.6047Y-2.4508
X4.6112Y-2.1919
X4.6114Y-1.8311
X4.622Y-2.5909
X4.623Y-2.3799
X4.6244Y-2.2461
X4.626Y-1.5551
X4.626Y-1.6059
X4.626Y-1.6567
X4.626Y-1.7075
X4.626Y-1.7583
X4.6289Y-2.0276
X4.6348Y-2.0959
X4.6606Y-1.8311
X4.6654Y-1.5551
X4.6654Y-1.7579
X4.6683Y-2.3799
X4.6772Y-1.5102
X4.689Y-1.6744
X4.7047Y-1.5551
X4.7047Y-1.7579
X4.7067Y-2.0679
X4.7098Y-1.8311
X4.7169Y-2.2575
X4.728Y-1.6169
X4.737Y-2.6457
X4.748Y-1.5551
X4.748Y-1.7579
X4.7591Y-1.8311
X4.7618Y-1.498
X4.7709Y-2.5531
X4.785Y-1.6122
X4.785Y-1.6659
X4.785Y-1.7185
X4.7894Y-1.7579
X4.7949Y-2.1531
X4.8083Y-1.8311
X4.8205Y-1.498
X4.8307Y-1.7579
X4.8363Y-1.6122
X4.8406Y-2.1531
X4.8575Y-1.8311
X4.8622Y-2.7106
X4.876Y-1.5555
X4.8791Y-1.498
X4.8876Y-1.6122
X4.8876Y-1.6535
X4.8876Y-1.6949
X4.8906Y-1.8071
X4.9213Y-1.787
X4.9327Y-1.7547
X4.9378Y-1.498
X4.9389Y-1.6122
X4.972Y-2.7752
X4.9902Y-1.6122
X4.9902Y-1.6654
X4.9902Y-1.7185
X4.9953Y-1.5547
X4.9953Y-1.8087
X4.9965Y-1.498
X5.0122Y-2.7217
X5.0315Y-2.5098
X5.0488Y-2.8268
X5.0551Y-1.498
X5.0551Y-1.5614
X5.0551Y-1.6248
X5.0551Y-1.6882
X5.0551Y-1.7516
X5.0551Y-1.815
T2
X2.7549Y-2.3573
X2.7549Y-2.3947
X2.7549Y-2.4321
T3
X1.6067Y-4.5657
X1.6282Y-4.9767
X1.638Y-4.6212
X1.6539Y-4.8728
X1.6541Y-4.4688
X1.6678Y-5.0254
X1.6775Y-4.731
X1.6877Y-4.2189
X1.705Y-4.3344
X1.7169Y-4.5342
X1.7169Y-4.5736
X1.7169Y-4.8098
X1.7208Y-4.731
X1.7275Y-5.3761
X1.728Y-5.1255
X1.7282Y-4.4193
X1.7282Y-4.9247
X1.7325Y-5.2691
X1.7332Y-4.0725
X1.7359Y-4.9633
X1.7474Y-4.3428
X1.7563Y-4.5342
X1.7563Y-4.5736
X1.7563Y-4.8098
X1.7668Y-4.4269
X1.7668Y-4.917
X1.7705Y-5.117
X1.7743Y-4.1876
X1.7745Y-4.9557
X1.7759Y-5.4161
X1.782Y-4.149
X1.782Y-5.195
X1.7956Y-4.5342
X1.7956Y-4.5736
X1.7956Y-4.6326
X1.7956Y-4.7704
X1.7956Y-4.8098
X1.8054Y-4.4346
X1.8054Y-4.9094
X1.8093Y-3.9506
X1.8129Y-4.1953
X1.8131Y-4.396
X1.8131Y-4.948
X1.8148Y-3.834
X1.8155Y-4.0385
X1.8155Y-5.3055
X1.8206Y-4.1567
X1.8206Y-5.1873
X1.8246Y-5.0059
X1.8306Y-5.3419
X1.835Y-4.5342
X1.835Y-4.5736
X1.835Y-4.6129
X1.835Y-4.6523
X1.835Y-4.6917
X1.835Y-4.731
X1.835Y-4.7704
X1.835Y-4.8098
X1.84Y-4.2609
X1.844Y-4.4423
X1.844Y-4.9017
X1.8493Y-3.9672
X1.8515Y-4.2029
X1.8515Y-5.141
X1.8517Y-4.4037
X1.8517Y-4.9403
X1.8519Y-4.0535
X1.8519Y-5.2905
X1.8545Y-5.5025
X1.8592Y-4.1643
X1.8592Y-5.1797
X1.8594Y-4.3651
X1.8594Y-4.9789
X1.8669Y-5.3268
X1.8671Y-4.3265
X1.8671Y-5.0175
X1.8744Y-4.5342
X1.8744Y-4.5736
X1.8744Y-4.6129
X1.8744Y-4.6523
X1.8744Y-4.6917
X1.8744Y-4.731
X1.8744Y-4.7704
X1.8744Y-4.8098
X1.8748Y-4.2879
X1.8748Y-5.0561
X1.8825Y-4.2492
X1.8825Y-5.0947
X1.8827Y-4.45
X1.8827Y-4.894
X1.8869Y-5.6425
X1.888Y-3.6994
X1.8882Y-4.0686
X1.8882Y-5.2754
X1.8901Y-4.2106
X1.8901Y-5.1334
X1.8903Y-4.4114
X1.8903Y-4.9326
X1.8945Y-5.4859
X1.8978Y-4.172
X1.8978Y-5.172
X1.898Y-4.3728
X1.898Y-4.9712
X1.9029Y-5.7483
X1.9033Y-4.0322
X1.9033Y-5.3118
X1.9057Y-4.3341
X1.9057Y-5.0098
X1.9059Y-3.8202
X1.9134Y-4.2955
X1.9134Y-5.0485
X1.9137Y-4.5539
X1.9137Y-4.5933
X1.9137Y-4.6326
X1.9137Y-4.672
X1.9137Y-4.7114
X1.9137Y-4.7507
X1.9137Y-4.7901
X1.921Y-3.7838
X1.921Y-5.5601
X1.9211Y-4.2569
X1.9211Y-5.0871
X1.9246Y-4.0837
X1.9246Y-5.2603
X1.9251Y-4.4384
X1.9251Y-4.9056
X1.9259Y-5.3663
X1.9287Y-4.2183
X1.9287Y-5.1257
X1.9328Y-4.3997
X1.9328Y-4.9442
X1.9364Y-5.1643
X1.9397Y-4.0473
X1.9397Y-5.2967
X1.9405Y-4.3611
X1.9405Y-4.9829
X1.9423Y-3.8353
X1.9482Y-4.3225
X1.9482Y-5.0215
X1.9531Y-4.5539
X1.9531Y-4.5933
X1.9531Y-4.6326
X1.9531Y-4.672
X1.9531Y-4.7114
X1.9531Y-4.7507
X1.9531Y-4.7901
X1.9548Y-4.0109
X1.9548Y-5.3331
X1.9558Y-4.2839
X1.9558Y-5.0601
X1.956Y-3.9049
X1.9573Y-3.7989
X1.9573Y-5.5451
X1.9582Y-5.7781
X1.961Y-5.2453
X1.9635Y-4.2453
X1.9635Y-5.0987
X1.9637Y-4.446
X1.9637Y-4.8979
X1.9698Y-3.9745
X1.9698Y-5.3695
X1.9712Y-5.1373
X1.9714Y-4.4074
X1.9714Y-4.9366
X1.9754Y-3.682
X1.9754Y-5.662
X1.9761Y-4.0623
X1.9761Y-5.2816
X1.9786Y-3.8503
X1.9786Y-5.4936
X1.9791Y-4.3688
X1.9791Y-4.9752
X1.9849Y-3.9382
X1.9849Y-5.4058
X1.9864Y-3.5946
X1.9868Y-4.3302
X1.9868Y-5.0138
X1.9911Y-4.026
X1.9911Y-5.318
X1.9925Y-4.5539
X1.9925Y-4.5933
X1.9925Y-4.7507
X1.9925Y-4.7901
X1.9937Y-3.814
X1.9937Y-5.53
X1.9945Y-4.2916
X1.9945Y-5.0524
X1.9973Y-5.6947
X1.9999Y-3.9018
X1.9999Y-5.4422
X2.0021Y-4.253
X2.0021Y-5.091
X2.0023Y-4.4537
X2.0023Y-4.8903
X2.0049Y-5.2484
X2.0062Y-3.9896
X2.0062Y-5.3544
X2.0081Y-3.7039
X2.0081Y-5.6401
X2.0098Y-5.1296
X2.01Y-4.4151
X2.01Y-4.9289
X2.0146Y-3.4814
X2.015Y-3.8654
X2.015Y-5.4786
X2.02Y-4.0592
X2.02Y-5.2848
X2.0213Y-3.9532
X2.0213Y-5.3908
X2.0224Y-3.6187
X2.03Y-5.6729
X2.0301Y-3.829
X2.0301Y-5.5149
X2.0318Y-4.5539
X2.0318Y-4.5933
X2.0318Y-4.7507
X2.0318Y-4.7901
X2.035Y-4.0229
X2.035Y-5.3211
X2.0363Y-3.9169
X2.0363Y-5.4271
X2.0407Y-4.2607
X2.0407Y-5.0833
X2.0409Y-3.7257
X2.0409Y-5.6183
X2.041Y-4.4614
X2.041Y-4.8826
X2.0413Y-5.2333
X2.0484Y-4.222
X2.0484Y-5.1219
X2.0486Y-4.4228
X2.0486Y-4.9212
X2.0501Y-3.9865
X2.0501Y-5.3575
X2.0514Y-3.8805
X2.0514Y-5.4635
X2.052Y-5.8475
X2.0563Y-4.0743
X2.0563Y-5.2697
X2.0627Y-3.693
X2.0627Y-5.651
X2.0652Y-3.9501
X2.0652Y-5.3939
X2.0665Y-3.8441
X2.0712Y-4.5539
X2.0712Y-4.5933
X2.0712Y-4.7507
X2.0712Y-4.7901
X2.0714Y-4.0379
X2.0714Y-5.3061
X2.0736Y-3.7476
X2.0736Y-5.5964
X2.0776Y-4.1257
X2.0776Y-5.2183
X2.0794Y-4.2683
X2.0794Y-5.0757
X2.0796Y-4.4691
X2.0796Y-4.8749
X2.0802Y-3.9137
X2.0802Y-5.4303
X2.0865Y-4.0015
X2.0865Y-5.3424
X2.087Y-4.2297
X2.087Y-5.1143
X2.0873Y-4.4305
X2.0873Y-4.9135
X2.088Y-5.8235
X2.0927Y-4.0894
X2.0927Y-5.2546
X2.0953Y-3.8774
X2.0955Y-3.7149
X2.0955Y-5.6291
X2.1015Y-3.9652
X2.1015Y-5.3788
X2.1063Y-3.7695
X2.1066Y-3.4856
X2.1106Y-4.5539
X2.1106Y-4.5933
X2.1106Y-4.7507
X2.1106Y-4.7901
X2.1111Y-5.9785
X2.1127Y-3.3636
X2.114Y-4.1408
X2.114Y-5.2032
X2.1166Y-3.9288
X2.1166Y-5.4152
X2.1174Y-3.6821
X2.1174Y-5.6619
X2.118Y-4.276
X2.118Y-5.068
X2.1182Y-4.4768
X2.1182Y-4.8672
X2.1257Y-4.2374
X2.1257Y-5.1066
X2.1259Y-4.4382
X2.1259Y-4.9058
X2.1282Y-3.7367
X2.1282Y-5.6072
X2.1285Y-3.4528
X2.1285Y-5.8911
X2.1291Y-4.1044
X2.1291Y-5.2396
X2.1317Y-3.8924
X2.1392Y-3.6494
X2.1392Y-5.6946
X2.1393Y-3.5784
X2.1393Y-5.7656
X2.1394Y-3.5075
X2.1475Y-6.0792
X2.15Y-4.5539
X2.15Y-4.5933
X2.15Y-4.7507
X2.15Y-4.7901
X2.15Y-3.775
X2.1501Y-3.704
X2.1501Y-5.64
X2.1504Y-4.1559
X2.1504Y-5.1881
X2.153Y-3.9439
X2.153Y-5.4001
X2.1566Y-4.2837
X2.1566Y-5.0603
X2.1568Y-4.4844
X2.1568Y-4.8595
X2.1611Y-3.6167
X2.1611Y-5.7273
X2.1612Y-3.4747
X2.1612Y-5.8693
X2.1643Y-4.2451
X2.1643Y-5.0989
X2.1645Y-4.4458
X2.1645Y-4.8982
X2.1655Y-4.1195
X2.1655Y-5.2245
X2.168Y-3.9075
X2.168Y-5.4365
X2.1696Y-4.6523
X2.1696Y-4.6917
X2.1719Y-3.7422
X2.1719Y-5.6017
X2.172Y-3.6713
X2.172Y-5.6727
X2.1721Y-3.5293
X2.1721Y-5.8147
X2.1828Y-3.7969
X2.183Y-3.5839
X2.183Y-5.7601
X2.1868Y-4.1709
X2.1868Y-5.1731
X2.1893Y-3.9589
X2.1893Y-5.3851
X2.1938Y-3.7095
X2.1938Y-5.6345
X2.1938Y-3.6385
X2.1938Y-5.7054
X2.194Y-3.4966
X2.194Y-5.8474
X2.1952Y-4.2914
X2.1952Y-5.0526
X2.1953Y-4.3918
X2.1953Y-4.9522
X2.2018Y-3.3636
X2.2018Y-5.9804
X2.2018Y-4.1346
X2.2018Y-5.2094
X2.2029Y-4.2528
X2.2029Y-5.0912
X2.203Y-4.3531
X2.203Y-4.9908
X2.2044Y-3.9226
X2.2044Y-5.4214
X2.2046Y-3.7641
X2.2046Y-5.5799
X2.2048Y-3.5512
X2.2048Y-5.7928
X2.2075Y-6.0977
X2.2155Y-3.8187
X2.2155Y-5.5253
X2.2156Y-3.6768
X2.2156Y-5.6672
X2.2157Y-3.6058
X2.2157Y-5.7382
X2.2231Y-4.186
X2.2231Y-5.158
X2.2257Y-3.974
X2.2257Y-5.37
X2.2265Y-3.7314
X2.2265Y-5.6126
X2.2267Y-3.5185
X2.2267Y-5.8255
X2.2287Y-4.6129
X2.2287Y-4.672
X2.2287Y-4.731
X2.2296Y-3.2801
X2.2296Y-3.3914
X2.2296Y-5.9526
X2.2296Y-6.0083
X2.2374Y-3.786
X2.2374Y-5.558
X2.2375Y-3.644
X2.2375Y-5.6999
X2.2376Y-3.5731
X2.2376Y-5.7709
X2.2382Y-4.1496
X2.2382Y-5.1944
X2.2408Y-3.9376
X2.2408Y-5.4064
X2.2455Y-4.4419
X2.2455Y-4.9021
X2.2482Y-3.8406
X2.2482Y-5.5034
X2.2484Y-3.6987
X2.2484Y-5.6453
X2.2571Y-4.384
X2.2571Y-4.96
X2.2575Y-3.4192
X2.2575Y-5.9247
X2.2575Y-5.9804
X2.2594Y-3.6113
X2.2594Y-5.7327
X2.2595Y-3.5403
X2.2595Y-5.8037
X2.2602Y-3.3107
X2.2621Y-3.9891
X2.2621Y-5.3549
X2.2686Y-4.326
X2.2686Y-5.0179
X2.2701Y-3.8079
X2.2701Y-5.5361
X2.2702Y-3.6659
X2.2702Y-5.6781
X2.2772Y-3.9527
X2.2772Y-5.3913
X2.279Y-4.1026
X2.279Y-5.2414
X2.2794Y-3.1745
X2.281Y-3.8625
X2.281Y-5.4815
X2.2813Y-3.5786
X2.2813Y-5.7654
X2.2853Y-3.3914
X2.2853Y-3.4471
X2.2853Y-5.8969
X2.2853Y-5.9526
X2.2921Y-3.6332
X2.2921Y-5.7108
X2.2941Y-4.0662
X2.2941Y-5.2778
X2.2985Y-4.0041
X2.2985Y-5.3399
X2.3028Y-3.8297
X2.3028Y-5.5142
X2.3131Y-3.4192
X2.3131Y-3.4749
X2.3131Y-5.8691
X2.3131Y-5.9247
X2.3131Y-6.1475
X2.3135Y-3.9678
X2.3135Y-5.3762
X2.3137Y-3.8843
X2.3137Y-5.4596
X2.314Y-3.6004
X2.314Y-5.7435
X2.3185Y-4.1616
X2.3185Y-5.1824
X2.3249Y-3.6551
X2.3249Y-5.6889
X2.3271Y-5.9943
X2.3356Y-3.8516
X2.3356Y-5.4924
X2.341Y-3.3914
X2.341Y-3.4471
X2.341Y-5.8969
X2.341Y-5.9526
X2.3411Y-4.107
X2.3411Y-5.237
X2.3438Y-6.1168
X2.3464Y-3.9062
X2.3464Y-5.4378
X2.3467Y-3.6223
X2.3467Y-5.7217
X2.3549Y-3.4888
X2.3549Y-5.8551
X2.3576Y-3.6769
X2.3576Y-5.6671
X2.3637Y-4.0524
X2.3637Y-5.2915
X2.3661Y-1.6929
X2.3661Y-1.752
X2.3683Y-3.8735
X2.3683Y-5.4705
X2.3688Y-3.1965
X2.3688Y-3.3636
X2.3688Y-3.4192
X2.3688Y-5.9247
X2.3688Y-5.9804
X2.3795Y-3.6442
X2.3795Y-5.6998
X2.3827Y-3.294
X2.3827Y-3.461
X2.3827Y-3.5167
X2.3827Y-5.8273
X2.3827Y-5.883
X2.3858Y-1.9803
X2.3858Y-2.0276
X2.3903Y-3.6988
X2.3903Y-5.6452
X2.3967Y-3.1687
X2.3967Y-3.2244
X2.3967Y-3.3357
X2.3967Y-3.3914
X2.3967Y-5.9526
X2.3967Y-6.0083
X2.3967Y-6.1753
X2.3967Y-6.2644
X2.3986Y-3.0781
X2.4106Y-3.4332
X2.4106Y-3.4888
X2.4106Y-3.5445
X2.4106Y-5.7995
X2.4106Y-5.8551
X2.4106Y-5.9108
X2.4122Y-3.6661
X2.4122Y-5.6779
X2.4175Y-3.8353
X2.4175Y-5.5087
X2.4231Y-3.7207
X2.4231Y-5.6233
X2.4245Y-3.1965
X2.4245Y-3.2522
X2.4245Y-3.3079
X2.4245Y-3.3636
X2.4245Y-5.9804
X2.4245Y-6.0361
X2.4245Y-6.0918
X2.4245Y-6.1475
X2.4331Y-1.6929
X2.4331Y-1.752
X2.4384Y-3.4053
X2.4384Y-3.461
X2.4384Y-3.5167
X2.4384Y-3.5724
X2.4384Y-5.7716
X2.4384Y-5.8273
X2.4384Y-5.883
X2.4384Y-5.9387
X2.4393Y-3.8026
X2.4393Y-5.5414
X2.4409Y-1.9803
X2.4409Y-2.0276
X2.4447Y-3.9009
X2.4447Y-5.4431
X2.4449Y-3.6879
X2.4449Y-5.656
X2.452Y-6.3561
X2.4523Y-3.2244
X2.4523Y-3.2801
X2.4523Y-3.3357
X2.4523Y-6.0083
X2.4523Y-6.0639
X2.4523Y-6.1196
X2.4558Y-3.7425
X2.4558Y-5.6014
X2.4662Y-3.3775
X2.4662Y-3.4332
X2.4662Y-3.5445
X2.4662Y-3.6002
X2.4662Y-5.7438
X2.4662Y-5.7995
X2.4662Y-5.9108
X2.4662Y-5.9665
X2.4775Y-3.8518
X2.4775Y-5.4922
X2.4777Y-3.7098
X2.4777Y-5.6342
X2.4802Y-3.2522
X2.4802Y-3.3079
X2.4802Y-6.0361
X2.4802Y-6.0918
X2.4859Y-3.0954
X2.4859Y-6.2486
X2.4941Y-3.3496
X2.4941Y-3.4053
X2.4941Y-3.5724
X2.4941Y-3.628
X2.4941Y-5.716
X2.4941Y-5.7716
X2.4941Y-5.9387
X2.4941Y-5.9943
X2.4961Y-1.9803
X2.4961Y-2.0276
X2.5Y-1.6929
X2.5Y-1.752
X2.5078Y-3.1282
X2.5078Y-6.2158
X2.508Y-3.2801
X2.508Y-6.0639
X2.5103Y-3.8027
X2.5103Y-5.5413
X2.5145Y-6.3625
X2.5187Y-6.2704
X2.5219Y-3.3218
X2.5219Y-3.3775
X2.5219Y-3.6002
X2.5219Y-3.6559
X2.5219Y-5.6881
X2.5219Y-5.7438
X2.5219Y-5.9665
X2.5219Y-6.0222
X2.5295Y-3.0189
X2.5297Y-3.1609
X2.5297Y-6.1831
X2.5405Y-6.2377
X2.5498Y-3.3496
X2.5498Y-3.4053
X2.5498Y-3.628
X2.5498Y-5.716
X2.5498Y-5.9387
X2.5498Y-5.9943
X2.5515Y-3.1936
X2.5515Y-6.1504
X2.5536Y-3.055
X2.5624Y-3.139
X2.5624Y-6.205
X2.5734Y-3.2264
X2.5734Y-6.1176
X2.5776Y-3.3775
X2.5776Y-3.4332
X2.5776Y-5.9108
X2.5776Y-5.9665
X2.5843Y-3.1718
X2.5843Y-6.1722
X2.5984Y-1.7008
X2.5984Y-1.748
X2.5984Y-1.9213
X2.5984Y-1.9685
X2.5989Y-2.9251
X2.6054Y-3.4053
X2.6054Y-3.461
X2.6054Y-3.6002
X2.6054Y-5.7438
X2.6054Y-5.883
X2.6054Y-5.9387
X2.6062Y-3.2045
X2.6062Y-6.1395
X2.6115Y-6.2378
X2.6117Y-3.2482
X2.6117Y-6.0958
X2.617Y-3.1499
X2.617Y-6.1941
X2.6194Y-3.6698
X2.6194Y-5.6742
X2.6277Y-6.3907
X2.6333Y-3.4332
X2.6333Y-3.4888
X2.6333Y-3.5724
X2.6333Y-5.7716
X2.6333Y-5.8551
X2.6333Y-5.9108
X2.6335Y-3.2809
X2.6335Y-6.0631
X2.6389Y-3.1826
X2.6389Y-6.1614
X2.6444Y-3.2263
X2.6444Y-6.1177
X2.6498Y-3.128
X2.6498Y-6.216
X2.6518Y-6.3546
X2.6535Y-1.7008
X2.6535Y-1.748
X2.6535Y-1.9213
X2.6535Y-1.9685
X2.6554Y-3.3136
X2.6554Y-6.0303
X2.6611Y-3.461
X2.6611Y-3.5167
X2.6611Y-3.628
X2.6611Y-5.716
X2.6611Y-5.8273
X2.6611Y-5.883
X2.6663Y-3.259
X2.6663Y-6.085
X2.6716Y-3.1608
X2.6716Y-6.1832
X2.677Y-3.0625
X2.6771Y-3.2044
X2.6771Y-6.1396
X2.6773Y-3.3464
X2.6773Y-5.9976
X2.6823Y-2.9642
X2.6825Y-3.1061
X2.6825Y-6.2378
X2.6881Y-3.2918
X2.6881Y-6.0522
X2.689Y-3.4888
X2.689Y-5.8551
X2.699Y-3.2372
X2.699Y-6.1068
X2.6991Y-3.3791
X2.6991Y-5.9649
X2.7029Y-3.5863
X2.7029Y-5.7577
X2.7042Y-2.9969
X2.7044Y-3.1389
X2.7044Y-6.2051
X2.7087Y-1.7008
X2.7087Y-1.748
X2.7087Y-1.9213
X2.7087Y-1.9685
X2.7099Y-3.1826
X2.7099Y-6.1614
X2.71Y-3.3245
X2.71Y-6.0195
X2.7151Y-2.9423
X2.7151Y-6.4017
X2.7152Y-3.0843
X2.7152Y-6.2597
X2.721Y-3.4118
X2.721Y-5.9321
X2.7261Y-3.0297
X2.7261Y-6.3143
X2.7317Y-3.2153
X2.7317Y-6.1287
X2.7319Y-3.3572
X2.7319Y-5.9868
X2.7325Y-6.489
X2.7346Y-2.8538
X2.7369Y-2.9751
X2.7369Y-6.3689
X2.7371Y-3.117
X2.7371Y-6.227
X2.7426Y-3.1607
X2.7426Y-6.1833
X2.7429Y-3.4446
X2.7429Y-5.8994
X2.748Y-3.0624
X2.748Y-6.2816
X2.7538Y-3.39
X2.7538Y-5.954
X2.7588Y-3.0078
X2.7588Y-6.3362
X2.7645Y-3.1934
X2.7645Y-6.1506
X2.7698Y-3.0951
X2.7698Y-6.2489
X2.7753Y-3.1388
X2.7753Y-6.2052
X2.7756Y-3.4227
X2.7756Y-5.9213
X2.7807Y-3.0405
X2.7807Y-6.3035
X2.7949Y-2.224
X2.7972Y-3.1715
X2.7972Y-6.1724
X2.8026Y-6.2707
X2.8046Y-6.5682
X2.8081Y-6.2271
X2.8169Y-2.8879
X2.8169Y-6.4561
X2.8191Y-3.2043
X2.8191Y-6.1397
X2.8299Y-6.1943
X2.832Y-2.9243
X2.832Y-6.4197
X2.8357Y-3.4063
X2.8357Y-5.9377
X2.8357Y-3.4772
X2.8357Y-5.8667
X2.841Y-3.237
X2.841Y-6.107
X2.8471Y-2.9606
X2.8471Y-6.3834
X2.8518Y-3.1824
X2.8518Y-6.1616
X2.8533Y-6.4712
X2.8621Y-2.997
X2.8621Y-6.347
X2.8628Y-3.2697
X2.8628Y-6.0742
X2.8671Y-6.5623
X2.8684Y-6.4348
X2.8684Y-3.3844
X2.8684Y-5.9596
X2.8737Y-3.2151
X2.8737Y-6.1289
X2.8746Y-2.8214
X2.8772Y-6.3106
X2.8834Y-2.9456
X2.8834Y-6.3984
X2.8847Y-3.3025
X2.8847Y-6.0415
X2.8848Y-3.4444
X2.8848Y-5.8996
X2.8912Y-2.8614
X2.8956Y-3.2479
X2.8956Y-6.0961
X2.8985Y-2.9819
X2.8985Y-6.3621
X2.9066Y-3.3352
X2.9066Y-6.0088
X2.9104Y-6.2818
X2.9136Y-3.0183
X2.9136Y-6.3257
X2.9174Y-3.2806
X2.9174Y-6.0634
X2.9238Y-2.4661
X2.9255Y-6.2454
X2.9339Y-3.4116
X2.9339Y-5.9324
X2.9349Y-2.9669
X2.9349Y-6.3771
X2.938Y-6.421
X2.9393Y-3.3133
X2.9393Y-6.0306
X2.9406Y-3.135
X2.9406Y-6.209
X2.9468Y-3.0471
X2.9468Y-6.2968
X2.9499Y-3.0032
X2.9499Y-6.3407
X2.9556Y-3.1713
X2.9556Y-6.1727
X2.961Y-2.7429
X2.9619Y-3.0835
X2.9619Y-6.2605
X2.9707Y-3.2077
X2.9707Y-6.1363
X2.9712Y-2.9518
X2.9712Y-6.3922
X2.9769Y-3.1199
X2.9769Y-6.2241
X2.9832Y-3.0321
X2.9832Y-6.3119
X2.9837Y-6.5678
X2.9843Y-1.6929
X2.9843Y-1.7402
X2.9858Y-3.2441
X2.9858Y-6.0999
X2.9863Y-2.9882
X2.9863Y-6.3558
X2.992Y-3.1563
X2.992Y-6.1877
X2.9983Y-3.0685
X2.9983Y-6.2755
X3.0003Y-6.5278
X3.0008Y-3.2805
X3.0008Y-6.0635
X3.0071Y-3.1926
X3.0071Y-6.1513
X3.0076Y-2.9367
X3.0076Y-6.4073
X3.0107Y-2.8928
X3.0118Y-1.5709
X3.0118Y-1.6299
X3.0196Y-3.017
X3.0196Y-6.327
X3.0197Y-1.2362
X3.0197Y-1.2835
X3.0197Y-1.3307
X3.0221Y-3.229
X3.0221Y-6.115
X3.0227Y-2.9731
X3.0227Y-6.3709
X3.0346Y-3.0534
X3.0346Y-6.2906
X3.0352Y-2.7975
X3.0372Y-3.2654
X3.0372Y-6.0786
X3.0394Y-1.6929
X3.0394Y-1.7402
X3.044Y-2.9217
X3.044Y-6.4223
X3.0502Y-2.8339
X3.0559Y-3.0019
X3.0559Y-6.342
X3.0591Y-1.5709
X3.0591Y-1.6299
X3.0591Y-2.958
X3.0591Y-6.3859
X3.065Y-2.2303
X3.0653Y-2.8702
X3.0653Y-6.4738
X3.071Y-3.0383
X3.071Y-6.3057
X3.0715Y-2.7824
X3.0715Y-6.5616
X3.0787Y-1.7874
X3.0787Y-1.8622
X3.0804Y-2.9066
X3.0804Y-6.4374
X3.0827Y-1.2362
X3.0827Y-1.2835
X3.0827Y-1.3307
X3.0855Y-3.3306
X3.0855Y-6.0134
X3.0866Y-2.8188
X3.0866Y-6.5252
X3.0923Y-2.9869
X3.0923Y-6.3571
X3.0945Y-1.6929
X3.0945Y-1.7402
X3.0954Y-2.943
X3.0954Y-6.401
X3.0993Y-3.261
X3.0993Y-6.083
X3.1017Y-2.8552
X3.1017Y-6.4888
X3.1056Y-6.6439
X3.1063Y-1.5709
X3.1063Y-1.6299
X3.1074Y-3.0233
X3.1074Y-6.3207
X3.108Y-2.6994
X3.1083Y-2.2303
X3.1167Y-2.8915
X3.1167Y-6.4525
X3.1224Y-3.0596
X3.1224Y-6.2844
X3.1287Y-2.9718
X3.1318Y-2.9279
X3.1339Y-1.7874
X3.1339Y-1.8622
X3.1357Y-3.2459
X3.1357Y-6.0981
X3.1375Y-3.096
X3.1375Y-6.248
X3.1378Y-1.4205
X3.1378Y-1.4567
X3.1378Y-1.4961
X3.1401Y-3.308
X3.1401Y-6.036
X3.1437Y-3.0082
X3.1526Y-3.1324
X3.1526Y-6.2116
X3.1588Y-3.0446
X3.1588Y-6.2994
X3.1676Y-3.1687
X3.1676Y-6.1752
X3.1739Y-3.0809
X3.1739Y-6.2631
X3.1821Y-2.7489
X3.1821Y-6.5951
X3.1827Y-3.2051
X3.1827Y-6.1389
X3.1889Y-3.1173
X3.1889Y-6.2267
X3.1897Y-2.7875
X3.1897Y-6.5565
X3.1918Y-6.7074
X3.1947Y-3.2854
X3.1947Y-6.0586
X3.1974Y-2.8261
X3.1974Y-6.5179
X3.2008Y-1.9272
X3.204Y-3.1537
X3.204Y-6.1903
X3.2051Y-2.8647
X3.2051Y-6.4793
X3.2128Y-2.9033
X3.2191Y-3.1901
X3.2191Y-6.1539
X3.2207Y-6.6028
X3.2283Y-6.5642
X3.236Y-2.8184
X3.236Y-6.5256
X3.2398Y-2.9381
X3.2437Y-2.8571
X3.2437Y-6.4869
X3.2461Y-1.9272
X3.2474Y-2.9767
X3.2514Y-2.8957
X3.2514Y-6.4483
X3.2516Y-2.6949
X3.252Y-6.6894
X3.2551Y-3.0153
X3.2551Y-6.3286
X3.26Y-2.7374
X3.2628Y-3.054
X3.2628Y-6.29
X3.2705Y-3.0926
X3.2705Y-6.2514
X3.2782Y-3.1312
X3.2782Y-6.2128
X3.2784Y-2.9304
X3.2784Y-6.4136
X3.2823Y-2.8494
X3.2823Y-6.4946
X3.2858Y-3.1698
X3.2858Y-6.1742
X3.2861Y-2.9691
X3.2861Y-6.3749
X3.29Y-2.888
X3.29Y-6.456
X3.2937Y-3.0077
X3.2937Y-6.3363
X3.2939Y-6.5371
X3.3014Y-3.0463
X3.3014Y-6.2977
X3.3091Y-3.0849
X3.3091Y-6.2591
X3.315Y-1.252
X3.315Y-1.2992
X3.3168Y-3.1235
X3.3168Y-6.2205
X3.317Y-2.9228
X3.317Y-6.4212
X3.3209Y-2.8417
X3.3209Y-6.5023
X3.3228Y-1.5236
X3.3245Y-3.1621
X3.3245Y-6.1819
X3.3247Y-2.9614
X3.3247Y-6.3826
X3.3286Y-2.8803
X3.3286Y-6.4637
X3.3516Y-2.6348
X3.3543Y-1.2126
X3.3556Y-2.9151
X3.3556Y-6.4289
X3.3591Y-3.2355
X3.3591Y-6.1085
X3.3596Y-2.834
X3.3596Y-6.51
X3.3633Y-2.9537
X3.3633Y-6.3903
X3.3661Y-1.8854
X3.3672Y-2.8726
X3.3672Y-6.4714
X3.3674Y-6.6721
X3.3701Y-1.3898
X3.3701Y-1.5236
X3.3712Y-2.7916
X3.3759Y-6.6296
X3.3862Y-3.1699
X3.3862Y-6.1741
X3.3942Y-2.9074
X3.3942Y-6.4366
X3.3982Y-2.8263
X3.3982Y-6.5177
X3.4016Y-1.2126
X3.4016Y-1.563
X3.4016Y-1.6102
X3.4016Y-1.6575
X3.4019Y-2.946
X3.4019Y-6.398
X3.4058Y-2.8649
X3.4058Y-6.479
X3.4137Y-2.7028
X3.4171Y-3.224
X3.4171Y-6.12
X3.4173Y-1.3898
X3.4173Y-1.5236
X3.4214Y-2.7414
X3.4248Y-3.1622
X3.4248Y-6.1818
X3.4291Y-2.78
X3.4291Y-6.564
X3.4328Y-2.8997
X3.4328Y-6.4443
X3.4368Y-2.8186
X3.4368Y-6.5253
X3.4405Y-2.9383
X3.4405Y-6.4057
X3.4445Y-2.8573
X3.4445Y-6.4867
X3.4482Y-2.9769
X3.4482Y-6.367
X3.4523Y-2.6951
X3.4523Y-6.6489
X3.4559Y-3.0156
X3.4559Y-6.3284
X3.46Y-2.7337
X3.46Y-6.6102
X3.4636Y-3.0542
X3.4636Y-6.2898
X3.4677Y-2.7724
X3.4677Y-6.5716
X3.4712Y-3.0928
X3.4712Y-6.2512
X3.4714Y-2.892
X3.4714Y-6.452
X3.475Y-3.2125
X3.475Y-6.1315
X3.4754Y-2.811
X3.4754Y-6.533
X3.4789Y-3.1314
X3.4789Y-6.2126
X3.4791Y-2.9306
X3.4791Y-6.4133
X3.4831Y-2.8496
X3.4831Y-6.4944
X3.4868Y-2.9693
X3.4868Y-6.3747
X3.4945Y-3.0079
X3.4945Y-6.3361
X3.5018Y-6.7229
X3.5022Y-3.0465
X3.5022Y-6.2975
X3.5043Y-2.6208
X3.5098Y-3.0851
X3.5098Y-6.2589
X3.5175Y-3.1237
X3.5175Y-6.2203
X3.5673Y-2.6838
X3.5673Y-2.7232
X3.5673Y-2.7625
X3.5673Y-2.8019
X3.5673Y-2.8413
X3.5673Y-6.5027
X3.5673Y-6.5421
X3.5673Y-6.5814
X3.5673Y-6.6208
X3.5673Y-6.6602
X3.587Y-2.8807
X3.587Y-2.92
X3.587Y-2.9594
X3.587Y-2.9988
X3.587Y-3.0381
X3.587Y-3.0775
X3.587Y-3.1169
X3.587Y-6.2271
X3.587Y-6.2665
X3.587Y-6.3059
X3.587Y-6.3452
X3.587Y-6.3846
X3.587Y-6.424
X3.587Y-6.4633
X3.5988Y-6.7685
X3.6067Y-2.7625
X3.6067Y-2.8019
X3.6067Y-2.8413
X3.6067Y-6.5027
X3.6067Y-6.5421
X3.6067Y-6.5814
X3.6067Y-6.6208
X3.6067Y-6.6602
X3.6083Y-1.8327
X3.6263Y-2.8807
X3.6263Y-2.92
X3.6263Y-2.9594
X3.6263Y-2.9988
X3.6263Y-3.0381
X3.6263Y-3.0775
X3.6263Y-3.1169
X3.6263Y-6.2271
X3.6263Y-6.2665
X3.6263Y-6.3059
X3.6263Y-6.3452
X3.6263Y-6.3846
X3.6263Y-6.424
X3.6263Y-6.4633
X3.6295Y-1.9098
X3.646Y-2.6444
X3.646Y-2.6877
X3.646Y-2.8019
X3.646Y-2.8413
X3.646Y-3.1956
X3.646Y-6.1484
X3.646Y-6.5027
X3.646Y-6.5421
X3.6543Y-6.739
X3.6657Y-2.8807
X3.6657Y-2.92
X3.6657Y-6.424
X3.6657Y-6.4633
X3.6657Y-6.5814
X3.6854Y-2.8019
X3.6854Y-2.8413
X3.6854Y-3.1366
X3.6854Y-6.2074
X3.6854Y-6.5027
X3.6854Y-6.5421
X3.7051Y-2.8807
X3.7051Y-2.92
X3.7051Y-3.1956
X3.7051Y-6.1484
X3.7051Y-6.424
X3.7051Y-6.4633
X3.7236Y-1.8661
X3.7248Y-2.8019
X3.7248Y-2.8413
X3.7248Y-3.1366
X3.7248Y-6.2074
X3.7248Y-6.5027
X3.7248Y-6.5421
X3.7444Y-2.7625
X3.7444Y-2.8807
X3.7444Y-2.92
X3.7444Y-6.424
X3.7444Y-6.4633
X3.7641Y-2.8019
X3.7641Y-2.8413
X3.7641Y-3.1956
X3.7641Y-6.1484
X3.7641Y-6.5027
X3.7641Y-6.5421
X3.7641Y-6.6562
X3.7641Y-6.6996
X3.7838Y-2.8807
X3.7838Y-2.92
X3.7838Y-2.9594
X3.7838Y-2.9988
X3.7838Y-3.0381
X3.7838Y-3.0775
X3.7838Y-3.1169
X3.7838Y-6.2271
X3.7838Y-6.2665
X3.7838Y-6.3059
X3.7838Y-6.3452
X3.7838Y-6.3846
X3.7838Y-6.424
X3.7838Y-6.4633
X3.8035Y-2.6838
X3.8035Y-2.7232
X3.8035Y-2.7625
X3.8035Y-2.8019
X3.8035Y-2.8413
X3.8035Y-6.5027
X3.8035Y-6.5421
X3.8035Y-6.5814
X3.8232Y-2.8807
X3.8232Y-2.92
X3.8232Y-2.9594
X3.8232Y-2.9988
X3.8232Y-3.0381
X3.8232Y-3.0775
X3.8232Y-3.1169
X3.8232Y-6.2271
X3.8232Y-6.2665
X3.8232Y-6.3059
X3.8232Y-6.3452
X3.8232Y-6.3846
X3.8232Y-6.424
X3.8232Y-6.4633
X3.8429Y-2.6838
X3.8429Y-2.7232
X3.8429Y-2.7625
X3.8429Y-2.8019
X3.8429Y-2.8413
X3.8429Y-6.5027
X3.8429Y-6.5421
X3.8429Y-6.5814
X3.8429Y-6.6208
X3.8429Y-6.6602
X3.848Y-1.8728
X3.8926Y-3.1237
X3.8926Y-6.2203
X3.9003Y-3.0851
X3.9003Y-6.2589
X3.9059Y-6.7232
X3.908Y-3.0465
X3.908Y-6.2975
X3.9083Y-2.6211
X3.9157Y-3.0079
X3.9157Y-6.3361
X3.9233Y-2.9693
X3.9233Y-6.3747
X3.9271Y-2.8496
X3.9271Y-6.4944
X3.931Y-2.9306
X3.931Y-6.4133
X3.9312Y-3.1314
X3.9312Y-6.2126
X3.9348Y-2.811
X3.9348Y-6.533
X3.9352Y-3.2125
X3.9352Y-6.1315
X3.9387Y-2.892
X3.9387Y-6.452
X3.9389Y-3.0928
X3.9389Y-6.2512
X3.9424Y-2.7724
X3.9424Y-6.5716
X3.9466Y-3.0542
X3.9466Y-6.2898
X3.9501Y-2.7337
X3.9501Y-6.6102
X3.9543Y-3.0156
X3.9543Y-6.3284
X3.9578Y-2.6951
X3.9578Y-6.6489
X3.962Y-2.9769
X3.962Y-6.367
X3.9657Y-2.8573
X3.9657Y-6.4867
X3.9696Y-2.9383
X3.9696Y-6.4057
X3.9713Y-1.9055
X3.9734Y-2.8186
X3.9734Y-6.5253
X3.9773Y-2.8997
X3.9773Y-6.4443
X3.9811Y-2.78
X3.9811Y-6.564
X3.9853Y-3.1622
X3.9853Y-6.1818
X3.9887Y-6.6026
X3.9931Y-3.224
X3.9931Y-6.12
X3.9964Y-6.6412
X4.0043Y-2.8649
X4.0043Y-6.479
X4.0083Y-2.946
X4.0083Y-6.398
X4.0098Y-6.7489
X4.012Y-2.8263
X4.012Y-6.5177
X4.0159Y-2.9074
X4.0159Y-6.4366
X4.0239Y-3.1699
X4.0239Y-6.1741
X4.0343Y-2.7143
X4.0354Y-1.9823
X4.039Y-6.5524
X4.0427Y-2.6719
X4.0429Y-2.8726
X4.0429Y-6.4714
X4.0469Y-2.9537
X4.0469Y-6.3903
X4.0506Y-2.834
X4.0506Y-6.51
X4.051Y-3.2355
X4.051Y-6.1085
X4.0546Y-2.9151
X4.0546Y-6.4289
X4.0585Y-6.7092
X4.0815Y-2.8803
X4.0815Y-6.4637
X4.0855Y-2.9614
X4.0855Y-6.3826
X4.0857Y-3.1621
X4.0857Y-6.1819
X4.0892Y-2.8417
X4.0892Y-6.5023
X4.0932Y-2.9228
X4.0932Y-6.4212
X4.0934Y-3.1235
X4.0934Y-6.2205
X4.1011Y-3.0849
X4.1011Y-6.2591
X4.1055Y-2.1469
X4.1087Y-3.0463
X4.1087Y-6.2977
X4.1162Y-2.8069
X4.1164Y-3.0077
X4.1164Y-6.3363
X4.1202Y-2.888
X4.1202Y-6.456
X4.1241Y-2.9691
X4.1241Y-6.3749
X4.1243Y-3.1698
X4.1243Y-6.1742
X4.1278Y-2.8494
X4.1278Y-6.4946
X4.1318Y-2.9304
X4.1318Y-6.4136
X4.132Y-3.1312
X4.132Y-6.2128
X4.1397Y-3.0926
X4.1397Y-6.2514
X4.1473Y-3.054
X4.1473Y-6.29
X4.1501Y-6.6066
X4.155Y-3.0153
X4.155Y-6.3286
X4.1582Y-2.6546
X4.1586Y-6.6491
X4.1588Y-2.8957
X4.1588Y-6.4483
X4.1627Y-6.3673
X4.1664Y-2.8571
X4.1664Y-6.4869
X4.1704Y-6.4059
X4.1741Y-2.8184
X4.1741Y-6.5256
X4.1818Y-2.7798
X4.1895Y-2.7412
X4.1911Y-3.1901
X4.1911Y-6.1539
X4.1974Y-6.4406
X4.2051Y-2.8647
X4.2051Y-6.4793
X4.2061Y-3.1537
X4.2061Y-6.1903
X4.2127Y-2.8261
X4.2127Y-6.5179
X4.2155Y-3.2854
X4.2155Y-6.0586
X4.2204Y-2.7875
X4.2204Y-6.5565
X4.2212Y-3.1173
X4.2212Y-6.2267
X4.2274Y-3.2051
X4.2274Y-6.1389
X4.2281Y-2.7489
X4.2281Y-6.5951
X4.2363Y-3.0809
X4.2363Y-6.2631
X4.2425Y-3.1687
X4.2425Y-6.1752
X4.2513Y-3.0446
X4.2513Y-6.2994
X4.2576Y-3.1324
X4.2576Y-6.2116
X4.2657Y-1.5768
X4.2664Y-6.3358
X4.2701Y-3.308
X4.2701Y-6.036
X4.2726Y-3.096
X4.2726Y-6.248
X4.2745Y-3.2459
X4.2745Y-6.0981
X4.2784Y-6.4161
X4.2815Y-6.3722
X4.2877Y-3.0596
X4.2877Y-6.2844
X4.2934Y-2.8915
X4.2934Y-6.4525
X4.3022Y-6.6446
X4.3028Y-3.0233
X4.3028Y-6.3207
X4.3045Y-2.7001
X4.3085Y-2.8552
X4.3085Y-6.4888
X4.3108Y-3.261
X4.3108Y-6.083
X4.3147Y-2.943
X4.3147Y-6.401
X4.3178Y-2.9869
X4.3178Y-6.3571
X4.3236Y-2.8188
X4.3236Y-6.5252
X4.3246Y-3.3306
X4.3246Y-6.0134
X4.3298Y-2.9066
X4.3298Y-6.4374
X4.3386Y-2.7824
X4.3386Y-6.5616
X4.3392Y-3.0383
X4.3392Y-6.3057
X4.3449Y-2.8702
X4.3449Y-6.4738
X4.3511Y-2.958
X4.3511Y-6.3859
X4.3542Y-3.0019
X4.3542Y-6.342
X4.3599Y-6.5101
X4.3662Y-2.9217
X4.3662Y-6.4223
X4.3729Y-3.2654
X4.3729Y-6.0786
X4.375Y-6.5465
X4.3755Y-3.0534
X4.3755Y-6.2906
X4.3875Y-2.9731
X4.3875Y-6.3709
X4.388Y-3.229
X4.388Y-6.115
X4.3906Y-3.017
X4.3906Y-6.327
X4.3994Y-6.4512
X4.4025Y-2.9367
X4.4025Y-6.4073
X4.4031Y-3.1926
X4.4031Y-6.1513
X4.4091Y-6.6495
X4.4093Y-3.2805
X4.4093Y-6.0635
X4.4099Y-2.8162
X4.4119Y-3.0685
X4.4119Y-6.2755
X4.4181Y-3.1563
X4.4181Y-6.1877
X4.4238Y-2.9882
X4.4238Y-6.3558
X4.4244Y-3.2441
X4.4244Y-6.0999
X4.4264Y-2.7762
X4.427Y-3.0321
X4.427Y-6.3119
X4.4332Y-3.1199
X4.4332Y-6.2241
X4.4389Y-2.9518
X4.4389Y-6.3922
X4.4394Y-3.2077
X4.4394Y-6.1363
X4.4483Y-3.0835
X4.4483Y-6.2605
X4.4492Y-6.6011
X4.4545Y-3.1713
X4.4545Y-6.1727
X4.4602Y-3.0032
X4.4602Y-6.3407
X4.4633Y-3.0471
X4.4633Y-6.2968
X4.4696Y-3.135
X4.4696Y-6.209
X4.4709Y-3.3133
X4.4709Y-6.0306
X4.4722Y-2.923
X4.4753Y-2.9669
X4.4753Y-6.3771
X4.4762Y-3.4116
X4.4762Y-5.9324
X4.4846Y-3.0986
X4.4927Y-3.2806
X4.4927Y-6.0634
X4.4966Y-3.0183
X4.4966Y-6.3257
X4.4997Y-3.0622
X4.5036Y-3.3352
X4.5036Y-6.0088
X4.5117Y-2.9819
X4.5117Y-6.3621
X4.5146Y-3.2479
X4.5146Y-6.0961
X4.519Y-6.4826
X4.5253Y-3.4444
X4.5253Y-5.8996
X4.5255Y-3.3025
X4.5255Y-6.0415
X4.5267Y-2.9456
X4.5267Y-6.3984
X4.533Y-3.0334
X4.5356Y-6.5226
X4.5365Y-3.2151
X4.5365Y-6.1289
X4.5418Y-3.3844
X4.5418Y-5.9596
X4.5418Y-2.9092
X4.543Y-2.7817
X4.5473Y-3.2697
X4.5473Y-6.0742
X4.548Y-2.997
X4.548Y-6.347
X4.5569Y-2.8728
X4.5583Y-3.1824
X4.5583Y-6.1616
X4.5631Y-2.9606
X4.5631Y-6.3834
X4.5692Y-3.237
X4.5692Y-6.107
X4.5744Y-3.4772
X4.5744Y-5.8667
X4.5745Y-3.4063
X4.5745Y-5.9377
X4.5782Y-2.9243
X4.5782Y-6.4197
X4.5802Y-3.1497
X4.5911Y-3.2043
X4.5911Y-6.1397
X4.5932Y-2.8879
X4.5932Y-6.4561
X4.6021Y-3.1169
X4.6076Y-3.0733
X4.6129Y-3.1715
X4.6129Y-6.1724
X4.6295Y-3.0405
X4.6295Y-6.3035
X4.6345Y-3.4227
X4.6345Y-5.9213
X4.6348Y-3.1388
X4.6348Y-6.2052
X4.6403Y-3.0951
X4.6403Y-6.2489
X4.6457Y-3.1934
X4.6457Y-6.1506
X4.6513Y-3.0078
X4.6513Y-6.3362
X4.6564Y-3.39
X4.6564Y-5.954
X4.6622Y-3.0624
X4.6622Y-6.2816
X4.6673Y-3.4446
X4.6673Y-5.8994
X4.6676Y-3.1607
X4.6676Y-6.1833
X4.6731Y-3.117
X4.6731Y-6.227
X4.6732Y-2.9751
X4.6732Y-6.3689
X4.6755Y-6.4902
X4.6777Y-2.8549
X4.6783Y-3.3572
X4.6783Y-5.9868
X4.6784Y-3.2153
X4.6784Y-6.1287
X4.6841Y-3.0297
X4.6841Y-6.3143
X4.6891Y-3.4118
X4.6891Y-5.9321
X4.6949Y-3.0843
X4.6949Y-6.2597
X4.6951Y-2.9423
X4.6951Y-6.4017
X4.7001Y-3.3245
X4.7001Y-6.0195
X4.7003Y-3.1826
X4.7003Y-6.1614
X4.7058Y-3.1389
X4.7058Y-6.2051
X4.7059Y-6.3471
X4.7073Y-3.5863
X4.7073Y-5.7577
X4.711Y-3.3791
X4.711Y-5.9649
X4.7112Y-3.2372
X4.7112Y-6.1068
X4.7126Y-2.4606
X4.7175Y-1.8661
X4.7212Y-3.4888
X4.7212Y-5.8551
X4.722Y-3.2918
X4.722Y-6.0522
X4.7277Y-3.1061
X4.7277Y-6.2378
X4.7278Y-6.3798
X4.7329Y-3.3464
X4.7329Y-5.9976
X4.733Y-3.2044
X4.733Y-6.1396
X4.7332Y-6.2815
X4.7385Y-3.1608
X4.7385Y-6.1832
X4.7439Y-3.259
X4.7439Y-6.085
X4.749Y-3.461
X4.749Y-3.5167
X4.749Y-3.628
X4.749Y-5.716
X4.749Y-5.8273
X4.749Y-5.883
X4.7548Y-3.3136
X4.7548Y-6.0303
X4.7584Y-2.9893
X4.7604Y-3.128
X4.7604Y-6.216
X4.7658Y-3.2263
X4.7658Y-6.1177
X4.7713Y-3.1826
X4.7713Y-6.1614
X4.7766Y-3.2809
X4.7766Y-6.0631
X4.7769Y-3.4332
X4.7769Y-3.4888
X4.7769Y-3.5724
X4.7769Y-5.7716
X4.7769Y-5.8551
X4.7769Y-5.9108
X4.7814Y-6.4742
X4.7824Y-2.9533
X4.7908Y-3.6698
X4.7908Y-5.6742
X4.7931Y-3.1499
X4.7931Y-6.1941
X4.7963Y-2.4606
X4.7985Y-3.2482
X4.7985Y-6.0958
X4.7986Y-3.1062
X4.8012Y-1.8661
X4.804Y-3.2045
X4.804Y-6.1395
X4.8047Y-3.4053
X4.8047Y-3.461
X4.8047Y-3.6002
X4.8047Y-5.7438
X4.8047Y-5.883
X4.8047Y-5.9387
X4.8112Y-6.4189
X4.8259Y-3.1718
X4.8259Y-6.1722
X4.8326Y-3.3775
X4.8326Y-3.4332
X4.8326Y-5.9108
X4.8326Y-5.9665
X4.8367Y-3.2264
X4.8367Y-6.1176
X4.8477Y-3.139
X4.8477Y-6.205
X4.8566Y-6.289
X4.8586Y-3.1936
X4.8586Y-6.1504
X4.8604Y-3.3496
X4.8604Y-3.4053
X4.8604Y-3.628
X4.8604Y-5.716
X4.8604Y-5.9387
X4.8604Y-5.9943
X4.8696Y-3.1063
X4.8799Y-2.4606
X4.8805Y-3.1609
X4.8805Y-6.1831
X4.8806Y-6.325
X4.8848Y-1.8661
X4.8882Y-3.3218
X4.8882Y-3.3775
X4.8882Y-3.6002
X4.8882Y-3.6559
X4.8882Y-5.6881
X4.8882Y-5.7438
X4.8882Y-5.9665
X4.8882Y-6.0222
X4.8915Y-3.0736
X4.8957Y-2.9815
X4.8998Y-3.8027
X4.8998Y-5.5413
X4.9021Y-3.2801
X4.9021Y-6.0639
X4.9024Y-3.1282
X4.9024Y-6.2158
X4.9161Y-3.3496
X4.9161Y-3.4053
X4.9161Y-3.5724
X4.9161Y-3.628
X4.9161Y-5.716
X4.9161Y-5.7716
X4.9161Y-5.9387
X4.9161Y-5.9943
X4.9242Y-3.0954
X4.9242Y-6.2486
X4.93Y-3.2522
X4.93Y-3.3079
X4.93Y-6.0361
X4.93Y-6.0918
X4.9325Y-3.7098
X4.9325Y-5.6342
X4.9326Y-3.8518
X4.9326Y-5.4922
X4.9439Y-3.3775
X4.9439Y-3.4332
X4.9439Y-3.5445
X4.9439Y-3.6002
X4.9439Y-5.7438
X4.9439Y-5.7995
X4.9439Y-5.9108
X4.9439Y-5.9665
X4.9544Y-3.7425
X4.9544Y-5.6014
X4.9578Y-3.2244
X4.9578Y-3.2801
X4.9578Y-3.3357
X4.9578Y-6.0083
X4.9578Y-6.0639
X4.9578Y-6.1196
X4.9636Y-2.4606
X4.9652Y-3.6879
X4.9652Y-5.656
X4.9655Y-3.9009
X4.9655Y-5.4431
X4.9685Y-1.8661
X4.9708Y-3.8026
X4.9708Y-5.5414
X4.9717Y-3.4053
X4.9717Y-3.461
X4.9717Y-3.5167
X4.9717Y-3.5724
X4.9717Y-5.7716
X4.9717Y-5.8273
X4.9717Y-5.883
X4.9717Y-5.9387
X4.9857Y-3.1965
X4.9857Y-3.2522
X4.9857Y-3.3079
X4.9857Y-3.3636
X4.9857Y-5.9804
X4.9857Y-6.0361
X4.9857Y-6.0918
X4.9857Y-6.1475
X4.9871Y-3.7207
X4.9871Y-5.6233
X4.9927Y-3.8353
X4.9927Y-5.5087
X4.998Y-3.6661
X4.998Y-5.6779
X4.9996Y-3.4332
X4.9996Y-3.4888
X4.9996Y-3.5445
X4.9996Y-5.7995
X4.9996Y-5.8551
X4.9996Y-5.9108
X5.0116Y-6.2659
X5.0135Y-3.0796
X5.0135Y-3.1687
X5.0135Y-3.3357
X5.0135Y-3.3914
X5.0135Y-5.9526
X5.0135Y-6.0083
X5.0135Y-6.1196
X5.0135Y-6.1753
X5.0198Y-3.6988
X5.0198Y-5.6452
X5.0274Y-3.461
X5.0274Y-3.5167
X5.0274Y-5.8273
X5.0274Y-5.883
X5.0274Y-6.05
X5.0307Y-3.6442
X5.0307Y-5.6998
X5.0413Y-3.3636
X5.0413Y-3.4192
X5.0413Y-5.9247
X5.0413Y-5.9804
X5.0413Y-6.1475
X5.0419Y-3.8735
X5.0419Y-5.4705
X5.0465Y-4.0524
X5.0465Y-5.2915
X5.0472Y-2.4606
X5.0522Y-1.8661
X5.0526Y-3.6769
X5.0526Y-5.6671
X5.0553Y-3.4888
X5.0553Y-5.8551
X5.0634Y-3.6223
X5.0634Y-5.7217
X5.0637Y-3.9062
X5.0637Y-5.4378
X5.0664Y-3.2272
X5.0691Y-4.107
X5.0691Y-5.237
X5.0692Y-3.3914
X5.0692Y-3.4471
X5.0692Y-5.8969
X5.0692Y-5.9526
X5.0746Y-3.8516
X5.0746Y-5.4924
X5.0831Y-3.3496
X5.0853Y-3.6551
X5.0853Y-5.6889
X5.0917Y-4.1616
X5.0917Y-5.1824
X5.0962Y-3.6004
X5.0962Y-5.7435
X5.0965Y-3.8843
X5.0965Y-5.4596
X5.0966Y-3.9678
X5.0966Y-5.3762
X5.097Y-3.1965
X5.097Y-3.4192
X5.097Y-3.4749
X5.097Y-5.8691
X5.097Y-5.9247
X5.1073Y-3.8297
X5.1073Y-5.5142
X5.1117Y-4.0041
X5.1117Y-5.3399
X5.1123Y-6.2296
X5.1161Y-4.0662
X5.1161Y-5.2778
X5.118Y-3.6332
X5.118Y-5.7108
X5.1249Y-3.3914
X5.1249Y-3.4471
X5.1249Y-5.8969
X5.1249Y-5.9526
X5.1289Y-3.5786
X5.1289Y-5.7654
X5.1292Y-3.8625
X5.1292Y-5.4815
X5.1308Y-6.1695
X5.1312Y-4.1026
X5.1312Y-5.2414
X5.133Y-3.9527
X5.133Y-5.3913
X5.1399Y-3.6659
X5.1399Y-5.6781
X5.1401Y-3.8079
X5.1401Y-5.5361
X5.1416Y-4.326
X5.1416Y-5.0179
X5.1481Y-3.9891
X5.1481Y-5.3549
X5.1499Y-6.0333
X5.1507Y-3.5403
X5.1507Y-5.8037
X5.1508Y-3.6113
X5.1508Y-5.7327
X5.1527Y-3.3636
X5.1527Y-3.4192
X5.1527Y-5.9247
X5.1531Y-4.384
X5.1531Y-4.96
X5.1618Y-3.6987
X5.1618Y-5.6453
X5.1619Y-3.8406
X5.1619Y-5.5034
X5.1646Y-4.4419
X5.1646Y-4.9021
X5.1694Y-3.9376
X5.1694Y-5.4064
X5.172Y-4.1496
X5.172Y-5.1944
X5.1726Y-3.5731
X5.1726Y-5.7709
X5.1726Y-3.644
X5.1726Y-5.6999
X5.1728Y-3.786
X5.1728Y-5.558
X5.1805Y-3.3357
X5.1805Y-3.3914
X5.1805Y-5.9526
X5.1805Y-6.0639
X5.1815Y-4.6129
X5.1815Y-4.672
X5.1815Y-4.731
X5.1834Y-3.5185
X5.1834Y-5.8255
X5.1837Y-3.7314
X5.1837Y-5.6126
X5.1844Y-3.974
X5.1844Y-5.37
X5.187Y-4.186
X5.187Y-5.158
X5.1944Y-3.6058
X5.1944Y-5.7382
X5.1945Y-3.6768
X5.1945Y-5.6672
X5.1947Y-3.8187
X5.1947Y-5.5253
X5.2026Y-3.2463
X5.2053Y-3.5512
X5.2053Y-5.7928
X5.2055Y-3.7641
X5.2055Y-5.5799
X5.2057Y-3.9226
X5.2057Y-5.4214
X5.2072Y-4.3531
X5.2072Y-4.9908
X5.2073Y-4.2528
X5.2073Y-5.0912
X5.2083Y-4.1346
X5.2083Y-5.2094
X5.2084Y-3.3636
X5.2084Y-5.9804
X5.2148Y-4.3918
X5.2148Y-4.9522
X5.215Y-4.2914
X5.215Y-5.0526
X5.2162Y-3.4966
X5.2162Y-5.8474
X5.2163Y-3.6385
X5.2163Y-5.7054
X5.2164Y-3.7095
X5.2164Y-5.6345
X5.2208Y-3.9589
X5.2208Y-5.3851
X5.2234Y-4.1709
X5.2234Y-5.1731
X5.2272Y-3.5839
X5.2272Y-5.7601
X5.2274Y-5.5471
X5.238Y-3.5293
X5.238Y-5.8147
X5.2382Y-3.6713
X5.2382Y-5.6727
X5.2383Y-3.7422
X5.2383Y-5.6017
X5.2405Y-4.6523
X5.2405Y-4.6917
X5.2421Y-3.9075
X5.2421Y-5.4365
X5.2447Y-4.1195
X5.2447Y-5.2245
X5.2457Y-4.4458
X5.2457Y-4.8982
X5.2459Y-4.2451
X5.2459Y-5.0989
X5.2489Y-3.4747
X5.2489Y-5.8693
X5.2491Y-3.6167
X5.2491Y-5.7273
X5.2534Y-4.4844
X5.2534Y-4.8595
X5.2536Y-4.2837
X5.2536Y-5.0603
X5.2572Y-3.9439
X5.2572Y-5.4001
X5.2598Y-4.1559
X5.2598Y-5.1881
X5.2601Y-3.704
X5.2601Y-5.64
X5.2601Y-5.569
X5.2602Y-4.5539
X5.2602Y-4.5933
X5.2602Y-4.7507
X5.2602Y-4.7901
X5.2708Y-5.8365
X5.2709Y-5.7656
X5.2709Y-3.6494
X5.2709Y-5.6946
X5.2785Y-5.4516
X5.2811Y-4.1044
X5.2811Y-5.2396
X5.2816Y-3.4528
X5.2816Y-5.8911
X5.2819Y-3.7367
X5.2819Y-5.6072
X5.2843Y-4.4382
X5.2843Y-4.9058
X5.2845Y-4.2374
X5.2845Y-5.1066
X5.292Y-4.4768
X5.292Y-4.8672
X5.2922Y-4.276
X5.2922Y-5.068
X5.2928Y-3.6821
X5.2928Y-5.6619
X5.2936Y-3.9288
X5.2936Y-5.4152
X5.2961Y-4.1408
X5.2961Y-5.2032
X5.2975Y-5.9804
X5.299Y-3.3655
X5.2996Y-4.5539
X5.2996Y-4.5933
X5.2996Y-4.7507
X5.2996Y-4.7901
X5.3035Y-5.8584
X5.3038Y-5.5745
X5.3086Y-3.9652
X5.3086Y-5.3788
X5.3146Y-3.6439
X5.3147Y-3.7149
X5.3147Y-5.6291
X5.3149Y-5.4666
X5.3174Y-4.0894
X5.3174Y-5.2546
X5.3221Y-3.5205
X5.3229Y-4.4305
X5.3229Y-4.9135
X5.3231Y-4.2297
X5.3231Y-5.1143
X5.3237Y-4.0015
X5.3237Y-5.3424
X5.3299Y-3.9137
X5.3299Y-5.4303
X5.3306Y-4.4691
X5.3306Y-4.8749
X5.3308Y-4.2683
X5.3308Y-5.0757
X5.3325Y-4.1257
X5.3325Y-5.2183
X5.3365Y-3.7476
X5.3365Y-5.5964
X5.3388Y-4.0379
X5.3388Y-5.3061
X5.3389Y-4.5539
X5.3389Y-4.5933
X5.3389Y-4.7507
X5.3389Y-4.7901
X5.3437Y-5.4999
X5.345Y-3.9501
X5.345Y-5.3939
X5.3474Y-3.693
X5.3474Y-5.651
X5.3538Y-4.0743
X5.3538Y-5.2697
X5.3581Y-3.4964
X5.3588Y-3.8805
X5.3588Y-5.4635
X5.3601Y-3.9865
X5.3601Y-5.3575
X5.3615Y-4.4228
X5.3615Y-4.9212
X5.3617Y-4.222
X5.3617Y-5.1219
X5.3689Y-4.1107
X5.3692Y-4.4614
X5.3692Y-4.8826
X5.3693Y-3.7257
X5.3693Y-5.6183
X5.3694Y-4.2607
X5.3694Y-5.0833
X5.3738Y-3.9169
X5.3738Y-5.4271
X5.3751Y-4.0229
X5.3751Y-5.3211
X5.3783Y-4.5539
X5.3783Y-4.5933
X5.3783Y-4.7507
X5.3783Y-4.7901
X5.3801Y-3.829
X5.3801Y-5.5149
X5.3801Y-3.6711
X5.3877Y-5.7253
X5.3889Y-3.9532
X5.3889Y-5.3908
X5.3892Y-5.9251
X5.3902Y-4.0592
X5.3902Y-5.2848
X5.3951Y-3.8654
X5.3951Y-5.4786
X5.3955Y-5.8626
X5.4001Y-4.4151
X5.4001Y-4.9289
X5.4003Y-4.2144
X5.402Y-3.7039
X5.402Y-5.6401
X5.404Y-3.9896
X5.404Y-5.3544
X5.4053Y-4.0956
X5.4078Y-4.4537
X5.4078Y-4.8903
X5.408Y-4.253
X5.408Y-5.091
X5.4102Y-3.9018
X5.4102Y-5.4422
X5.4129Y-3.6493
X5.4157Y-4.2916
X5.4157Y-5.0524
X5.4164Y-3.814
X5.4164Y-5.53
X5.4177Y-4.5539
X5.4177Y-4.5933
X5.4177Y-4.7507
X5.4177Y-4.7901
X5.419Y-4.026
X5.419Y-5.318
X5.4234Y-4.3302
X5.4234Y-5.0138
X5.4237Y-5.7493
X5.4253Y-3.9382
X5.4253Y-5.4058
X5.4311Y-4.3688
X5.4311Y-4.9752
X5.4315Y-3.8503
X5.4315Y-5.4936
X5.4341Y-4.0623
X5.4341Y-5.2816
X5.4348Y-3.682
X5.4348Y-5.662
X5.4387Y-4.4074
X5.4387Y-4.9366
X5.439Y-4.2067
X5.4403Y-3.9745
X5.4403Y-5.3695
X5.4464Y-4.446
X5.4464Y-4.8979
X5.4466Y-4.2453
X5.4466Y-5.0987
X5.4492Y-4.0987
X5.452Y-3.5658
X5.4528Y-3.7989
X5.4528Y-5.5451
X5.4541Y-5.4391
X5.4543Y-4.2839
X5.4543Y-5.0601
X5.4554Y-4.0109
X5.4554Y-5.3331
X5.457Y-4.5539
X5.457Y-4.5933
X5.457Y-4.6326
X5.457Y-4.672
X5.457Y-4.7114
X5.457Y-4.7507
X5.457Y-4.7901
X5.462Y-4.3225
X5.462Y-5.0215
X5.4679Y-5.5087
X5.4697Y-4.3611
X5.4697Y-4.9829
X5.4705Y-4.0473
X5.4705Y-5.2967
X5.4737Y-4.1797
X5.4774Y-4.3997
X5.4774Y-4.9442
X5.4814Y-4.2183
X5.4814Y-5.1257
X5.4842Y-3.9777
X5.485Y-4.4384
X5.485Y-4.9056
X5.4855Y-4.0837
X5.4855Y-5.2603
X5.4891Y-4.2569
X5.4891Y-5.0871
X5.4892Y-3.7838
X5.4892Y-5.5601
X5.4964Y-4.5539
X5.4964Y-4.5933
X5.4964Y-4.6326
X5.4964Y-4.672
X5.4964Y-4.7114
X5.4964Y-4.7507
X5.4964Y-4.7901
X5.4968Y-4.2955
X5.4968Y-5.0485
X5.5043Y-5.5238
X5.5045Y-4.3341
X5.5045Y-5.0098
X5.5068Y-4.0322
X5.5068Y-5.3118
X5.5121Y-4.3728
X5.5121Y-4.9712
X5.5123Y-4.172
X5.5123Y-5.172
X5.5157Y-3.8581
X5.5198Y-4.4114
X5.5198Y-4.9326
X5.52Y-4.2106
X5.52Y-5.1334
X5.5219Y-4.0686
X5.5219Y-5.2754
X5.5221Y-5.6446
X5.5233Y-3.7015
X5.5275Y-4.45
X5.5275Y-4.894
X5.5277Y-4.2492
X5.5277Y-5.0947
X5.5354Y-4.2879
X5.5354Y-5.0561
X5.5358Y-4.5342
X5.5358Y-4.5736
X5.5358Y-4.6129
X5.5358Y-4.6523
X5.5358Y-4.6917
X5.5358Y-4.731
X5.5358Y-4.7704
X5.5358Y-4.8098
X5.5431Y-4.3265
X5.5431Y-5.0175
X5.5432Y-4.0171
X5.5432Y-5.3268
X5.5507Y-4.3651
X5.5507Y-4.9789
X5.551Y-4.1643
X5.551Y-5.1797
X5.5557Y-3.8415
X5.5583Y-4.0535
X5.5583Y-5.2905
X5.5584Y-4.4037
X5.5584Y-4.9403
X5.5586Y-4.2029
X5.5586Y-5.141
X5.5609Y-5.3768
X5.5661Y-4.4423
X5.5661Y-4.9017
X5.5702Y-5.0831
X5.5752Y-4.5342
X5.5752Y-4.5736
X5.5752Y-4.6129
X5.5752Y-4.6523
X5.5752Y-4.6917
X5.5752Y-4.731
X5.5752Y-4.7704
X5.5752Y-4.8098
X5.5796Y-4.0021
X5.5855Y-4.3381
X5.5896Y-4.1567
X5.5896Y-5.1873
X5.5947Y-4.0385
X5.5947Y-5.3055
X5.5953Y-5.5099
X5.597Y-4.396
X5.597Y-4.948
X5.5972Y-5.1487
X5.6009Y-5.3933
X5.6013Y-5.5725
X5.6047Y-4.4346
X5.6047Y-4.9094
X5.6145Y-4.5342
X5.6145Y-4.5736
X5.6145Y-4.7114
X5.6145Y-4.7704
X5.6145Y-4.8098
X5.6282Y-4.149
X5.6282Y-5.195
X5.6342Y-3.9279
X5.6357Y-4.3883
X5.6359Y-5.1564
X5.6397Y-4.227
X5.6433Y-4.4269
X5.6433Y-4.917
X5.6539Y-4.5342
X5.6539Y-4.7704
X5.6539Y-4.8098
X5.6627Y-5.0012
X5.6743Y-4.3807
X5.677Y-5.2714
X5.6777Y-4.0749
X5.6819Y-4.4193
X5.6819Y-4.9247
X5.6822Y-4.2185
X5.6893Y-4.6129
X5.6933Y-4.5342
X5.6933Y-4.7704
X5.6933Y-4.8098
X5.7052Y-5.0096
X5.7225Y-5.1251
X5.7326Y-4.6129
X5.7423Y-4.3186
X5.7465Y-5.1807
X5.756Y-4.8752
X5.7563Y-4.4712
X5.7721Y-4.7228
T5
X4.8024Y-1.9417
X4.8024Y-2.3843
T6
X4.9598Y-1.9417
X4.9598Y-2.3843
T7
X2.8332Y-1.8366
X2.9892Y-1.8366
T8
X2.4663Y-1.3218
X2.4846Y-2.6033
X4.9255Y-2.6032
T4
G00X2.6811Y-1.436
M15
G01X2.6811Y-1.5226
M16
G05
G00X2.9134Y-1.3691
M15
G01X2.8268Y-1.3691
M16
G05
G00X2.9134Y-1.5974
M15
G01X2.8268Y-1.5974
M16
G05
M30
