%TF.GenerationSoftware,KiCad,Pcbnew,10.0.3*%
%TF.CreationDate,2026-06-11T00:12:19-04:00*%
%TF.ProjectId,Ring-Light,52696e67-2d4c-4696-9768-742e6b696361,rev?*%
%TF.SameCoordinates,Original*%
%TF.FileFunction,Paste,Top*%
%TF.FilePolarity,Positive*%
%FSLAX46Y46*%
G04 Gerber Fmt 4.6, Leading zero omitted, Abs format (unit mm)*
G04 Created by KiCad (PCBNEW 10.0.3) date 2026-06-11 00:12:19*
%MOMM*%
%LPD*%
G01*
G04 APERTURE LIST*
G04 Aperture macros list*
%AMRoundRect*
0 Rectangle with rounded corners*
0 $1 Rounding radius*
0 $2 $3 $4 $5 $6 $7 $8 $9 X,Y pos of 4 corners*
0 Add a 4 corners polygon primitive as box body*
4,1,4,$2,$3,$4,$5,$6,$7,$8,$9,$2,$3,0*
0 Add four circle primitives for the rounded corners*
1,1,$1+$1,$2,$3*
1,1,$1+$1,$4,$5*
1,1,$1+$1,$6,$7*
1,1,$1+$1,$8,$9*
0 Add four rect primitives between the rounded corners*
20,1,$1+$1,$2,$3,$4,$5,0*
20,1,$1+$1,$4,$5,$6,$7,0*
20,1,$1+$1,$6,$7,$8,$9,0*
20,1,$1+$1,$8,$9,$2,$3,0*%
%AMRotRect*
0 Rectangle, with rotation*
0 The origin of the aperture is its center*
0 $1 length*
0 $2 width*
0 $3 Rotation angle, in degrees counterclockwise*
0 Add horizontal line*
21,1,$1,$2,0,0,$3*%
G04 Aperture macros list end*
%ADD10RoundRect,0.140000X0.140000X0.170000X-0.140000X0.170000X-0.140000X-0.170000X0.140000X-0.170000X0*%
%ADD11RoundRect,0.140000X0.170000X-0.140000X0.170000X0.140000X-0.170000X0.140000X-0.170000X-0.140000X0*%
%ADD12RoundRect,0.182500X-0.182500X-0.337500X0.182500X-0.337500X0.182500X0.337500X-0.182500X0.337500X0*%
%ADD13RoundRect,0.062500X-0.312500X-0.062500X0.312500X-0.062500X0.312500X0.062500X-0.312500X0.062500X0*%
%ADD14R,0.850000X0.300000*%
%ADD15R,0.300000X0.850000*%
%ADD16R,5.250000X5.250000*%
%ADD17RoundRect,0.250000X0.250000X0.475000X-0.250000X0.475000X-0.250000X-0.475000X0.250000X-0.475000X0*%
%ADD18RoundRect,0.250000X0.475000X-0.250000X0.475000X0.250000X-0.475000X0.250000X-0.475000X-0.250000X0*%
%ADD19RoundRect,0.250000X1.500000X0.550000X-1.500000X0.550000X-1.500000X-0.550000X1.500000X-0.550000X0*%
%ADD20RoundRect,0.250000X-0.475000X0.250000X-0.475000X-0.250000X0.475000X-0.250000X0.475000X0.250000X0*%
%ADD21RoundRect,0.140000X-0.140000X-0.170000X0.140000X-0.170000X0.140000X0.170000X-0.140000X0.170000X0*%
%ADD22RoundRect,0.140000X-0.219203X-0.021213X-0.021213X-0.219203X0.219203X0.021213X0.021213X0.219203X0*%
%ADD23RoundRect,0.140000X-0.170000X0.140000X-0.170000X-0.140000X0.170000X-0.140000X0.170000X0.140000X0*%
%ADD24RoundRect,0.140000X-0.021213X0.219203X-0.219203X0.021213X0.021213X-0.219203X0.219203X-0.021213X0*%
%ADD25RoundRect,0.140000X0.021213X-0.219203X0.219203X-0.021213X-0.021213X0.219203X-0.219203X0.021213X0*%
%ADD26R,1.150000X0.110000*%
%ADD27R,2.100000X0.920000*%
%ADD28R,2.100000X2.120000*%
%ADD29R,1.150000X0.130000*%
%ADD30RotRect,0.110000X1.150000X281.250000*%
%ADD31RotRect,0.920000X2.100000X281.250000*%
%ADD32RotRect,2.100000X2.120000X11.250000*%
%ADD33RotRect,0.130000X1.150000X281.250000*%
%ADD34RotRect,0.110000X1.150000X292.500000*%
%ADD35RotRect,0.920000X2.100000X292.500000*%
%ADD36RotRect,2.100000X2.120000X22.500000*%
%ADD37RotRect,0.130000X1.150000X292.500000*%
%ADD38RotRect,0.110000X1.150000X337.500000*%
%ADD39RotRect,0.920000X2.100000X337.500000*%
%ADD40RotRect,2.100000X2.120000X67.500000*%
%ADD41RotRect,0.130000X1.150000X337.500000*%
%ADD42R,0.110000X1.150000*%
%ADD43R,0.920000X2.100000*%
%ADD44R,2.120000X2.100000*%
%ADD45R,0.130000X1.150000*%
%ADD46RotRect,0.110000X1.150000X22.500000*%
%ADD47RotRect,0.920000X2.100000X22.500000*%
%ADD48RotRect,2.100000X2.120000X112.500000*%
%ADD49RotRect,0.130000X1.150000X22.500000*%
%ADD50RotRect,0.110000X1.150000X33.750000*%
%ADD51RotRect,0.920000X2.100000X33.750000*%
%ADD52RotRect,2.100000X2.120000X123.750000*%
%ADD53RotRect,0.130000X1.150000X33.750000*%
%ADD54RotRect,0.110000X1.150000X45.000000*%
%ADD55RotRect,0.920000X2.100000X45.000000*%
%ADD56RotRect,2.100000X2.120000X135.000000*%
%ADD57RotRect,0.130000X1.150000X45.000000*%
%ADD58RotRect,0.110000X1.150000X56.250000*%
%ADD59RotRect,0.920000X2.100000X56.250000*%
%ADD60RotRect,2.100000X2.120000X146.250000*%
%ADD61RotRect,0.130000X1.150000X56.250000*%
%ADD62RotRect,0.110000X1.150000X67.500000*%
%ADD63RotRect,0.920000X2.100000X67.500000*%
%ADD64RotRect,2.100000X2.120000X157.500000*%
%ADD65RotRect,0.130000X1.150000X67.500000*%
%ADD66RotRect,0.110000X1.150000X78.750000*%
%ADD67RotRect,0.920000X2.100000X78.750000*%
%ADD68RotRect,2.100000X2.120000X168.750000*%
%ADD69RotRect,0.130000X1.150000X78.750000*%
%ADD70RotRect,0.110000X1.150000X101.250000*%
%ADD71RotRect,0.920000X2.100000X101.250000*%
%ADD72RotRect,2.100000X2.120000X191.250000*%
%ADD73RotRect,0.130000X1.150000X101.250000*%
%ADD74RotRect,0.110000X1.150000X112.500000*%
%ADD75RotRect,0.920000X2.100000X112.500000*%
%ADD76RotRect,2.100000X2.120000X202.500000*%
%ADD77RotRect,0.130000X1.150000X112.500000*%
%ADD78RotRect,0.110000X1.150000X123.750000*%
%ADD79RotRect,0.920000X2.100000X123.750000*%
%ADD80RotRect,2.100000X2.120000X213.750000*%
%ADD81RotRect,0.130000X1.150000X123.750000*%
%ADD82RotRect,0.110000X1.150000X135.000000*%
%ADD83RotRect,0.920000X2.100000X135.000000*%
%ADD84RotRect,2.100000X2.120000X225.000000*%
%ADD85RotRect,0.130000X1.150000X135.000000*%
%ADD86RotRect,0.110000X1.150000X157.500000*%
%ADD87RotRect,0.920000X2.100000X157.500000*%
%ADD88RotRect,2.100000X2.120000X247.500000*%
%ADD89RotRect,0.130000X1.150000X157.500000*%
%ADD90RotRect,0.110000X1.150000X213.750000*%
%ADD91RotRect,0.920000X2.100000X213.750000*%
%ADD92RotRect,2.100000X2.120000X303.750000*%
%ADD93RotRect,0.130000X1.150000X213.750000*%
%ADD94RotRect,0.110000X1.150000X225.000000*%
%ADD95RotRect,0.920000X2.100000X225.000000*%
%ADD96RotRect,2.100000X2.120000X315.000000*%
%ADD97RotRect,0.130000X1.150000X225.000000*%
%ADD98RotRect,0.110000X1.150000X247.500000*%
%ADD99RotRect,0.920000X2.100000X247.500000*%
%ADD100RotRect,2.100000X2.120000X337.500000*%
%ADD101RotRect,0.130000X1.150000X247.500000*%
%ADD102RotRect,0.110000X1.150000X258.750000*%
%ADD103RotRect,0.920000X2.100000X258.750000*%
%ADD104RotRect,2.100000X2.120000X348.750000*%
%ADD105RotRect,0.130000X1.150000X258.750000*%
%ADD106RoundRect,0.150000X0.200000X-0.150000X0.200000X0.150000X-0.200000X0.150000X-0.200000X-0.150000X0*%
%ADD107RoundRect,0.150000X-0.200000X0.150000X-0.200000X-0.150000X0.200000X-0.150000X0.200000X0.150000X0*%
%ADD108RoundRect,0.147500X-0.172500X0.147500X-0.172500X-0.147500X0.172500X-0.147500X0.172500X0.147500X0*%
%ADD109RoundRect,0.250000X1.000000X0.650000X-1.000000X0.650000X-1.000000X-0.650000X1.000000X-0.650000X0*%
%ADD110R,0.800000X1.150000*%
%ADD111R,2.020000X2.950000*%
%ADD112RoundRect,0.218750X0.256250X-0.218750X0.256250X0.218750X-0.256250X0.218750X-0.256250X-0.218750X0*%
%ADD113R,1.100000X0.300000*%
%ADD114R,1.100000X0.600000*%
%ADD115R,1.050000X2.200000*%
%ADD116R,1.000000X1.050000*%
%ADD117RoundRect,0.250000X-0.550000X1.500000X-0.550000X-1.500000X0.550000X-1.500000X0.550000X1.500000X0*%
%ADD118RoundRect,0.250000X1.269013X0.120852X1.124915X0.599638X-1.269013X-0.120852X-1.124915X-0.599638X0*%
%ADD119RoundRect,0.250000X1.118252X0.611973X0.796859X0.994996X-1.118252X-0.611973X-0.796859X-0.994996X0*%
%ADD120R,2.400000X1.500000*%
%ADD121RoundRect,0.218750X0.218750X0.381250X-0.218750X0.381250X-0.218750X-0.381250X0.218750X-0.381250X0*%
%ADD122RoundRect,0.147500X-0.147500X-0.172500X0.147500X-0.172500X0.147500X0.172500X-0.147500X0.172500X0*%
%ADD123R,5.054600X4.216400*%
%ADD124R,0.533400X1.524000*%
%ADD125RoundRect,0.135000X-0.135000X-0.185000X0.135000X-0.185000X0.135000X0.185000X-0.135000X0.185000X0*%
%ADD126RoundRect,0.135000X0.135000X0.185000X-0.135000X0.185000X-0.135000X-0.185000X0.135000X-0.185000X0*%
%ADD127RoundRect,0.135000X-0.096314X-0.207782X0.168498X-0.155108X0.096314X0.207782X-0.168498X0.155108X0*%
%ADD128RoundRect,0.135000X0.096314X0.207782X-0.168498X0.155108X-0.096314X-0.207782X0.168498X-0.155108X0*%
%ADD129RoundRect,0.135000X-0.053927X-0.222580X0.195520X-0.119255X0.053927X0.222580X-0.195520X0.119255X0*%
%ADD130RoundRect,0.135000X0.053927X0.222580X-0.195520X0.119255X-0.053927X-0.222580X0.195520X-0.119255X0*%
%ADD131RoundRect,0.135000X-0.009468X-0.228824X0.215029X-0.078820X0.009468X0.228824X-0.215029X0.078820X0*%
%ADD132RoundRect,0.135000X0.009468X0.228824X-0.215029X0.078820X-0.009468X-0.228824X0.215029X-0.078820X0*%
%ADD133RoundRect,0.135000X0.035355X-0.226274X0.226274X-0.035355X-0.035355X0.226274X-0.226274X0.035355X0*%
%ADD134RoundRect,0.135000X-0.035355X0.226274X-0.226274X0.035355X0.035355X-0.226274X0.226274X-0.035355X0*%
%ADD135RoundRect,0.135000X0.078820X-0.215029X0.228824X0.009468X-0.078820X0.215029X-0.228824X-0.009468X0*%
%ADD136RoundRect,0.135000X-0.078820X0.215029X-0.228824X-0.009468X0.078820X-0.215029X0.228824X0.009468X0*%
%ADD137RoundRect,0.135000X0.119255X-0.195520X0.222580X0.053927X-0.119255X0.195520X-0.222580X-0.053927X0*%
%ADD138RoundRect,0.135000X-0.119255X0.195520X-0.222580X-0.053927X0.119255X-0.195520X0.222580X0.053927X0*%
%ADD139RoundRect,0.135000X0.155108X-0.168498X0.207782X0.096314X-0.155108X0.168498X-0.207782X-0.096314X0*%
%ADD140RoundRect,0.135000X-0.155108X0.168498X-0.207782X-0.096314X0.155108X-0.168498X0.207782X0.096314X0*%
%ADD141RoundRect,0.135000X0.185000X-0.135000X0.185000X0.135000X-0.185000X0.135000X-0.185000X-0.135000X0*%
%ADD142RoundRect,0.135000X-0.185000X0.135000X-0.185000X-0.135000X0.185000X-0.135000X0.185000X0.135000X0*%
%ADD143RoundRect,0.135000X0.207782X-0.096314X0.155108X0.168498X-0.207782X0.096314X-0.155108X-0.168498X0*%
%ADD144RoundRect,0.135000X-0.207782X0.096314X-0.155108X-0.168498X0.207782X-0.096314X0.155108X0.168498X0*%
%ADD145RoundRect,0.135000X0.222580X-0.053927X0.119255X0.195520X-0.222580X0.053927X-0.119255X-0.195520X0*%
%ADD146RoundRect,0.135000X-0.222580X0.053927X-0.119255X-0.195520X0.222580X-0.053927X0.119255X0.195520X0*%
%ADD147RoundRect,0.135000X0.228824X-0.009468X0.078820X0.215029X-0.228824X0.009468X-0.078820X-0.215029X0*%
%ADD148RoundRect,0.135000X-0.228824X0.009468X-0.078820X-0.215029X0.228824X-0.009468X0.078820X0.215029X0*%
%ADD149RoundRect,0.135000X0.226274X0.035355X0.035355X0.226274X-0.226274X-0.035355X-0.035355X-0.226274X0*%
%ADD150RoundRect,0.135000X-0.226274X-0.035355X-0.035355X-0.226274X0.226274X0.035355X0.035355X0.226274X0*%
%ADD151RoundRect,0.135000X0.215029X0.078820X-0.009468X0.228824X-0.215029X-0.078820X0.009468X-0.228824X0*%
%ADD152RoundRect,0.135000X-0.215029X-0.078820X0.009468X-0.228824X0.215029X0.078820X-0.009468X0.228824X0*%
%ADD153RoundRect,0.135000X0.195520X0.119255X-0.053927X0.222580X-0.195520X-0.119255X0.053927X-0.222580X0*%
%ADD154RoundRect,0.135000X-0.195520X-0.119255X0.053927X-0.222580X0.195520X0.119255X-0.053927X0.222580X0*%
%ADD155RoundRect,0.135000X0.168498X0.155108X-0.096314X0.207782X-0.168498X-0.155108X0.096314X-0.207782X0*%
%ADD156RoundRect,0.135000X-0.168498X-0.155108X0.096314X-0.207782X0.168498X0.155108X-0.096314X0.207782X0*%
%ADD157R,0.670000X1.000000*%
%ADD158R,0.350000X0.430000*%
%ADD159RotRect,0.670000X1.000000X191.250000*%
%ADD160RotRect,0.350000X0.430000X191.250000*%
%ADD161RotRect,0.670000X1.000000X202.500000*%
%ADD162RotRect,0.350000X0.430000X202.500000*%
%ADD163RotRect,0.670000X1.000000X213.750000*%
%ADD164RotRect,0.350000X0.430000X213.750000*%
%ADD165RotRect,0.670000X1.000000X225.000000*%
%ADD166RotRect,0.350000X0.430000X225.000000*%
%ADD167RotRect,0.670000X1.000000X236.250000*%
%ADD168RotRect,0.350000X0.430000X236.250000*%
%ADD169RotRect,0.670000X1.000000X247.500000*%
%ADD170RotRect,0.350000X0.430000X247.500000*%
%ADD171RotRect,0.670000X1.000000X258.750000*%
%ADD172RotRect,0.350000X0.430000X258.750000*%
%ADD173R,1.000000X0.670000*%
%ADD174R,0.430000X0.350000*%
%ADD175RotRect,0.670000X1.000000X281.250000*%
%ADD176RotRect,0.350000X0.430000X281.250000*%
%ADD177RotRect,0.670000X1.000000X292.500000*%
%ADD178RotRect,0.350000X0.430000X292.500000*%
%ADD179RotRect,0.670000X1.000000X303.750000*%
%ADD180RotRect,0.350000X0.430000X303.750000*%
%ADD181RotRect,0.670000X1.000000X315.000000*%
%ADD182RotRect,0.350000X0.430000X315.000000*%
%ADD183RotRect,0.670000X1.000000X326.250000*%
%ADD184RotRect,0.350000X0.430000X326.250000*%
%ADD185RotRect,0.670000X1.000000X337.500000*%
%ADD186RotRect,0.350000X0.430000X337.500000*%
%ADD187RotRect,0.670000X1.000000X348.750000*%
%ADD188RotRect,0.350000X0.430000X348.750000*%
%ADD189RotRect,0.670000X1.000000X11.250000*%
%ADD190RotRect,0.350000X0.430000X11.250000*%
%ADD191RotRect,0.670000X1.000000X22.500000*%
%ADD192RotRect,0.350000X0.430000X22.500000*%
%ADD193RotRect,0.670000X1.000000X33.750000*%
%ADD194RotRect,0.350000X0.430000X33.750000*%
%ADD195RotRect,0.670000X1.000000X45.000000*%
%ADD196RotRect,0.350000X0.430000X45.000000*%
%ADD197RotRect,0.670000X1.000000X56.250000*%
%ADD198RotRect,0.350000X0.430000X56.250000*%
%ADD199RotRect,0.670000X1.000000X67.500000*%
%ADD200RotRect,0.350000X0.430000X67.500000*%
%ADD201RotRect,0.670000X1.000000X78.750000*%
%ADD202RotRect,0.350000X0.430000X78.750000*%
%ADD203RotRect,0.670000X1.000000X101.250000*%
%ADD204RotRect,0.350000X0.430000X101.250000*%
%ADD205RotRect,0.670000X1.000000X112.500000*%
%ADD206RotRect,0.350000X0.430000X112.500000*%
%ADD207RotRect,0.670000X1.000000X123.750000*%
%ADD208RotRect,0.350000X0.430000X123.750000*%
%ADD209RotRect,0.670000X1.000000X135.000000*%
%ADD210RotRect,0.350000X0.430000X135.000000*%
%ADD211RotRect,0.670000X1.000000X146.250000*%
%ADD212RotRect,0.350000X0.430000X146.250000*%
%ADD213RotRect,0.670000X1.000000X157.500000*%
%ADD214RotRect,0.350000X0.430000X157.500000*%
%ADD215RotRect,0.670000X1.000000X168.750000*%
%ADD216RotRect,0.350000X0.430000X168.750000*%
%ADD217R,4.250000X4.250000*%
%ADD218R,0.350000X1.050000*%
%ADD219R,1.050000X0.350000*%
%ADD220R,1.800000X1.800000*%
%ADD221R,0.300000X0.900000*%
%ADD222R,0.300000X0.300000*%
%ADD223R,0.900000X0.300000*%
%ADD224R,1.600000X0.200000*%
%ADD225R,0.350000X0.490000*%
%ADD226R,1.000000X1.800000*%
%ADD227RotRect,1.150000X1.400000X315.000000*%
%ADD228RotRect,0.130000X1.150000X202.500000*%
%ADD229RotRect,2.100000X2.120000X292.500000*%
%ADD230RotRect,0.920000X2.100000X202.500000*%
%ADD231RotRect,0.110000X1.150000X202.500000*%
%ADD232RotRect,0.130000X1.150000X191.250000*%
%ADD233RotRect,2.100000X2.120000X281.250000*%
%ADD234RotRect,0.920000X2.100000X191.250000*%
%ADD235RotRect,0.110000X1.150000X191.250000*%
%ADD236RotRect,0.130000X1.150000X11.250000*%
%ADD237RotRect,2.100000X2.120000X101.250000*%
%ADD238RotRect,0.920000X2.100000X11.250000*%
%ADD239RotRect,0.110000X1.150000X11.250000*%
%ADD240RotRect,0.130000X1.150000X168.750000*%
%ADD241RotRect,2.100000X2.120000X258.750000*%
%ADD242RotRect,0.920000X2.100000X168.750000*%
%ADD243RotRect,0.110000X1.150000X168.750000*%
%ADD244RotRect,0.130000X1.150000X146.250000*%
%ADD245RotRect,2.100000X2.120000X236.250000*%
%ADD246RotRect,0.920000X2.100000X146.250000*%
%ADD247RotRect,0.110000X1.150000X146.250000*%
%ADD248RotRect,0.130000X1.150000X303.750000*%
%ADD249RotRect,2.100000X2.120000X33.750000*%
%ADD250RotRect,0.920000X2.100000X303.750000*%
%ADD251RotRect,0.110000X1.150000X303.750000*%
%ADD252RotRect,0.130000X1.150000X236.250000*%
%ADD253RotRect,2.100000X2.120000X326.250000*%
%ADD254RotRect,0.920000X2.100000X236.250000*%
%ADD255RotRect,0.110000X1.150000X236.250000*%
%ADD256RotRect,0.130000X1.150000X326.250000*%
%ADD257RotRect,2.100000X2.120000X56.250000*%
%ADD258RotRect,0.920000X2.100000X326.250000*%
%ADD259RotRect,0.110000X1.150000X326.250000*%
%ADD260RoundRect,0.180000X-0.420000X-0.420000X0.420000X-0.420000X0.420000X0.420000X-0.420000X0.420000X0*%
%ADD261RotRect,0.130000X1.150000X315.000000*%
%ADD262RotRect,2.100000X2.120000X45.000000*%
%ADD263RotRect,0.920000X2.100000X315.000000*%
%ADD264RotRect,0.110000X1.150000X315.000000*%
%ADD265RotRect,0.130000X1.150000X348.750000*%
%ADD266RotRect,2.100000X2.120000X78.750000*%
%ADD267RotRect,0.920000X2.100000X348.750000*%
%ADD268RotRect,0.110000X1.150000X348.750000*%
G04 APERTURE END LIST*
D10*
%TO.C,C1*%
X85980000Y-48650000D03*
X85020000Y-48650000D03*
%TD*%
%TO.C,C2*%
X97730000Y-48500000D03*
X96770000Y-48500000D03*
%TD*%
D11*
%TO.C,C7*%
X116350000Y-52155000D03*
X116350000Y-51195000D03*
%TD*%
D10*
%TO.C,C8*%
X114680000Y-51100000D03*
X113720000Y-51100000D03*
%TD*%
D12*
%TO.C,U36*%
X69975000Y-60225000D03*
X69975000Y-61425000D03*
D13*
X68975000Y-59825000D03*
X68975000Y-60325000D03*
X68975000Y-60825000D03*
X68975000Y-61325000D03*
X68975000Y-61825000D03*
X70975000Y-61825000D03*
X70975000Y-61325000D03*
X70975000Y-60825000D03*
X70975000Y-60325000D03*
X70975000Y-59825000D03*
%TD*%
D14*
%TO.C,U39*%
X104600000Y-45550000D03*
X104600000Y-45050000D03*
X104600000Y-44550000D03*
X104600000Y-44050000D03*
X104600000Y-43550000D03*
X104600000Y-43050000D03*
X104600000Y-42550000D03*
X104600000Y-42050000D03*
X104600000Y-41550000D03*
X104600000Y-41050000D03*
X104600000Y-40550000D03*
X104600000Y-40050000D03*
D15*
X103900000Y-39350000D03*
X103400000Y-39350000D03*
X102900000Y-39350000D03*
X102400000Y-39350000D03*
X101900000Y-39350000D03*
X101400000Y-39350000D03*
X100900000Y-39350000D03*
X100400000Y-39350000D03*
X99900000Y-39350000D03*
X99400000Y-39350000D03*
X98900000Y-39350000D03*
X98400000Y-39350000D03*
D14*
X97700000Y-40050000D03*
X97700000Y-40550000D03*
X97700000Y-41050000D03*
X97700000Y-41550000D03*
X97700000Y-42050000D03*
X97700000Y-42550000D03*
X97700000Y-43050000D03*
X97700000Y-43550000D03*
X97700000Y-44050000D03*
X97700000Y-44550000D03*
X97700000Y-45050000D03*
X97700000Y-45550000D03*
D15*
X98400000Y-46250000D03*
X98900000Y-46250000D03*
X99400000Y-46250000D03*
X99900000Y-46250000D03*
X100400000Y-46250000D03*
X100900000Y-46250000D03*
X101400000Y-46250000D03*
X101900000Y-46250000D03*
X102400000Y-46250000D03*
X102900000Y-46250000D03*
X103400000Y-46250000D03*
X103900000Y-46250000D03*
D16*
X101150000Y-42800000D03*
%TD*%
D17*
%TO.C,C32*%
X71020000Y-57630000D03*
X69120000Y-57630000D03*
%TD*%
%TO.C,C6*%
X71020000Y-55400000D03*
X69120000Y-55400000D03*
%TD*%
D18*
%TO.C,C5*%
X67080000Y-60550000D03*
X67080000Y-58650000D03*
%TD*%
D19*
%TO.C,C3*%
X62050000Y-46700000D03*
X67450000Y-46700000D03*
%TD*%
D20*
%TO.C,C9*%
X73912500Y-52400000D03*
X73912500Y-50500000D03*
%TD*%
D10*
%TO.C,C10*%
X95620000Y-47450000D03*
X96580000Y-47450000D03*
%TD*%
D21*
%TO.C,C11*%
X92600000Y-45300000D03*
X91640000Y-45300000D03*
%TD*%
D22*
%TO.C,C12*%
X103749411Y-50019411D03*
X103070589Y-49340589D03*
%TD*%
D23*
%TO.C,C13*%
X104980000Y-48410000D03*
X104980000Y-47450000D03*
%TD*%
%TO.C,C14*%
X111700000Y-45630000D03*
X111700000Y-44670000D03*
%TD*%
D21*
%TO.C,C15*%
X105790000Y-38090000D03*
X104830000Y-38090000D03*
%TD*%
%TO.C,C16*%
X100380000Y-38100000D03*
X99420000Y-38100000D03*
%TD*%
D23*
%TO.C,C17*%
X101870000Y-48740000D03*
X101870000Y-47780000D03*
%TD*%
D10*
%TO.C,C18*%
X93620000Y-45300000D03*
X94580000Y-45300000D03*
%TD*%
%TO.C,C19*%
X93620000Y-46350000D03*
X94580000Y-46350000D03*
%TD*%
%TO.C,C20*%
X113720000Y-52175000D03*
X114680000Y-52175000D03*
%TD*%
%TO.C,C21*%
X96700000Y-38100000D03*
X97660000Y-38100000D03*
%TD*%
%TO.C,C22*%
X112720000Y-45590000D03*
X113680000Y-45590000D03*
%TD*%
D21*
%TO.C,C23*%
X116510000Y-38050000D03*
X115550000Y-38050000D03*
%TD*%
D10*
%TO.C,C24*%
X108870000Y-39200000D03*
X109830000Y-39200000D03*
%TD*%
D21*
%TO.C,C25*%
X107850000Y-39200000D03*
X106890000Y-39200000D03*
%TD*%
D20*
%TO.C,C26*%
X71700000Y-52400000D03*
X71700000Y-50500000D03*
%TD*%
D11*
%TO.C,C27*%
X108700000Y-45570000D03*
X108700000Y-46530000D03*
%TD*%
D24*
%TO.C,C28*%
X105760589Y-49789411D03*
X106439411Y-49110589D03*
%TD*%
D25*
%TO.C,C29*%
X109489411Y-52510589D03*
X108810589Y-53189411D03*
%TD*%
D20*
%TO.C,C30*%
X76125000Y-52400000D03*
X76125000Y-50500000D03*
%TD*%
D23*
%TO.C,C31*%
X109475000Y-60380000D03*
X109475000Y-59420000D03*
%TD*%
D26*
%TO.C,D1*%
X94108983Y-78503645D03*
D27*
X94108983Y-77988645D03*
D28*
X94108983Y-75968645D03*
D29*
X94108983Y-74843645D03*
%TD*%
D30*
%TO.C,D2*%
X86273128Y-79277580D03*
D31*
X86172656Y-78772476D03*
D32*
X85778574Y-76791289D03*
D33*
X85559097Y-75687906D03*
%TD*%
D34*
%TO.C,D3*%
X78738503Y-81561024D03*
D35*
X78541421Y-81085226D03*
D36*
X77768401Y-79218989D03*
D37*
X77337882Y-78179625D03*
%TD*%
D38*
%TO.C,D7*%
X57001362Y-103298165D03*
D39*
X56525564Y-103101083D03*
D40*
X54659327Y-102328063D03*
D41*
X53619963Y-101897544D03*
%TD*%
D42*
%TO.C,D9*%
X53953645Y-118681017D03*
D43*
X53438645Y-118681017D03*
D44*
X51418645Y-118681017D03*
D45*
X50293645Y-118681017D03*
%TD*%
D46*
%TO.C,D11*%
X57015343Y-134051177D03*
D47*
X56539545Y-134248259D03*
D48*
X54673308Y-135021279D03*
D49*
X53633944Y-135451798D03*
%TD*%
D50*
%TO.C,D12*%
X60713006Y-140983124D03*
D51*
X60284799Y-141269242D03*
D52*
X58605230Y-142391494D03*
D53*
X57669827Y-143016511D03*
%TD*%
D54*
%TO.C,D13*%
X65725888Y-147079692D03*
D55*
X65361728Y-147443852D03*
D56*
X63933372Y-148872208D03*
D57*
X63137877Y-149667703D03*
%TD*%
D58*
%TO.C,D14*%
X71794504Y-152064622D03*
D59*
X71508386Y-152492829D03*
D60*
X70386134Y-154172398D03*
D61*
X69761117Y-155107801D03*
%TD*%
D62*
%TO.C,D15*%
X78738503Y-155776266D03*
D63*
X78541421Y-156252064D03*
D64*
X77768401Y-158118301D03*
D65*
X77337882Y-159157665D03*
%TD*%
D66*
%TO.C,D16*%
X86294738Y-158066719D03*
D67*
X86194266Y-158571823D03*
D68*
X85800184Y-160553010D03*
D69*
X85580707Y-161656393D03*
%TD*%
D26*
%TO.C,D17*%
X94108983Y-158833645D03*
D27*
X94108983Y-159348645D03*
D28*
X94108983Y-161368645D03*
D29*
X94108983Y-162493645D03*
%TD*%
D70*
%TO.C,D18*%
X101966872Y-158062420D03*
D71*
X102067344Y-158567524D03*
D72*
X102461426Y-160548711D03*
D73*
X102680903Y-161652094D03*
%TD*%
D74*
%TO.C,D19*%
X109479463Y-155776266D03*
D75*
X109676545Y-156252064D03*
D76*
X110449565Y-158118301D03*
D77*
X110880084Y-159157665D03*
%TD*%
D78*
%TO.C,D20*%
X116423462Y-152064622D03*
D79*
X116709580Y-152492829D03*
D80*
X117831832Y-154172398D03*
D81*
X118456849Y-155107801D03*
%TD*%
D82*
%TO.C,D21*%
X122529692Y-147064112D03*
D83*
X122893852Y-147428272D03*
D84*
X124322208Y-148856628D03*
D85*
X125117703Y-149652123D03*
%TD*%
D86*
%TO.C,D23*%
X131233089Y-134030820D03*
D87*
X131708887Y-134227902D03*
D88*
X133575124Y-135000922D03*
D89*
X134614488Y-135431441D03*
%TD*%
D90*
%TO.C,D28*%
X127510983Y-96345608D03*
D91*
X127939190Y-96059490D03*
D92*
X129618759Y-94937238D03*
D93*
X130554162Y-94312221D03*
%TD*%
D94*
%TO.C,D29*%
X122514112Y-90260308D03*
D95*
X122878272Y-89896148D03*
D96*
X124306628Y-88467792D03*
D97*
X125102123Y-87672297D03*
%TD*%
D98*
%TO.C,D31*%
X109479463Y-81561024D03*
D99*
X109676545Y-81085226D03*
D100*
X110449565Y-79218989D03*
D101*
X110880084Y-78179625D03*
%TD*%
D102*
%TO.C,D32*%
X101945262Y-79273281D03*
D103*
X102045734Y-78768177D03*
D104*
X102439816Y-76786990D03*
D105*
X102659293Y-75683607D03*
%TD*%
D106*
%TO.C,D33*%
X118585000Y-59875000D03*
X118585000Y-58475000D03*
%TD*%
%TO.C,D34*%
X118490000Y-56962500D03*
X118490000Y-55562500D03*
%TD*%
D107*
%TO.C,D35*%
X118490000Y-52930000D03*
X118490000Y-54330000D03*
%TD*%
D108*
%TO.C,D36*%
X113300000Y-59785000D03*
X113300000Y-58815000D03*
%TD*%
%TO.C,D37*%
X114450000Y-59785000D03*
X114450000Y-58815000D03*
%TD*%
D109*
%TO.C,D38*%
X81797500Y-36990000D03*
X85797500Y-36990000D03*
%TD*%
D110*
%TO.C,D39*%
X89000000Y-43650000D03*
X89000000Y-40150000D03*
%TD*%
D111*
%TO.C,F1*%
X85800000Y-32900000D03*
X80800000Y-32900000D03*
%TD*%
D112*
%TO.C,FL1*%
X78650000Y-53612500D03*
X78650000Y-55187500D03*
%TD*%
D113*
%TO.C,J2*%
X120830000Y-56690000D03*
X120830000Y-55690000D03*
X120830000Y-54190000D03*
X120830000Y-53190000D03*
D114*
X120830000Y-52540000D03*
X120830000Y-51740000D03*
D113*
X120830000Y-53690000D03*
X120830000Y-54690000D03*
X120830000Y-55190000D03*
X120830000Y-56190000D03*
D114*
X120830000Y-57340000D03*
X120830000Y-58140000D03*
%TD*%
D115*
%TO.C,J3*%
X125615000Y-42840000D03*
X122665000Y-42840000D03*
D116*
X124140000Y-44365000D03*
%TD*%
D117*
%TO.C,J6*%
X64200000Y-54750000D03*
%TD*%
%TO.C,J7*%
X61000000Y-54800000D03*
%TD*%
D118*
%TO.C,J8*%
X83300000Y-82850000D03*
%TD*%
D119*
%TO.C,J9*%
X70330000Y-89700000D03*
%TD*%
D120*
%TO.C,L1*%
X74800000Y-56650000D03*
X74800000Y-60350000D03*
%TD*%
D121*
%TO.C,L2*%
X92187500Y-43800000D03*
X94312500Y-43800000D03*
%TD*%
D122*
%TO.C,L3*%
X110680000Y-45580000D03*
X109710000Y-45580000D03*
%TD*%
%TO.C,L7*%
X110235000Y-44310000D03*
X109265000Y-44310000D03*
%TD*%
D123*
%TO.C,Q1*%
X83000000Y-41700000D03*
D124*
X84905000Y-46526000D03*
X83635000Y-46526000D03*
X82365000Y-46526000D03*
X81095000Y-46526000D03*
%TD*%
D125*
%TO.C,R1*%
X97828983Y-66448645D03*
X96808983Y-66448645D03*
%TD*%
D126*
%TO.C,R2*%
X90488983Y-66448645D03*
X91508983Y-66448645D03*
%TD*%
D127*
%TO.C,R3*%
X87569887Y-66726302D03*
X86569487Y-66925294D03*
%TD*%
D128*
%TO.C,R4*%
X80370924Y-68158265D03*
X81371324Y-67959273D03*
%TD*%
D129*
%TO.C,R5*%
X77562086Y-69000073D03*
X76619728Y-69390411D03*
%TD*%
D130*
%TO.C,R6*%
X70780810Y-71808970D03*
X71723168Y-71418632D03*
%TD*%
D131*
%TO.C,R7*%
X68190173Y-73182580D03*
X67342073Y-73749262D03*
%TD*%
D132*
%TO.C,R8*%
X62087185Y-77260466D03*
X62935285Y-76693784D03*
%TD*%
D133*
%TO.C,R9*%
X59814304Y-79113092D03*
X59093056Y-79834340D03*
%TD*%
D134*
%TO.C,R10*%
X54624141Y-84303255D03*
X55345389Y-83582007D03*
%TD*%
D135*
%TO.C,R11*%
X52756361Y-86563700D03*
X52189679Y-87411800D03*
%TD*%
D136*
%TO.C,R12*%
X48678475Y-92666688D03*
X49245157Y-91818588D03*
%TD*%
D137*
%TO.C,R13*%
X47287577Y-95248084D03*
X46897239Y-96190442D03*
%TD*%
D138*
%TO.C,R14*%
X44478679Y-102029361D03*
X44869017Y-101087003D03*
%TD*%
D139*
%TO.C,R15*%
X43618112Y-104832508D03*
X43419120Y-105832908D03*
%TD*%
D140*
%TO.C,R16*%
X42186149Y-112031471D03*
X42385141Y-111031071D03*
%TD*%
D141*
%TO.C,R17*%
X41888983Y-114948645D03*
X41888983Y-115968645D03*
%TD*%
D142*
%TO.C,R18*%
X41888983Y-122288645D03*
X41888983Y-121268645D03*
%TD*%
D143*
%TO.C,R19*%
X42166640Y-125207741D03*
X42365632Y-126208141D03*
%TD*%
D144*
%TO.C,R20*%
X43598603Y-132406704D03*
X43399611Y-131406304D03*
%TD*%
D145*
%TO.C,R21*%
X44440411Y-135215542D03*
X44830749Y-136157900D03*
%TD*%
D146*
%TO.C,R22*%
X47249308Y-141996818D03*
X46858970Y-141054460D03*
%TD*%
D147*
%TO.C,R23*%
X48622918Y-144587455D03*
X49189600Y-145435555D03*
%TD*%
D148*
%TO.C,R24*%
X52700804Y-150690443D03*
X52134122Y-149842343D03*
%TD*%
D149*
%TO.C,R25*%
X54553430Y-152963324D03*
X55274678Y-153684572D03*
%TD*%
D150*
%TO.C,R26*%
X59743593Y-158153487D03*
X59022345Y-157432239D03*
%TD*%
D151*
%TO.C,R27*%
X62004038Y-160021267D03*
X62852138Y-160587949D03*
%TD*%
D152*
%TO.C,R28*%
X68107026Y-164099153D03*
X67258926Y-163532471D03*
%TD*%
D153*
%TO.C,R29*%
X70688422Y-165490051D03*
X71630780Y-165880389D03*
%TD*%
D154*
%TO.C,R30*%
X77469699Y-168298949D03*
X76527341Y-167908611D03*
%TD*%
D155*
%TO.C,R31*%
X80272846Y-169159516D03*
X81273246Y-169358508D03*
%TD*%
D156*
%TO.C,R32*%
X87471809Y-170591479D03*
X86471409Y-170392487D03*
%TD*%
D126*
%TO.C,R33*%
X90388983Y-170888645D03*
X91408983Y-170888645D03*
%TD*%
D125*
%TO.C,R34*%
X97728983Y-170888645D03*
X96708983Y-170888645D03*
%TD*%
D128*
%TO.C,R35*%
X100648079Y-170610988D03*
X101648479Y-170411996D03*
%TD*%
D127*
%TO.C,R36*%
X107847042Y-169179025D03*
X106846642Y-169378017D03*
%TD*%
D130*
%TO.C,R37*%
X110655880Y-168337217D03*
X111598238Y-167946879D03*
%TD*%
D129*
%TO.C,R38*%
X117437156Y-165528320D03*
X116494798Y-165918658D03*
%TD*%
D132*
%TO.C,R39*%
X120027793Y-164154710D03*
X120875893Y-163588028D03*
%TD*%
D131*
%TO.C,R40*%
X126130781Y-160076824D03*
X125282681Y-160643506D03*
%TD*%
D134*
%TO.C,R41*%
X128403662Y-158224198D03*
X129124910Y-157502950D03*
%TD*%
D133*
%TO.C,R42*%
X133593825Y-153034035D03*
X132872577Y-153755283D03*
%TD*%
D136*
%TO.C,R43*%
X135461605Y-150773590D03*
X136028287Y-149925490D03*
%TD*%
D135*
%TO.C,R44*%
X139539491Y-144670602D03*
X138972809Y-145518702D03*
%TD*%
D138*
%TO.C,R45*%
X140930389Y-142089206D03*
X141320727Y-141146848D03*
%TD*%
D137*
%TO.C,R46*%
X143739287Y-135307929D03*
X143348949Y-136250287D03*
%TD*%
D140*
%TO.C,R47*%
X144599854Y-132504782D03*
X144798846Y-131504382D03*
%TD*%
D139*
%TO.C,R48*%
X146031817Y-125305819D03*
X145832825Y-126306219D03*
%TD*%
D142*
%TO.C,R49*%
X146328983Y-122388645D03*
X146328983Y-121368645D03*
%TD*%
D141*
%TO.C,R50*%
X146328983Y-115048645D03*
X146328983Y-116068645D03*
%TD*%
D144*
%TO.C,R51*%
X146051326Y-112129549D03*
X145852334Y-111129149D03*
%TD*%
D143*
%TO.C,R52*%
X144619363Y-104930586D03*
X144818355Y-105930986D03*
%TD*%
D146*
%TO.C,R53*%
X143777555Y-102121748D03*
X143387217Y-101179390D03*
%TD*%
D145*
%TO.C,R54*%
X140968658Y-95340472D03*
X141358996Y-96282830D03*
%TD*%
D148*
%TO.C,R55*%
X139595048Y-92749835D03*
X139028366Y-91901735D03*
%TD*%
D147*
%TO.C,R56*%
X135517162Y-86646847D03*
X136083844Y-87494947D03*
%TD*%
D150*
%TO.C,R57*%
X133664536Y-84373966D03*
X132943288Y-83652718D03*
%TD*%
D149*
%TO.C,R58*%
X128474373Y-79183803D03*
X129195621Y-79905051D03*
%TD*%
D152*
%TO.C,R59*%
X126213928Y-77316023D03*
X125365828Y-76749341D03*
%TD*%
D151*
%TO.C,R60*%
X120110940Y-73238137D03*
X120959040Y-73804819D03*
%TD*%
D154*
%TO.C,R61*%
X117529544Y-71847239D03*
X116587186Y-71456901D03*
%TD*%
D153*
%TO.C,R62*%
X110748267Y-69038341D03*
X111690625Y-69428679D03*
%TD*%
D156*
%TO.C,R63*%
X107945120Y-68177774D03*
X106944720Y-67978782D03*
%TD*%
D155*
%TO.C,R64*%
X100746157Y-66745811D03*
X101746557Y-66944803D03*
%TD*%
D125*
%TO.C,R65*%
X91310000Y-50110000D03*
X90290000Y-50110000D03*
%TD*%
D141*
%TO.C,R66*%
X81050000Y-57840000D03*
X81050000Y-58860000D03*
%TD*%
%TO.C,R67*%
X82450000Y-57840000D03*
X82450000Y-58860000D03*
%TD*%
%TO.C,R68*%
X83850000Y-57840000D03*
X83850000Y-58860000D03*
%TD*%
%TO.C,R69*%
X85250000Y-57840000D03*
X85250000Y-58860000D03*
%TD*%
%TO.C,R70*%
X86650000Y-57840000D03*
X86650000Y-58860000D03*
%TD*%
%TO.C,R71*%
X88050000Y-57840000D03*
X88050000Y-58860000D03*
%TD*%
%TO.C,R72*%
X89450000Y-57840000D03*
X89450000Y-58860000D03*
%TD*%
%TO.C,R73*%
X90850000Y-57840000D03*
X90850000Y-58860000D03*
%TD*%
%TO.C,R74*%
X81750000Y-59940000D03*
X81750000Y-60960000D03*
%TD*%
%TO.C,R75*%
X83150000Y-59940000D03*
X83150000Y-60960000D03*
%TD*%
%TO.C,R76*%
X84550000Y-59940000D03*
X84550000Y-60960000D03*
%TD*%
%TO.C,R77*%
X85950000Y-59940000D03*
X85950000Y-60960000D03*
%TD*%
%TO.C,R78*%
X87350000Y-59940000D03*
X87350000Y-60960000D03*
%TD*%
%TO.C,R79*%
X88750000Y-59940000D03*
X88750000Y-60960000D03*
%TD*%
%TO.C,R80*%
X90150000Y-59940000D03*
X90150000Y-60960000D03*
%TD*%
%TO.C,R81*%
X91550000Y-59940000D03*
X91550000Y-60960000D03*
%TD*%
D142*
%TO.C,R82*%
X102940000Y-53889999D03*
X102940000Y-52870001D03*
%TD*%
D141*
%TO.C,R83*%
X92800000Y-57840000D03*
X92800000Y-58860000D03*
%TD*%
%TO.C,R84*%
X94200000Y-57840000D03*
X94200000Y-58860000D03*
%TD*%
%TO.C,R85*%
X95600000Y-57840000D03*
X95600000Y-58860000D03*
%TD*%
%TO.C,R86*%
X97000000Y-57840000D03*
X97000000Y-58860000D03*
%TD*%
%TO.C,R87*%
X98400000Y-57840000D03*
X98400000Y-58860000D03*
%TD*%
%TO.C,R88*%
X99800000Y-57840000D03*
X99800000Y-58860000D03*
%TD*%
%TO.C,R89*%
X101200000Y-57840000D03*
X101200000Y-58860000D03*
%TD*%
%TO.C,R90*%
X102600000Y-57840000D03*
X102600000Y-58860000D03*
%TD*%
%TO.C,R91*%
X93500000Y-59940000D03*
X93500000Y-60960000D03*
%TD*%
%TO.C,R92*%
X94900000Y-59940000D03*
X94900000Y-60960000D03*
%TD*%
%TO.C,R93*%
X96300000Y-59940000D03*
X96300000Y-60960000D03*
%TD*%
%TO.C,R94*%
X97700000Y-59940000D03*
X97700000Y-60960000D03*
%TD*%
%TO.C,R95*%
X99100000Y-59940000D03*
X99100000Y-60960000D03*
%TD*%
%TO.C,R96*%
X100500000Y-59940000D03*
X100500000Y-60960000D03*
%TD*%
%TO.C,R97*%
X101900000Y-59940000D03*
X101900000Y-60960000D03*
%TD*%
%TO.C,R98*%
X103300000Y-59940000D03*
X103300000Y-60960000D03*
%TD*%
D126*
%TO.C,R99*%
X72380000Y-62640000D03*
X73400000Y-62640000D03*
%TD*%
%TO.C,R100*%
X113740000Y-50050000D03*
X114760000Y-50050000D03*
%TD*%
%TO.C,R101*%
X94540000Y-48500000D03*
X95560000Y-48500000D03*
%TD*%
D142*
%TO.C,R102*%
X115600000Y-59810000D03*
X115600000Y-58790000D03*
%TD*%
%TO.C,R103*%
X112150000Y-59810000D03*
X112150000Y-58790000D03*
%TD*%
D125*
%TO.C,R104*%
X96560000Y-46350000D03*
X95540000Y-46350000D03*
%TD*%
D141*
%TO.C,R105*%
X109800000Y-56340000D03*
X109800000Y-57360000D03*
%TD*%
%TO.C,R106*%
X110900000Y-56340000D03*
X110900000Y-57360000D03*
%TD*%
%TO.C,R107*%
X117320000Y-58690000D03*
X117320000Y-59710000D03*
%TD*%
D125*
%TO.C,R108*%
X109510000Y-61600000D03*
X108490000Y-61600000D03*
%TD*%
D126*
%TO.C,R109*%
X105030000Y-56440000D03*
X106050000Y-56440000D03*
%TD*%
%TO.C,R110*%
X105010000Y-55260000D03*
X106030000Y-55260000D03*
%TD*%
D125*
%TO.C,R111*%
X118530000Y-45590000D03*
X117510000Y-45590000D03*
%TD*%
D142*
%TO.C,R112*%
X116510000Y-45590000D03*
X116510000Y-44570000D03*
%TD*%
%TO.C,R113*%
X116510000Y-40010000D03*
X116510000Y-38990000D03*
%TD*%
D125*
%TO.C,R114*%
X118610000Y-50725000D03*
X117590000Y-50725000D03*
%TD*%
D126*
%TO.C,R116*%
X87965000Y-46700000D03*
X88985000Y-46700000D03*
%TD*%
D125*
%TO.C,R117*%
X89010000Y-45525000D03*
X87990000Y-45525000D03*
%TD*%
%TO.C,R118*%
X91310000Y-49050000D03*
X90290000Y-49050000D03*
%TD*%
%TO.C,R119*%
X91310000Y-47950000D03*
X90290000Y-47950000D03*
%TD*%
D157*
%TO.C,U1*%
X93618983Y-67878645D03*
X94598983Y-67878645D03*
D158*
X94758983Y-68813645D03*
X94108983Y-68813645D03*
X93458983Y-68813645D03*
X93458983Y-66943645D03*
X94108983Y-66943645D03*
X94758983Y-66943645D03*
%TD*%
D159*
%TO.C,U2*%
X83719761Y-68950155D03*
X84680931Y-68758967D03*
D160*
X85020266Y-69644787D03*
X84382755Y-69771595D03*
X83745245Y-69898404D03*
X83380426Y-68064335D03*
X84017937Y-67937527D03*
X84655447Y-67810718D03*
%TD*%
D161*
%TO.C,U3*%
X74219790Y-71932319D03*
X75125192Y-71557289D03*
D162*
X75630822Y-72359887D03*
X75030300Y-72608631D03*
X74429778Y-72857376D03*
X73714160Y-71129721D03*
X74314682Y-70880977D03*
X74915204Y-70632232D03*
%TD*%
D163*
%TO.C,U4*%
X65484151Y-76710532D03*
X66298991Y-76166074D03*
D164*
X66951484Y-76854606D03*
X66411029Y-77215727D03*
X65870574Y-77576848D03*
X64831658Y-76022000D03*
X65372113Y-75660879D03*
X65912568Y-75299758D03*
%TD*%
D165*
%TO.C,U5*%
X57848548Y-83101174D03*
X58541512Y-82408210D03*
D166*
X59315794Y-82956217D03*
X58856175Y-83415837D03*
X58396555Y-83875456D03*
X57074266Y-82553167D03*
X57533885Y-82093547D03*
X57993505Y-81633928D03*
%TD*%
D167*
%TO.C,U6*%
X51606412Y-90858653D03*
X52150870Y-90043813D03*
D168*
X53017186Y-90430236D03*
X52656065Y-90970691D03*
X52294944Y-91511146D03*
X50740096Y-90472230D03*
X51101217Y-89931775D03*
X51462338Y-89391320D03*
%TD*%
D169*
%TO.C,U7*%
X46997627Y-99684854D03*
X47372657Y-98779452D03*
D170*
X48297714Y-98989440D03*
X48048969Y-99589962D03*
X47800225Y-100190484D03*
X46072570Y-99474866D03*
X46321315Y-98874344D03*
X46570059Y-98273822D03*
%TD*%
D171*
%TO.C,U8*%
X44199305Y-109240593D03*
X44390493Y-108279423D03*
D172*
X45338742Y-108304907D03*
X45211933Y-108942417D03*
X45085125Y-109579928D03*
X43251056Y-109215109D03*
X43377865Y-108577599D03*
X43504673Y-107940088D03*
%TD*%
D173*
%TO.C,U9*%
X43318983Y-119158645D03*
X43318983Y-118178645D03*
D174*
X44253983Y-118018645D03*
X44253983Y-118668645D03*
X44253983Y-119318645D03*
X42383983Y-119318645D03*
X42383983Y-118668645D03*
X42383983Y-118018645D03*
%TD*%
D175*
%TO.C,U10*%
X44390493Y-129057867D03*
X44199305Y-128096697D03*
D176*
X45085125Y-127757362D03*
X45211933Y-128394873D03*
X45338742Y-129032383D03*
X43504673Y-129397202D03*
X43377865Y-128759691D03*
X43251056Y-128122181D03*
%TD*%
D177*
%TO.C,U11*%
X47372657Y-138557838D03*
X46997627Y-137652436D03*
D178*
X47800225Y-137146806D03*
X48048969Y-137747328D03*
X48297714Y-138347850D03*
X46570059Y-139063468D03*
X46321315Y-138462946D03*
X46072570Y-137862424D03*
%TD*%
D179*
%TO.C,U12*%
X52150870Y-147293477D03*
X51606412Y-146478637D03*
D180*
X52294944Y-145826144D03*
X52656065Y-146366599D03*
X53017186Y-146907054D03*
X51462338Y-147945970D03*
X51101217Y-147405515D03*
X50740096Y-146865060D03*
%TD*%
D181*
%TO.C,U13*%
X58541512Y-154929080D03*
X57848548Y-154236116D03*
D182*
X58396555Y-153461834D03*
X58856175Y-153921453D03*
X59315794Y-154381073D03*
X57993505Y-155703362D03*
X57533885Y-155243743D03*
X57074266Y-154784123D03*
%TD*%
D183*
%TO.C,U14*%
X66298991Y-161171216D03*
X65484151Y-160626758D03*
D184*
X65870574Y-159760442D03*
X66411029Y-160121563D03*
X66951484Y-160482684D03*
X65912568Y-162037532D03*
X65372113Y-161676411D03*
X64831658Y-161315290D03*
%TD*%
D185*
%TO.C,U15*%
X75125192Y-165780001D03*
X74219790Y-165404971D03*
D186*
X74429778Y-164479914D03*
X75030300Y-164728659D03*
X75630822Y-164977403D03*
X74915204Y-166705058D03*
X74314682Y-166456313D03*
X73714160Y-166207569D03*
%TD*%
D187*
%TO.C,U16*%
X84680931Y-168578323D03*
X83719761Y-168387135D03*
D188*
X83745245Y-167438886D03*
X84382755Y-167565695D03*
X85020266Y-167692503D03*
X84655447Y-169526572D03*
X84017937Y-169399763D03*
X83380426Y-169272955D03*
%TD*%
D157*
%TO.C,U17*%
X94598983Y-169458645D03*
X93618983Y-169458645D03*
D158*
X93458983Y-168523645D03*
X94108983Y-168523645D03*
X94758983Y-168523645D03*
X94758983Y-170393645D03*
X94108983Y-170393645D03*
X93458983Y-170393645D03*
%TD*%
D189*
%TO.C,U18*%
X104498205Y-168387135D03*
X103537035Y-168578323D03*
D190*
X103197700Y-167692503D03*
X103835211Y-167565695D03*
X104472721Y-167438886D03*
X104837540Y-169272955D03*
X104200029Y-169399763D03*
X103562519Y-169526572D03*
%TD*%
D191*
%TO.C,U19*%
X113998176Y-165404971D03*
X113092774Y-165780001D03*
D192*
X112587144Y-164977403D03*
X113187666Y-164728659D03*
X113788188Y-164479914D03*
X114503806Y-166207569D03*
X113903284Y-166456313D03*
X113302762Y-166705058D03*
%TD*%
D193*
%TO.C,U20*%
X122733815Y-160626758D03*
X121918975Y-161171216D03*
D194*
X121266482Y-160482684D03*
X121806937Y-160121563D03*
X122347392Y-159760442D03*
X123386308Y-161315290D03*
X122845853Y-161676411D03*
X122305398Y-162037532D03*
%TD*%
D195*
%TO.C,U21*%
X130369418Y-154236116D03*
X129676454Y-154929080D03*
D196*
X128902172Y-154381073D03*
X129361791Y-153921453D03*
X129821411Y-153461834D03*
X131143700Y-154784123D03*
X130684081Y-155243743D03*
X130224461Y-155703362D03*
%TD*%
D197*
%TO.C,U22*%
X136611554Y-146478637D03*
X136067096Y-147293477D03*
D198*
X135200780Y-146907054D03*
X135561901Y-146366599D03*
X135923022Y-145826144D03*
X137477870Y-146865060D03*
X137116749Y-147405515D03*
X136755628Y-147945970D03*
%TD*%
D199*
%TO.C,U23*%
X141220339Y-137652436D03*
X140845309Y-138557838D03*
D200*
X139920252Y-138347850D03*
X140168997Y-137747328D03*
X140417741Y-137146806D03*
X142145396Y-137862424D03*
X141896651Y-138462946D03*
X141647907Y-139063468D03*
%TD*%
D201*
%TO.C,U24*%
X144018661Y-128096697D03*
X143827473Y-129057867D03*
D202*
X142879224Y-129032383D03*
X143006033Y-128394873D03*
X143132841Y-127757362D03*
X144966910Y-128122181D03*
X144840101Y-128759691D03*
X144713293Y-129397202D03*
%TD*%
D173*
%TO.C,U25*%
X144898983Y-118178645D03*
X144898983Y-119158645D03*
D174*
X143963983Y-119318645D03*
X143963983Y-118668645D03*
X143963983Y-118018645D03*
X145833983Y-118018645D03*
X145833983Y-118668645D03*
X145833983Y-119318645D03*
%TD*%
D203*
%TO.C,U26*%
X143827473Y-108279423D03*
X144018661Y-109240593D03*
D204*
X143132841Y-109579928D03*
X143006033Y-108942417D03*
X142879224Y-108304907D03*
X144713293Y-107940088D03*
X144840101Y-108577599D03*
X144966910Y-109215109D03*
%TD*%
D205*
%TO.C,U27*%
X140845309Y-98779452D03*
X141220339Y-99684854D03*
D206*
X140417741Y-100190484D03*
X140168997Y-99589962D03*
X139920252Y-98989440D03*
X141647907Y-98273822D03*
X141896651Y-98874344D03*
X142145396Y-99474866D03*
%TD*%
D207*
%TO.C,U28*%
X136067096Y-90043813D03*
X136611554Y-90858653D03*
D208*
X135923022Y-91511146D03*
X135561901Y-90970691D03*
X135200780Y-90430236D03*
X136755628Y-89391320D03*
X137116749Y-89931775D03*
X137477870Y-90472230D03*
%TD*%
D209*
%TO.C,U29*%
X129676454Y-82408210D03*
X130369418Y-83101174D03*
D210*
X129821411Y-83875456D03*
X129361791Y-83415837D03*
X128902172Y-82956217D03*
X130224461Y-81633928D03*
X130684081Y-82093547D03*
X131143700Y-82553167D03*
%TD*%
D211*
%TO.C,U30*%
X121918975Y-76166074D03*
X122733815Y-76710532D03*
D212*
X122347392Y-77576848D03*
X121806937Y-77215727D03*
X121266482Y-76854606D03*
X122305398Y-75299758D03*
X122845853Y-75660879D03*
X123386308Y-76022000D03*
%TD*%
D213*
%TO.C,U31*%
X113092774Y-71557289D03*
X113998176Y-71932319D03*
D214*
X113788188Y-72857376D03*
X113187666Y-72608631D03*
X112587144Y-72359887D03*
X113302762Y-70632232D03*
X113903284Y-70880977D03*
X114503806Y-71129721D03*
%TD*%
D215*
%TO.C,U32*%
X103537035Y-68758967D03*
X104498205Y-68950155D03*
D216*
X104472721Y-69898404D03*
X103835211Y-69771595D03*
X103197700Y-69644787D03*
X103562519Y-67810718D03*
X104200029Y-67937527D03*
X104837540Y-68064335D03*
%TD*%
D217*
%TO.C,U33*%
X86000000Y-52850000D03*
D218*
X84050000Y-50000000D03*
X84700000Y-50000000D03*
X85350000Y-50000000D03*
X86000000Y-50000000D03*
X86650000Y-50000000D03*
X87300001Y-50000000D03*
X87950000Y-50000000D03*
D219*
X88850000Y-50900000D03*
X88850000Y-51550000D03*
X88850000Y-52200000D03*
X88850000Y-52850000D03*
X88850000Y-53500000D03*
X88850000Y-54150001D03*
X88850000Y-54800000D03*
D218*
X87950000Y-55700000D03*
X87300000Y-55700000D03*
X86650000Y-55700000D03*
X86000000Y-55700000D03*
X85350000Y-55700000D03*
X84699999Y-55700000D03*
X84050000Y-55700000D03*
D219*
X83150000Y-54800000D03*
X83150000Y-54150000D03*
X83150000Y-53500000D03*
X83150000Y-52850000D03*
X83150000Y-52200000D03*
X83150000Y-51549999D03*
X83150000Y-50900000D03*
%TD*%
D217*
%TO.C,U34*%
X97750000Y-52850000D03*
D218*
X95800000Y-50000000D03*
X96450000Y-50000000D03*
X97100000Y-50000000D03*
X97750000Y-50000000D03*
X98400000Y-50000000D03*
X99050001Y-50000000D03*
X99700000Y-50000000D03*
D219*
X100600000Y-50900000D03*
X100600000Y-51550000D03*
X100600000Y-52200000D03*
X100600000Y-52850000D03*
X100600000Y-53500000D03*
X100600000Y-54150001D03*
X100600000Y-54800000D03*
D218*
X99700000Y-55700000D03*
X99050000Y-55700000D03*
X98400000Y-55700000D03*
X97750000Y-55700000D03*
X97100000Y-55700000D03*
X96449999Y-55700000D03*
X95800000Y-55700000D03*
D219*
X94900000Y-54800000D03*
X94900000Y-54150000D03*
X94900000Y-53500000D03*
X94900000Y-52850000D03*
X94900000Y-52200000D03*
X94900000Y-51549999D03*
X94900000Y-50900000D03*
%TD*%
D220*
%TO.C,U37*%
X114172501Y-55402500D03*
D221*
X114922501Y-56952500D03*
X114422501Y-56952500D03*
X113922501Y-56952500D03*
X113422501Y-56952500D03*
D222*
X112922501Y-56652500D03*
D223*
X112622501Y-56152500D03*
X112622501Y-55652500D03*
X112622501Y-55152500D03*
X112622501Y-54652500D03*
D222*
X112922501Y-54152500D03*
D221*
X113422501Y-53852500D03*
X113922501Y-53852500D03*
X114422501Y-53852500D03*
X114922501Y-53852500D03*
D222*
X115422501Y-54152500D03*
D223*
X115722501Y-54652500D03*
X115722501Y-55152500D03*
X115722501Y-55652500D03*
X115722501Y-56152500D03*
D222*
X115422501Y-56652500D03*
%TD*%
D224*
%TO.C,U38*%
X107550000Y-59137500D03*
D225*
X108300000Y-60357500D03*
X107800000Y-60357500D03*
X107300000Y-60357500D03*
X106800000Y-60357500D03*
X106800000Y-57917500D03*
X107300000Y-57917500D03*
X107800000Y-57917500D03*
X108300000Y-57917500D03*
%TD*%
D226*
%TO.C,Y1*%
X109595000Y-41055000D03*
X107095000Y-41055000D03*
%TD*%
D227*
%TO.C,Y2*%
X108943503Y-50937868D03*
X107387868Y-52493503D03*
X106256497Y-51362132D03*
X107812132Y-49806497D03*
%TD*%
D228*
%TO.C,D27*%
X134606056Y-101888202D03*
D229*
X133566692Y-102318721D03*
D230*
X131700455Y-103091741D03*
D231*
X131224657Y-103288823D03*
%TD*%
D232*
%TO.C,D26*%
X137102094Y-110109097D03*
D233*
X135998711Y-110328574D03*
D234*
X134017524Y-110722656D03*
D235*
X133512420Y-110823128D03*
%TD*%
D236*
%TO.C,D10*%
X51137906Y-127230903D03*
D237*
X52241289Y-127011426D03*
D238*
X54222476Y-126617344D03*
D239*
X54727580Y-126516872D03*
%TD*%
D240*
%TO.C,D24*%
X137106393Y-127209293D03*
D241*
X136003010Y-126989816D03*
D242*
X134021823Y-126595734D03*
D243*
X133516719Y-126495262D03*
%TD*%
D244*
%TO.C,D22*%
X130566403Y-143009458D03*
D245*
X129631000Y-142384441D03*
D246*
X127951431Y-141262189D03*
D247*
X127523224Y-140976071D03*
%TD*%
D248*
%TO.C,D4*%
X69762221Y-82235838D03*
D249*
X70387238Y-83171241D03*
D250*
X71509490Y-84850810D03*
D251*
X71795608Y-85279017D03*
%TD*%
D252*
%TO.C,D30*%
X118459458Y-82223597D03*
D253*
X117834441Y-83159000D03*
D254*
X116712189Y-84838569D03*
D255*
X116426071Y-85266776D03*
%TD*%
D45*
%TO.C,D25*%
X137946355Y-118658983D03*
D44*
X136821355Y-118658983D03*
D43*
X134801355Y-118658983D03*
D42*
X134286355Y-118658983D03*
%TD*%
D256*
%TO.C,D6*%
X57673597Y-94330542D03*
D257*
X58609000Y-94955559D03*
D258*
X60288569Y-96077811D03*
D259*
X60716776Y-96363929D03*
%TD*%
D260*
%TO.C,REF\u002A\u002A*%
X119790000Y-38290000D03*
%TD*%
D261*
%TO.C,D5*%
X63122297Y-87687877D03*
D262*
X63917792Y-88483372D03*
D263*
X65346148Y-89911728D03*
D264*
X65710308Y-90275888D03*
%TD*%
D265*
%TO.C,D8*%
X51133607Y-110130707D03*
D266*
X52236990Y-110350184D03*
D267*
X54218177Y-110744266D03*
D268*
X54723281Y-110844738D03*
%TD*%
D260*
%TO.C,REF\u002A\u002A*%
X117790000Y-38290000D03*
%TD*%
M02*
